{"glyphs":{"0":{"ha":733,"x_min":75,"x_max":659,"o":"m 162 64 q 142 81 162 64 q 99 152 122 99 q 75 259 75 205 q 88 356 75 312 q 126 438 101 400 q 186 505 152 476 q 371 567 262 567 q 574 490 491 567 q 659 289 659 413 q 578 78 659 166 q 485 12 540 37 q 369 -13 430 -13 q 255 8 308 -13 q 162 64 202 28 m 143 281 q 160 193 143 235 q 207 119 177 152 q 372 48 273 48 q 524 111 458 48 q 592 274 592 175 q 529 432 592 362 q 364 504 464 504 q 211 442 276 504 q 143 281 143 377 z "},"1":{"ha":469,"x_min":52,"x_max":418,"o":"m 52 0 l 52 44 l 104 44 q 168 49 159 44 q 180 59 177 53 q 183 87 183 66 l 183 449 q 176 480 183 474 q 136 492 161 492 l 54 492 l 54 535 l 199 535 q 248 551 240 535 q 253 564 251 557 q 256 575 255 572 l 286 575 q 280 299 280 430 l 280 86 q 293 52 280 59 q 343 44 305 44 l 418 44 l 418 0 l 52 0 z "},"2":{"ha":671,"x_min":52,"x_max":620,"o":"m 136 428 q 122 443 122 428 q 131 476 122 459 q 159 510 140 494 q 203 538 177 526 q 320 567 259 567 q 417 555 382 567 q 474 526 452 544 q 513 487 497 508 q 542 411 542 447 q 394 180 542 287 q 280 103 340 140 q 221 62 221 65 q 262 58 221 58 q 362 66 302 58 q 461 83 421 73 q 532 104 501 94 q 582 122 562 115 q 608 129 601 129 q 620 117 620 129 q 607 61 620 109 q 590 10 595 14 q 584 4 586 5 q 526 0 578 0 l 71 0 q 52 11 52 0 q 105 53 52 18 q 198 115 158 89 q 277 174 237 142 q 350 239 317 207 q 424 371 424 314 q 384 465 424 428 q 285 502 344 502 q 188 475 220 502 q 165 454 174 465 q 149 436 156 443 q 136 428 142 428 z "},"3":{"ha":598,"x_min":8,"x_max":547,"o":"m 26 -336 q 8 -306 8 -323 q 28 -288 8 -288 q 52 -293 33 -288 q 159 -308 110 -308 q 244 -299 209 -308 q 312 -272 279 -291 q 371 -228 346 -254 q 428 -86 428 -172 q 412 1 428 -27 q 383 44 396 30 q 356 67 369 58 q 328 82 343 76 q 271 98 295 96 q 240 100 248 99 q 226 102 233 100 q 213 116 213 105 q 220 134 213 128 q 241 144 228 140 q 270 155 254 149 q 361 260 336 181 q 374 324 374 301 q 369 366 374 347 q 354 405 365 385 q 329 442 344 426 q 251 479 295 479 q 179 473 207 479 q 136 457 152 466 q 108 439 120 448 q 68 417 79 417 q 52 437 52 417 q 91 498 52 459 q 278 564 159 564 q 450 475 397 564 q 475 386 475 432 q 467 310 475 340 q 447 259 459 280 q 420 219 435 237 q 390 189 405 200 q 335 153 361 165 q 492 76 430 141 q 547 -76 547 17 q 452 -275 547 -196 q 182 -365 345 -365 q 26 -336 69 -365 z "},"4":{"ha":833,"x_min":52,"x_max":782,"o":"m 71 0 q 52 10 52 0 q 165 128 52 14 l 589 549 q 608 564 604 564 q 620 531 620 564 l 620 86 l 782 86 l 753 0 l 620 0 l 620 -325 l 521 -367 l 521 0 l 71 0 m 196 86 l 521 86 l 521 410 l 196 86 z "},"5":{"ha":644,"x_min":24,"x_max":583,"o":"m 176 268 l 275 276 q 568 90 513 276 q 583 -9 583 37 q 579 -82 583 -55 q 563 -141 574 -109 q 534 -204 552 -174 q 489 -263 517 -234 q 425 -313 460 -292 q 231 -360 347 -360 q 51 -317 110 -360 q 24 -283 24 -298 q 38 -268 24 -268 q 56 -274 47 -268 q 68 -282 65 -280 q 227 -307 105 -307 q 322 -284 276 -307 q 399 -225 367 -262 q 469 -47 469 -146 q 271 208 469 158 q 161 221 218 221 l 101 217 q 84 515 101 370 q 83 524 83 523 q 104 540 83 540 l 308 535 q 454 546 381 535 q 478 600 474 549 l 511 596 l 494 478 q 485 447 491 456 q 456 437 478 437 q 314 454 433 437 q 192 471 196 471 q 154 435 166 471 q 142 349 142 399 q 143 291 142 299 q 146 278 144 283 q 153 271 148 273 q 176 268 160 268 z "},"6":{"ha":708,"x_min":75,"x_max":632,"o":"m 151 104 q 133 132 151 104 q 95 234 114 160 q 75 385 75 308 q 90 530 75 463 q 133 653 106 597 q 199 757 160 710 q 282 838 237 805 q 482 908 376 908 q 565 892 527 908 q 603 863 603 876 q 597 850 603 855 q 585 846 590 846 q 557 851 581 846 q 514 856 534 856 q 388 823 444 856 q 298 752 333 791 q 244 674 263 713 q 211 592 225 635 q 193 517 198 550 q 185 459 188 485 q 179 429 181 434 q 337 549 234 525 q 395 555 362 555 q 462 546 427 555 q 521 521 497 537 q 566 485 546 506 q 597 440 585 463 q 618 392 610 417 q 632 286 632 346 q 612 166 632 226 q 556 66 591 105 q 374 -15 483 -15 q 245 17 302 -15 q 151 104 188 48 m 261 463 q 243 452 261 463 q 208 405 226 440 q 189 319 189 369 q 208 213 189 269 q 255 120 226 158 q 322 58 285 81 q 394 35 359 35 q 487 89 451 35 q 524 248 524 143 q 471 419 524 354 q 337 485 419 485 q 261 463 295 485 z "},"7":{"ha":616,"x_min":38,"x_max":537,"o":"m 53 406 q 38 437 38 406 q 45 503 38 469 q 54 538 52 536 q 61 541 56 540 q 79 542 68 542 l 514 542 q 534 539 530 542 q 537 525 537 537 q 496 250 537 442 q 404 -119 455 57 q 325 -346 353 -294 q 309 -361 315 -361 q 269 -354 302 -361 q 228 -343 237 -347 q 211 -329 211 -339 q 219 -304 211 -319 q 243 -261 227 -289 q 281 -192 260 -232 q 382 57 334 -89 q 453 307 431 203 q 475 445 475 412 q 440 464 475 464 q 321 456 405 464 q 189 440 236 448 q 113 424 142 433 q 70 411 83 416 q 53 406 57 406 z "},"8":{"ha":711,"x_min":75,"x_max":636,"o":"m 158 47 q 97 121 120 77 q 75 209 75 164 q 89 288 75 253 q 123 346 103 322 q 169 392 142 370 q 215 427 195 414 q 254 449 235 439 q 275 461 274 460 q 157 565 202 504 q 111 693 111 627 q 144 810 111 760 q 367 914 212 914 q 480 888 426 914 q 568 816 534 861 q 602 728 602 770 q 592 656 602 686 q 567 604 583 627 q 534 562 552 582 q 497 528 515 542 q 429 486 461 502 q 447 476 432 485 q 476 461 463 468 q 509 440 489 453 q 545 413 529 426 q 579 380 562 399 q 609 341 597 361 q 636 245 636 296 q 615 147 636 194 q 558 64 594 99 q 356 -14 479 -14 q 158 47 239 -14 m 189 323 q 182 313 189 323 q 167 276 176 303 q 158 220 158 250 q 171 160 158 190 q 204 109 183 130 q 253 71 225 87 q 362 39 307 39 q 458 62 417 39 q 524 125 500 85 q 547 201 547 165 q 541 255 547 236 q 524 292 535 275 q 496 324 512 309 q 458 354 479 339 q 378 404 428 375 q 313 442 327 433 q 232 378 262 412 q 189 323 201 344 m 218 798 q 213 789 218 798 q 204 761 208 779 q 200 719 200 742 q 210 672 200 696 q 235 627 220 647 q 270 588 251 607 q 308 556 289 570 q 378 511 351 525 q 494 606 452 544 q 522 694 522 648 q 497 778 522 740 q 431 838 471 815 q 353 860 391 860 q 287 851 314 860 q 245 830 261 843 q 218 798 229 817 z "},"9":{"ha":715,"x_min":75,"x_max":640,"o":"m 142 -304 l 205 -311 q 444 -168 349 -311 q 515 8 494 -93 q 524 93 524 53 q 520 87 522 91 q 509 73 517 83 q 489 52 500 62 q 462 31 479 43 q 426 10 445 19 q 333 -10 383 -10 q 247 1 283 -10 q 184 30 210 12 q 139 74 158 48 q 107 125 119 99 q 88 181 95 152 q 75 288 75 232 q 95 396 75 345 q 151 482 116 448 q 336 555 225 555 q 557 456 475 555 q 640 165 640 354 q 562 -138 640 -2 q 358 -332 481 -278 q 222 -360 293 -360 q 109 -335 133 -360 q 105 -328 105 -331 q 142 -304 105 -304 m 214 446 q 206 436 214 446 q 188 391 198 425 q 178 330 178 358 q 180 285 178 303 q 188 242 182 267 q 203 193 194 217 q 229 146 213 170 q 265 106 245 123 q 382 67 312 67 q 501 131 463 67 q 524 230 524 169 q 496 357 524 290 q 422 468 469 425 q 321 511 375 511 q 258 489 287 511 q 214 446 230 468 z "}," ":{"ha":257,"x_min":0,"x_max":0,"o":""},"!":{"ha":424,"x_min":153,"x_max":271,"o":"m 212 -14 q 205 -14 212 -14 q 175 9 198 -14 q 153 46 153 31 q 177 83 153 61 q 215 105 201 105 q 250 82 229 105 q 271 45 271 59 q 248 8 271 31 q 212 -14 226 -14 m 154 861 q 228 905 154 894 q 246 907 240 907 q 264 892 264 907 q 245 619 262 805 q 227 385 229 433 q 226 316 226 337 q 225 284 225 296 q 225 259 225 273 q 223 238 224 245 q 219 224 221 231 q 205 211 214 211 q 192 215 196 211 q 185 227 188 219 q 164 523 173 265 q 154 861 154 782 z "},"\"":{"ha":461,"x_min":33,"x_max":372,"o":"m 47 664 q 40 664 47 664 q 33 678 33 664 q 57 814 33 692 q 90 967 82 936 q 114 1009 98 998 q 151 1019 130 1019 q 185 1005 172 1019 q 199 975 199 990 q 185 928 199 960 q 146 846 171 897 q 111 774 120 795 q 93 733 101 753 q 80 703 85 713 q 71 683 76 693 q 47 664 60 664 m 179 665 q 164 682 164 665 q 189 764 164 708 q 228 856 215 820 q 249 918 240 893 q 268 968 257 944 q 328 1018 290 1018 q 362 1007 351 1018 q 372 986 372 997 q 369 962 372 975 q 357 933 365 950 q 341 903 349 917 q 320 868 333 889 q 299 834 307 847 q 276 800 290 822 q 253 765 261 778 q 232 732 244 752 q 215 702 221 713 q 202 682 209 692 q 179 665 191 665 z "},"#":{"ha":593,"x_min":33,"x_max":560,"o":"m 33 357 l 33 404 l 170 404 l 199 508 l 35 508 l 35 555 l 213 555 l 322 954 l 379 954 l 268 555 l 383 555 l 494 954 l 550 954 l 439 555 l 560 555 l 560 508 l 426 508 l 397 404 l 558 404 l 558 357 l 383 357 l 264 -68 l 208 -68 l 328 357 l 213 357 l 96 -68 l 39 -68 l 157 357 l 33 357 m 227 404 l 340 404 l 370 508 l 256 508 l 227 404 z "},"$":{"ha":736,"x_min":70,"x_max":654,"o":"m 604 726 l 608 692 l 608 681 q 598 668 608 668 q 577 678 586 668 q 561 697 568 688 q 546 718 555 706 q 515 745 537 729 q 473 768 493 761 q 393 787 428 785 l 393 474 q 447 447 412 464 q 498 422 481 430 q 540 399 514 414 q 579 373 567 384 q 610 346 592 362 q 634 313 627 329 q 654 232 654 271 q 645 164 654 194 q 621 112 636 134 q 586 72 606 90 q 545 41 566 53 q 501 19 523 29 q 460 5 479 10 q 392 -10 416 -7 l 392 -232 l 349 -232 l 349 -11 q 201 2 261 -11 q 120 24 141 15 q 93 43 98 33 q 85 75 88 52 q 80 106 81 97 q 76 133 79 115 q 71 161 73 150 q 70 175 70 172 q 85 196 70 196 q 103 185 98 196 q 110 166 107 175 q 118 146 113 157 q 130 124 123 135 q 149 101 136 113 q 178 78 161 89 q 268 42 215 54 q 349 31 320 31 l 349 382 q 323 394 342 385 q 294 408 304 403 q 262 425 283 414 q 229 444 242 436 q 198 465 216 452 q 168 489 180 477 q 143 515 156 500 q 122 545 130 530 q 104 611 104 578 q 113 671 104 644 q 135 718 121 698 q 168 754 150 738 q 207 782 186 771 q 248 801 227 792 q 286 814 268 809 q 350 826 319 823 l 350 938 l 393 938 l 393 826 q 515 810 499 814 q 537 806 533 806 l 579 815 q 591 807 588 815 q 597 779 594 799 q 600 756 599 760 q 602 743 601 751 q 604 726 603 734 m 211 699 q 203 655 203 678 q 211 613 203 633 q 232 578 219 593 q 261 547 245 562 q 292 523 276 533 q 350 489 323 503 l 350 787 q 211 699 241 775 m 392 32 q 532 113 475 37 q 560 183 560 150 q 551 238 560 216 q 526 276 541 259 q 494 308 512 293 q 458 333 476 323 q 392 367 422 354 l 392 32 z "},"%":{"ha":1084,"x_min":61,"x_max":1024,"o":"m 85 -56 q 61 -47 61 -56 q 74 -25 61 -39 l 908 865 q 611 801 780 801 q 511 810 583 801 q 537 710 537 768 q 513 599 537 652 q 449 508 488 546 q 357 448 409 470 q 259 425 306 425 q 181 438 212 425 q 130 474 149 451 q 90 578 90 520 q 109 681 90 636 q 159 759 128 726 q 229 818 190 793 q 383 869 307 869 q 446 862 415 869 q 591 847 503 847 q 753 860 680 847 q 874 886 827 872 q 962 913 922 901 q 1013 925 1001 925 q 1024 918 1024 925 q 999 879 1024 907 l 128 -56 l 85 -56 m 212 687 q 198 670 212 687 q 167 616 184 653 q 150 551 150 580 q 168 502 150 522 q 221 482 185 482 q 295 501 257 482 q 364 550 333 520 q 419 616 394 581 q 471 753 471 691 q 452 797 471 780 q 404 814 432 814 q 341 796 376 814 q 273 750 306 779 q 212 687 240 721 m 541 86 q 531 156 531 116 q 550 242 531 197 q 600 321 569 287 q 669 380 630 354 q 824 431 747 431 q 932 393 890 431 q 978 268 978 352 q 954 159 978 212 q 890 68 929 105 q 694 -15 803 -15 q 541 86 576 -15 m 635 225 q 625 210 635 225 q 603 166 615 196 q 590 110 590 137 q 609 62 590 83 q 663 42 627 42 q 737 61 699 42 q 805 111 775 80 q 861 177 836 141 q 912 314 912 253 q 892 358 912 341 q 846 375 872 375 q 792 362 820 375 q 736 329 764 350 q 682 281 708 308 q 635 225 655 253 z "},"&":{"ha":1180,"x_min":61,"x_max":1147,"o":"m 1133 101 q 1147 86 1147 101 q 1099 11 1147 43 q 982 -21 1052 -21 q 898 3 941 -21 q 795 64 829 40 l 782 74 q 639 -8 739 22 q 397 -21 528 -41 q 109 145 199 9 q 61 313 61 216 q 151 498 61 430 q 244 545 190 529 q 192 608 217 567 q 149 726 149 681 q 165 807 149 770 q 210 872 181 844 q 386 935 275 935 q 487 914 439 935 q 564 857 535 893 q 593 790 593 821 q 585 736 593 759 q 563 695 577 714 q 475 653 531 653 q 423 663 450 653 q 397 686 397 672 q 420 701 397 693 q 456 716 443 709 q 489 776 489 733 q 454 851 489 820 q 373 882 419 882 q 292 852 327 882 q 257 779 257 823 q 295 675 257 726 q 392 567 337 619 q 465 498 446 516 q 523 444 484 480 q 597 376 561 408 q 663 319 633 344 q 707 283 692 295 q 746 252 722 271 q 773 232 771 234 l 811 203 q 895 460 895 323 q 850 608 895 596 q 704 617 821 617 l 701 671 l 1072 671 l 1074 617 q 1017 616 1057 616 q 961 614 977 616 q 944 600 944 611 q 947 589 944 596 q 954 571 950 582 q 963 480 963 543 q 952 372 963 416 q 927 293 942 328 q 873 184 897 221 l 863 168 q 891 149 868 164 q 921 128 914 133 q 948 113 928 124 q 979 98 967 102 q 1115 98 1047 76 q 1133 101 1127 101 m 280 506 q 217 456 244 496 q 190 363 190 415 q 206 272 190 312 q 249 201 222 232 q 311 144 276 170 q 387 102 347 119 q 551 67 471 67 q 724 109 663 67 q 729 111 729 111 l 610 199 q 461 328 553 242 q 280 506 369 413 z "},"'":{"ha":311,"x_min":33,"x_max":222,"o":"m 50 660 q 33 678 33 660 q 54 753 33 696 q 82 837 74 810 q 95 885 90 865 q 106 928 100 906 q 119 966 112 950 q 134 994 125 981 q 176 1019 151 1019 q 212 1004 201 1019 q 222 971 222 988 q 206 920 222 954 q 160 836 191 887 q 121 768 130 784 q 104 736 113 752 q 92 711 96 720 q 82 692 87 701 q 73 677 77 682 q 66 667 70 672 q 50 660 60 660 z "},"(":{"ha":435,"x_min":61,"x_max":411,"o":"m 61 333 q 79 493 61 409 q 126 638 97 576 q 190 754 155 700 q 260 843 225 807 q 371 941 333 918 l 389 953 l 411 926 q 221 659 297 836 q 154 323 154 504 q 217 -18 154 143 q 280 -141 245 -88 q 334 -215 316 -194 q 397 -278 372 -257 l 372 -307 q 243 -172 317 -265 q 61 333 61 58 z "},")":{"ha":435,"x_min":24,"x_max":374,"o":"m 24 926 l 46 953 q 182 834 108 917 q 362 456 325 676 q 374 315 374 389 q 357 164 374 240 q 312 27 339 87 q 251 -87 284 -33 q 185 -181 218 -142 q 79 -293 114 -264 l 62 -307 l 39 -278 q 180 -99 114 -219 q 280 323 280 84 q 214 659 280 499 q 147 785 184 731 q 90 860 110 838 q 24 926 52 903 z "},"*":{"ha":632,"x_min":61,"x_max":571,"o":"m 392 542 q 382 551 392 542 q 359 573 373 560 q 339 586 345 586 q 333 569 333 586 q 352 491 333 552 q 371 410 371 430 q 354 372 371 389 q 314 356 337 356 q 273 372 292 356 q 254 407 254 388 q 274 499 254 427 q 294 581 294 572 q 290 589 294 589 q 272 576 287 589 q 238 545 257 563 q 197 508 218 526 q 117 464 145 464 q 74 481 88 464 q 61 517 61 498 q 83 553 61 536 q 135 580 104 569 q 197 598 166 590 q 271 626 271 617 q 249 642 271 636 q 197 654 228 649 q 136 668 167 660 q 62 736 62 688 q 103 789 62 774 q 122 792 112 792 q 160 773 133 792 q 213 730 188 753 q 294 669 278 669 q 300 685 300 669 q 279 770 300 702 q 257 858 257 838 q 275 897 257 878 q 311 915 294 915 q 339 911 329 915 q 359 900 350 908 q 379 839 379 882 q 359 756 379 824 q 339 676 339 689 q 346 664 339 664 q 369 676 354 664 q 402 707 384 689 q 439 743 420 725 q 513 786 486 786 q 556 773 541 786 q 571 741 571 761 q 559 706 571 722 q 530 682 548 691 q 489 665 511 672 q 445 653 467 657 q 405 645 423 648 q 364 628 364 636 q 378 613 364 619 q 414 601 393 606 q 461 589 436 596 q 508 572 486 581 q 544 546 530 563 q 558 510 558 530 q 547 474 558 489 q 516 460 535 460 q 474 473 497 460 q 431 504 451 486 q 392 542 410 523 z "},"+":{"ha":1060,"x_min":111,"x_max":949,"o":"m 111 286 l 111 367 q 476 362 418 367 l 496 361 q 489 746 489 380 l 571 746 q 564 361 571 394 q 949 367 606 367 l 949 286 q 584 290 644 286 l 564 292 q 571 -93 571 250 l 489 -93 q 494 272 489 212 l 496 292 q 111 286 456 286 z "},",":{"ha":311,"x_min":48,"x_max":228,"o":"m 48 -183 q 66 -163 48 -173 q 97 -142 84 -152 q 121 -120 110 -132 q 146 -44 146 -92 q 135 -2 146 -13 q 116 14 124 9 q 102 23 108 20 q 86 41 86 31 q 100 68 86 52 q 129 95 114 84 q 149 107 144 107 q 160 105 153 107 q 179 97 166 104 q 202 80 192 91 q 228 4 228 53 q 209 -90 228 -44 q 166 -159 191 -135 q 113 -193 141 -182 q 66 -203 84 -203 q 48 -183 48 -203 z "},"-":{"ha":437,"x_min":47,"x_max":390,"o":"m 47 335 l 47 418 l 390 519 l 390 435 l 47 335 z "},".":{"ha":311,"x_min":86,"x_max":218,"o":"m 150 -14 q 143 -14 150 -14 q 111 13 135 -14 q 86 55 86 39 q 113 95 86 72 q 156 119 140 119 q 195 92 172 119 q 218 49 218 64 q 191 9 218 33 q 150 -14 165 -14 z "},"/":{"ha":614,"x_min":24,"x_max":563,"o":"m 24 -321 l 497 981 l 563 981 l 89 -321 l 24 -321 z "},":":{"ha":367,"x_min":117,"x_max":250,"o":"m 179 -13 q 171 -13 179 -13 q 140 13 163 -13 q 117 54 117 39 q 143 93 117 69 q 186 118 170 118 q 226 91 202 118 q 250 48 250 64 q 222 10 250 33 q 179 -13 195 -13 m 186 421 q 178 421 186 421 q 143 446 170 421 q 117 487 117 471 q 142 528 117 504 q 184 553 168 553 q 225 528 199 553 q 250 489 250 504 q 225 447 250 474 q 186 421 201 421 z "},";":{"ha":367,"x_min":79,"x_max":256,"o":"m 100 -203 q 79 -180 79 -203 q 96 -160 79 -169 q 126 -140 114 -150 q 149 -119 139 -131 q 174 -44 174 -92 q 163 -2 174 -13 q 144 14 152 9 q 130 23 136 20 q 114 41 114 31 q 126 68 114 51 q 152 96 138 84 q 171 108 166 108 q 184 105 176 108 q 205 94 193 102 q 229 75 218 86 q 256 1 256 46 q 237 -90 256 -44 q 194 -159 218 -135 q 143 -193 169 -182 q 100 -203 116 -203 m 186 421 q 178 421 186 421 q 143 446 170 421 q 117 487 117 471 q 142 528 117 504 q 184 553 168 553 q 225 528 199 553 q 250 489 250 504 q 225 447 250 474 q 186 421 201 421 z "},"<":{"ha":1057,"x_min":82,"x_max":975,"o":"m 82 323 l 82 354 l 975 782 l 975 689 l 227 339 l 975 -11 l 975 -104 l 82 323 z "},"=":{"ha":1089,"x_min":125,"x_max":964,"o":"m 125 170 l 125 251 l 964 251 l 964 170 l 125 170 m 125 401 l 125 483 l 964 483 l 964 401 l 125 401 z "},">":{"ha":1057,"x_min":82,"x_max":975,"o":"m 82 -11 l 830 339 l 82 689 l 82 782 l 975 354 l 975 323 l 82 -104 l 82 -11 z "},"?":{"ha":551,"x_min":111,"x_max":468,"o":"m 129 822 q 111 839 111 822 q 139 882 111 858 q 235 926 191 926 q 306 898 265 926 q 373 844 347 870 q 420 790 399 819 q 468 659 468 725 q 429 550 468 595 q 352 471 388 502 q 295 421 315 439 q 261 387 274 402 q 231 325 231 353 q 237 280 231 298 q 254 252 244 263 q 273 231 263 240 q 296 200 296 209 q 275 180 296 180 q 224 203 250 180 q 184 246 199 226 q 150 357 150 293 q 199 471 150 418 q 275 543 227 502 q 346 606 324 584 q 394 710 394 655 q 369 761 394 734 q 302 805 344 787 q 215 824 259 824 l 129 822 m 264 -13 q 256 -13 264 -13 q 222 14 248 -13 q 197 56 197 40 q 224 95 197 72 q 266 118 250 118 q 307 93 282 118 q 331 54 331 69 q 305 13 331 39 q 264 -13 280 -13 z "},"@":{"ha":1050,"x_min":89,"x_max":968,"o":"m 725 651 q 739 667 725 667 q 794 644 761 667 q 846 603 828 621 q 882 565 865 586 q 915 515 900 544 q 943 455 931 487 q 968 310 968 385 q 955 181 968 236 q 919 84 942 127 q 863 7 896 42 q 792 -53 830 -28 q 708 -95 753 -78 q 542 -128 622 -128 q 406 -116 461 -128 q 308 -83 351 -104 q 229 -33 265 -62 q 167 31 193 -4 q 123 106 141 66 q 89 254 89 184 q 101 373 89 324 q 135 467 113 422 q 192 550 157 512 q 272 616 228 588 q 496 675 366 675 q 597 648 552 675 q 666 574 642 620 q 690 472 690 528 l 690 274 q 713 184 690 210 q 764 151 735 159 q 793 136 793 143 q 774 117 793 129 q 697 71 702 73 q 651 111 665 94 q 624 145 637 127 q 604 170 610 162 q 531 106 576 132 q 453 81 486 81 q 397 87 419 81 q 356 104 375 93 q 313 179 313 131 q 334 266 313 227 q 393 334 356 305 q 592 397 474 397 l 592 507 q 553 594 592 555 q 469 625 522 625 q 370 606 416 625 q 290 554 324 587 q 232 477 257 520 q 183 282 183 390 q 239 81 183 169 q 546 -72 334 -72 q 859 86 758 -72 q 914 297 914 171 q 896 426 914 380 q 865 497 879 472 q 835 542 851 523 q 804 577 819 561 q 774 605 788 593 q 749 626 760 617 q 725 651 725 645 m 411 222 q 431 175 411 195 q 483 154 450 154 q 535 160 516 154 q 563 173 553 165 q 581 192 574 181 q 592 232 592 210 l 592 360 q 458 316 508 360 q 411 222 411 275 z "},"A":{"ha":1008,"x_min":38,"x_max":971,"o":"m 38 54 l 54 54 q 104 67 92 54 q 133 117 117 80 q 175 211 150 154 q 241 358 201 269 q 298 485 281 446 q 329 552 316 524 q 347 591 342 580 q 357 615 351 602 l 498 960 l 528 960 q 740 429 612 740 q 882 93 869 118 q 910 61 896 67 q 950 54 925 54 l 971 54 l 969 0 l 653 0 l 654 54 l 696 54 q 744 57 730 54 q 757 71 757 60 q 751 94 757 79 q 743 114 744 110 l 640 367 l 318 367 l 208 122 q 194 75 194 88 q 205 58 194 62 q 251 54 216 54 l 308 54 l 308 0 l 39 0 l 38 54 m 345 428 l 617 428 l 485 757 l 345 428 z "},"B":{"ha":775,"x_min":38,"x_max":707,"o":"m 38 871 l 40 926 l 347 926 q 653 790 587 926 q 674 705 674 748 q 658 630 674 663 q 617 573 643 597 q 496 503 565 523 q 677 368 624 474 q 707 251 707 308 q 645 82 707 138 q 339 1 562 7 q 246 0 302 0 l 48 0 l 48 54 l 90 54 q 137 61 126 54 q 149 95 149 68 l 149 821 q 123 867 149 860 q 76 871 107 871 l 38 871 m 258 478 l 261 105 q 279 69 261 77 q 344 61 296 61 q 425 68 392 61 q 481 85 459 74 q 522 111 504 96 q 549 143 539 127 q 565 179 559 159 q 575 250 575 211 q 564 322 575 289 q 533 379 552 356 q 487 420 514 402 q 433 449 461 438 q 373 466 405 459 q 258 478 318 478 m 304 865 q 261 833 261 865 l 261 518 l 397 518 q 507 574 466 518 q 545 682 545 626 q 447 834 545 779 q 304 865 391 865 z "},"C":{"ha":1023,"x_min":75,"x_max":957,"o":"m 878 929 l 878 938 l 930 938 q 947 672 935 802 l 897 671 q 890 734 891 725 q 888 756 890 744 q 885 771 886 767 q 881 781 885 774 q 875 789 877 788 q 865 795 872 791 q 853 802 858 800 q 810 822 841 806 q 714 851 780 838 q 581 864 649 864 q 452 844 513 864 q 344 788 391 824 q 263 703 297 752 q 193 476 193 605 q 247 265 193 367 q 395 103 300 166 q 614 39 493 39 q 842 114 730 39 q 904 182 903 155 l 908 299 l 957 299 l 949 96 q 664 -16 826 10 q 579 -22 621 -22 q 207 102 339 -22 q 75 436 75 224 q 203 770 75 634 q 381 889 274 845 q 562 929 477 929 q 703 922 648 929 q 785 908 759 916 q 831 893 811 900 q 857 886 850 886 q 868 887 864 886 q 874 894 872 888 q 878 929 878 902 z "},"D":{"ha":1033,"x_min":38,"x_max":972,"o":"m 38 926 l 413 926 q 702 899 617 926 q 887 769 817 863 q 972 498 972 655 q 832 145 972 288 q 421 0 689 0 l 62 0 l 61 54 l 99 54 q 157 61 150 54 q 168 75 165 67 q 171 115 171 85 l 171 821 q 164 862 171 857 q 149 868 158 866 q 100 871 138 871 l 42 871 l 38 926 m 283 118 q 288 75 283 82 q 299 64 293 68 q 313 59 306 60 q 334 56 321 58 q 414 54 351 54 q 538 67 476 54 q 646 101 601 79 q 727 154 691 123 q 784 219 762 184 q 821 295 807 254 q 847 433 847 368 q 839 540 847 498 q 813 622 831 581 q 770 697 796 662 q 707 763 744 733 q 624 815 669 793 q 392 861 526 861 l 340 861 q 305 857 316 861 q 283 796 283 849 l 283 118 z "},"E":{"ha":856,"x_min":38,"x_max":804,"o":"m 332 64 q 663 71 610 66 q 723 83 716 75 q 735 101 731 90 q 757 222 739 112 l 804 215 l 769 0 l 65 0 l 65 54 l 101 54 q 161 60 153 54 q 172 72 169 65 q 175 107 175 81 l 175 811 q 160 863 175 852 q 78 871 147 871 l 39 871 l 38 926 l 753 926 q 760 708 755 807 l 706 706 q 685 859 701 843 q 669 866 680 864 q 604 867 658 867 l 368 867 q 303 861 311 867 q 292 846 295 854 q 288 801 288 836 l 288 608 q 292 563 288 568 q 302 556 296 558 q 333 553 309 553 l 543 553 q 585 560 580 553 q 593 576 591 567 q 596 622 596 588 l 596 675 l 647 674 l 647 342 l 596 342 l 596 414 q 590 479 596 472 q 582 488 584 486 q 573 490 580 489 q 562 492 566 492 l 337 492 q 296 485 303 492 q 288 449 288 476 l 288 121 q 296 74 288 85 q 332 64 304 64 z "},"F":{"ha":825,"x_min":38,"x_max":757,"o":"m 38 926 l 750 926 q 757 708 752 797 l 703 706 q 682 859 698 843 q 666 866 677 864 q 602 867 655 867 l 365 867 q 300 861 308 867 q 289 846 292 854 q 285 801 285 836 l 285 608 q 289 563 285 568 q 299 556 293 558 q 331 553 307 553 l 540 553 q 583 559 578 553 q 590 574 588 566 q 593 620 593 585 l 593 674 l 645 674 l 645 342 l 593 342 l 593 434 q 592 451 593 443 q 591 465 591 459 q 589 475 591 470 q 585 482 587 479 q 580 487 584 484 q 574 490 576 489 q 566 491 572 490 q 556 492 560 492 l 335 492 q 293 485 300 492 q 285 449 285 476 l 285 121 q 293 68 285 82 q 327 54 301 54 l 419 54 l 419 0 l 62 0 l 62 54 l 103 54 q 158 60 151 54 q 168 72 165 65 q 172 107 172 81 l 172 811 q 163 859 172 855 q 147 865 154 862 q 123 869 141 869 q 88 870 104 870 q 39 871 72 871 l 38 926 z "},"G":{"ha":1103,"x_min":75,"x_max":1065,"o":"m 114 225 q 104 248 114 225 q 84 317 94 270 q 75 417 75 364 q 86 524 75 469 q 121 630 98 578 q 177 729 144 682 q 255 814 210 775 q 352 882 299 853 q 603 942 462 942 q 744 926 681 942 q 886 878 808 909 l 886 947 l 942 947 l 951 645 l 897 643 l 887 787 q 695 865 815 843 q 585 875 645 875 q 470 860 526 875 q 371 817 413 845 q 296 753 329 790 q 242 672 262 716 q 200 480 200 583 q 247 269 200 370 q 385 103 294 168 q 607 36 479 36 q 828 97 736 36 q 847 113 838 104 l 847 361 l 682 361 l 681 415 l 1064 415 l 1065 361 l 960 361 l 960 76 q 906 53 939 68 q 851 28 873 38 q 794 5 828 18 q 731 -14 761 -7 q 584 -32 660 -32 q 443 -19 507 -32 q 327 16 378 -6 q 235 72 276 39 q 164 142 193 104 q 114 225 134 181 z "},"H":{"ha":1000,"x_min":38,"x_max":963,"o":"m 38 871 l 38 926 l 383 926 l 383 871 l 347 871 q 287 864 295 871 q 274 850 278 857 q 268 810 268 839 l 268 546 l 720 546 l 720 821 q 713 862 720 858 q 697 868 707 866 q 647 871 686 871 l 589 871 l 588 926 l 940 926 l 940 871 l 901 871 q 848 864 855 871 q 837 851 840 858 q 832 812 832 840 l 832 111 q 845 63 832 71 q 915 54 858 54 l 963 54 l 961 0 l 615 0 l 614 54 l 654 54 q 707 61 700 54 q 716 75 713 67 q 720 115 720 86 l 720 479 l 268 479 l 268 115 q 284 63 268 74 q 368 54 298 54 l 408 54 l 406 0 l 50 0 l 48 54 q 97 54 78 54 q 126 56 116 54 q 139 58 135 57 q 147 63 142 58 q 152 70 151 67 q 154 81 153 72 q 156 96 156 90 l 156 825 q 140 864 156 857 q 74 871 125 871 l 38 871 z "},"I":{"ha":447,"x_min":38,"x_max":410,"o":"m 38 871 l 39 926 l 388 926 l 388 871 l 364 871 q 308 868 316 871 q 294 862 300 866 q 286 855 288 859 q 282 843 284 850 q 279 807 279 833 l 279 118 q 287 67 279 73 q 304 58 294 61 q 354 54 317 54 l 408 54 l 410 0 l 54 0 l 53 54 l 89 54 q 151 61 143 54 q 163 75 160 67 q 167 115 167 86 l 167 821 q 160 862 167 857 q 144 868 154 866 q 96 871 134 871 l 38 871 z "},"J":{"ha":424,"x_min":-105,"x_max":386,"o":"m 76 -282 q 167 -33 167 -282 l 167 821 q 160 860 167 855 q 146 868 154 866 q 104 871 135 871 l 53 871 l 53 926 l 386 926 l 383 871 l 339 871 q 292 865 298 871 q 284 851 287 859 q 279 807 279 840 l 279 -3 q 271 -119 279 -76 q 244 -195 263 -162 q 179 -272 224 -228 q 93 -337 134 -316 q 6 -358 51 -358 q -72 -337 -39 -358 q -105 -294 -105 -315 q -90 -252 -105 -273 q -55 -219 -75 -232 q -21 -205 -35 -205 q 2 -213 -8 -205 q 21 -232 13 -221 q 37 -255 28 -243 q 76 -282 55 -282 z "},"K":{"ha":1011,"x_min":38,"x_max":974,"o":"m 685 817 q 720 858 720 845 q 655 871 720 871 l 602 871 l 598 926 l 932 926 l 932 871 l 896 871 q 836 861 856 871 q 728 781 809 847 l 414 529 l 833 92 q 867 61 856 68 q 893 54 879 54 l 974 54 l 971 0 l 753 0 l 331 464 l 279 422 l 279 118 q 284 75 279 84 q 296 63 289 67 q 309 58 303 60 q 329 56 316 57 q 389 54 346 54 l 419 54 l 419 0 l 64 0 l 62 54 l 100 54 q 156 61 150 54 q 163 71 162 68 q 166 83 165 74 q 167 96 167 91 l 167 821 q 160 862 167 857 q 144 868 154 866 q 96 871 134 871 l 38 871 l 38 926 l 385 926 l 385 871 l 340 871 q 293 865 299 871 q 284 851 288 859 q 279 807 279 840 l 279 488 l 685 817 z "},"L":{"ha":811,"x_min":38,"x_max":773,"o":"m 38 871 l 39 926 l 394 926 l 394 871 l 332 871 q 287 866 293 871 q 278 854 281 860 q 272 820 272 845 l 272 118 q 290 67 272 74 q 318 64 299 64 q 688 84 669 66 q 703 119 698 95 q 712 160 708 144 q 718 193 715 176 q 725 235 721 210 l 773 232 l 728 0 l 57 0 l 56 54 l 95 54 q 148 60 142 54 q 156 69 155 66 q 158 78 157 72 q 160 107 160 87 l 160 825 q 145 863 160 855 q 86 871 130 871 l 38 871 z "},"M":{"ha":1141,"x_min":52,"x_max":1111,"o":"m 161 797 l 162 833 q 155 864 162 857 q 124 871 148 871 l 53 871 l 52 926 l 261 926 l 578 185 l 889 926 l 1111 926 l 1111 871 l 1064 871 q 1007 863 1022 871 q 992 826 992 855 l 992 118 q 995 75 992 81 q 1003 64 998 69 q 1013 59 1007 60 q 1028 56 1018 58 q 1076 54 1040 54 l 1104 54 l 1105 0 l 768 0 l 767 54 l 794 54 q 863 61 854 54 q 875 75 872 67 q 879 115 879 86 l 879 753 l 665 249 q 593 72 620 140 q 563 -3 567 3 q 552 -10 559 -10 q 497 89 540 -10 l 218 735 l 213 101 q 221 67 213 77 q 258 56 229 58 q 351 54 288 54 l 351 0 l 52 0 l 52 54 l 65 54 q 132 61 124 54 q 144 76 140 67 q 149 119 148 86 l 161 797 z "},"N":{"ha":1033,"x_min":38,"x_max":996,"o":"m 38 926 l 253 926 l 822 192 l 822 821 q 807 864 822 853 q 746 871 795 871 l 697 871 l 700 926 l 996 926 l 996 871 l 964 871 q 908 863 921 871 q 887 810 887 850 l 887 10 q 886 -17 887 -11 q 875 -24 884 -24 l 856 -24 q 842 -21 844 -24 q 838 -16 839 -18 q 832 -9 836 -14 q 825 1 828 -3 l 219 779 l 227 118 q 244 63 227 73 q 329 54 261 54 l 353 54 l 353 0 l 61 0 l 61 54 l 103 54 q 155 70 149 54 q 161 115 161 85 l 161 854 l 147 871 l 39 871 l 38 926 z "},"O":{"ha":1108,"x_min":75,"x_max":1033,"o":"m 75 468 q 94 604 75 534 q 146 727 113 674 q 226 823 180 781 q 325 891 271 865 q 557 946 435 946 q 845 857 717 946 q 1019 591 980 763 q 1033 470 1033 530 q 1024 360 1033 410 q 994 261 1014 309 q 944 170 974 213 q 875 92 915 128 q 785 32 834 57 q 546 -22 682 -22 q 228 90 356 -22 q 75 468 75 224 m 243 710 q 233 690 243 710 q 212 617 223 671 q 200 507 200 563 q 208 404 200 452 q 232 310 216 356 q 272 224 249 264 q 328 149 295 183 q 398 90 360 115 q 583 38 478 38 q 741 80 668 38 q 860 210 814 123 q 907 428 907 299 q 787 768 907 635 q 621 875 719 845 q 537 889 575 889 q 470 883 499 889 q 408 864 440 878 q 346 831 375 851 q 289 780 316 811 q 243 710 262 749 z "},"P":{"ha":793,"x_min":38,"x_max":732,"o":"m 38 0 l 38 54 l 81 54 q 121 58 115 54 q 128 68 126 63 q 131 95 131 75 l 131 821 q 122 862 131 856 q 78 871 111 871 l 42 871 l 43 926 l 329 926 q 511 915 472 926 q 622 860 577 897 q 700 760 668 823 q 732 618 732 697 q 629 419 732 495 q 439 365 555 365 q 255 391 350 365 q 243 394 243 394 l 243 95 q 255 61 243 65 q 337 54 273 54 l 407 54 l 407 0 l 38 0 m 243 436 q 381 410 278 410 q 543 464 484 410 q 602 621 602 517 q 471 830 602 762 q 285 871 392 871 q 254 863 260 871 q 243 807 243 850 l 243 436 z "},"Q":{"ha":1108,"x_min":75,"x_max":1178,"o":"m 115 247 q 106 269 115 247 q 86 343 96 290 q 75 465 75 396 q 94 604 75 534 q 146 727 113 674 q 226 823 180 781 q 325 891 271 865 q 557 946 435 946 q 845 857 717 946 q 1019 591 980 763 q 1033 448 1033 530 q 1001 279 1033 366 q 783 31 936 107 q 712 4 761 19 l 696 -1 q 867 -113 761 -28 q 1024 -224 979 -201 q 1094 -247 1070 -247 q 1131 -243 1117 -247 q 1152 -236 1144 -239 q 1165 -232 1160 -232 q 1178 -247 1178 -232 q 1126 -313 1178 -285 q 1045 -331 1092 -331 q 967 -323 998 -331 q 907 -302 935 -316 q 852 -272 878 -288 q 800 -234 827 -256 q 753 -195 773 -213 q 707 -154 732 -177 q 650 -105 681 -131 q 592 -60 618 -80 q 544 -32 565 -41 q 512 -21 524 -23 q 474 -17 501 -20 q 417 -7 448 -14 q 351 13 386 -1 q 282 50 316 28 q 217 101 248 73 q 160 167 186 130 q 115 247 134 204 m 243 710 q 233 690 243 710 q 212 617 223 671 q 200 507 200 563 q 208 404 200 452 q 232 310 216 356 q 272 224 249 264 q 328 149 295 183 q 398 90 360 115 q 583 38 478 38 q 741 80 668 38 q 860 210 814 123 q 907 428 907 299 q 787 768 907 635 q 621 875 719 845 q 537 889 575 889 q 470 883 499 889 q 408 864 440 878 q 346 831 375 851 q 289 780 316 811 q 243 710 262 749 z "},"R":{"ha":964,"x_min":32,"x_max":925,"o":"m 393 426 q 267 435 308 426 l 267 95 q 279 61 267 66 q 362 54 296 54 l 433 54 l 431 0 l 61 0 l 61 54 l 93 54 q 143 58 137 54 q 151 67 149 61 q 154 95 154 73 l 154 821 q 123 867 154 860 q 71 871 105 871 l 32 871 l 33 926 l 353 926 q 525 912 463 926 q 635 859 587 898 q 709 769 684 820 q 735 678 735 718 q 729 613 735 638 q 707 562 722 588 q 670 515 693 536 q 536 446 621 468 l 803 92 q 834 61 822 68 q 863 54 847 54 l 922 54 l 925 0 l 724 0 l 426 428 l 393 426 m 267 480 q 356 467 283 467 q 539 510 482 467 q 597 645 597 553 q 523 807 597 745 q 308 871 447 871 q 277 863 284 871 q 267 807 267 850 l 267 480 z "},"S":{"ha":718,"x_min":35,"x_max":636,"o":"m 89 -39 q 35 236 78 23 l 83 242 l 101 156 q 116 104 111 110 q 130 92 122 97 q 145 84 138 86 q 183 71 152 82 q 321 46 253 46 q 430 65 389 46 q 498 124 472 85 q 524 201 524 163 q 513 263 524 239 q 488 306 503 287 q 448 344 472 324 q 346 408 410 374 l 289 440 q 180 511 204 488 q 140 553 155 534 q 115 592 124 572 q 95 690 95 637 q 118 790 95 743 q 181 868 142 837 q 371 938 264 938 q 466 924 424 938 q 513 910 507 910 q 524 919 519 910 q 531 946 529 928 l 578 949 l 598 694 l 549 693 l 536 817 q 411 866 492 851 q 342 872 379 872 q 268 853 304 872 q 209 801 231 835 q 186 734 186 766 q 192 682 186 702 q 211 645 198 662 q 238 613 223 628 q 274 583 252 598 q 360 529 307 559 l 436 488 q 546 416 518 442 q 590 372 574 391 q 615 336 605 354 q 636 251 636 295 q 623 169 636 207 q 583 98 610 131 q 519 41 557 65 q 321 -13 439 -13 q 212 0 254 -13 q 160 13 170 13 q 135 -17 135 13 l 136 -35 l 89 -39 z "},"T":{"ha":875,"x_min":15,"x_max":838,"o":"m 838 926 l 821 704 l 771 706 q 779 827 779 805 q 764 857 779 848 q 708 865 750 865 q 566 865 616 865 q 507 864 516 865 q 494 861 498 862 q 486 856 490 860 q 480 848 481 851 q 478 836 479 845 q 476 820 476 826 l 476 118 q 490 64 476 75 q 557 54 503 54 l 612 54 l 614 0 l 247 1 l 247 54 q 287 54 271 54 q 313 55 302 54 q 329 56 324 56 q 341 58 334 57 q 350 62 348 60 q 356 67 353 64 q 360 75 359 71 q 362 85 361 78 q 364 113 364 93 l 364 787 q 357 850 364 841 q 342 861 351 859 q 303 865 332 865 l 157 865 q 101 858 112 865 q 85 844 90 851 q 78 829 81 837 q 74 807 76 820 q 69 754 72 791 q 65 701 67 717 l 15 703 q 36 926 27 821 l 838 926 z "},"U":{"ha":1001,"x_min":38,"x_max":964,"o":"m 38 871 l 38 926 l 371 926 l 372 871 l 319 871 q 261 861 278 871 q 244 820 244 852 l 244 306 q 305 140 244 209 q 535 56 379 56 q 768 130 709 56 q 801 178 790 156 q 817 238 811 200 q 825 371 825 290 l 825 821 q 809 864 825 853 q 749 871 798 871 l 700 871 l 703 926 l 964 926 l 964 871 l 944 871 q 911 867 921 871 q 890 810 890 860 l 890 317 q 730 11 890 86 q 535 -25 653 -25 q 157 161 235 -25 q 132 299 132 222 l 132 821 q 122 862 132 856 q 75 871 110 871 l 38 871 z "},"V":{"ha":1058,"x_min":38,"x_max":1021,"o":"m 38 871 l 38 926 l 386 926 l 385 871 l 311 871 q 285 868 293 871 q 278 850 278 864 q 297 787 278 836 l 555 146 l 847 817 q 854 844 854 835 q 849 858 854 852 q 833 867 844 864 q 786 871 817 871 l 742 871 l 739 926 l 1021 926 l 1018 871 l 978 871 q 928 849 944 871 q 892 778 913 827 q 867 722 871 729 q 849 679 862 710 l 537 -21 l 514 -21 l 192 763 q 153 845 165 827 q 127 867 142 863 q 86 871 112 871 l 38 871 z "},"W":{"ha":1444,"x_min":52,"x_max":1407,"o":"m 52 871 l 52 926 l 360 926 l 358 871 l 328 871 q 252 857 265 871 q 246 843 246 850 q 249 825 246 836 l 489 164 l 718 750 q 712 770 716 756 q 704 793 707 784 q 695 815 701 802 q 685 837 690 828 q 673 854 680 846 q 639 871 659 871 l 571 871 l 571 926 l 901 926 l 901 871 l 828 871 q 799 867 805 871 q 792 852 792 863 q 817 760 792 835 l 1019 168 l 1267 817 q 1272 843 1272 836 q 1267 857 1272 851 q 1251 867 1262 864 q 1204 871 1235 871 l 1168 871 l 1168 926 l 1406 926 l 1407 871 l 1390 871 q 1347 857 1358 871 q 1323 811 1335 844 q 1310 775 1311 778 l 1003 -22 l 979 -22 l 743 672 l 474 -21 l 451 -21 l 157 783 q 122 854 136 842 q 99 868 108 866 q 75 871 90 871 l 52 871 z "},"X":{"ha":1055,"x_min":38,"x_max":1018,"o":"m 38 0 l 38 54 q 68 54 38 54 q 91 56 78 54 q 110 58 104 58 q 125 64 115 59 q 138 72 135 69 q 152 84 142 74 q 168 100 162 94 q 187 122 173 106 q 211 150 201 138 l 476 450 l 203 796 q 189 813 199 801 q 175 831 180 825 q 162 845 171 837 q 151 856 154 854 q 139 863 148 859 q 126 868 130 867 q 109 870 122 868 q 89 871 97 871 l 61 871 l 61 926 l 414 926 l 414 871 l 376 871 q 330 869 341 871 q 318 858 318 866 q 326 836 318 849 q 368 775 334 822 l 549 533 l 735 743 q 810 834 805 823 q 815 853 815 845 q 801 868 815 864 q 750 871 786 871 l 711 871 l 712 926 l 1010 926 l 1010 871 l 985 871 q 930 865 938 871 q 915 855 922 860 q 904 846 908 850 q 892 833 900 841 q 880 820 884 825 q 874 814 876 815 q 871 811 873 813 q 868 807 870 809 l 583 493 l 761 267 q 904 93 881 114 q 934 68 926 73 q 952 59 941 63 q 993 54 966 54 l 1017 54 l 1018 0 l 660 0 l 660 54 l 693 54 q 746 57 730 54 q 763 72 763 61 q 754 91 763 79 q 706 156 746 103 l 510 407 l 260 118 q 228 71 228 82 q 239 57 228 59 q 283 54 251 54 l 333 54 l 333 0 l 38 0 z "},"Y":{"ha":915,"x_min":52,"x_max":878,"o":"m 52 871 l 53 926 l 364 926 l 364 871 l 336 871 q 280 868 295 871 q 264 853 264 864 q 289 804 264 846 l 488 492 l 730 836 q 739 853 739 850 q 718 868 739 864 q 649 871 697 871 l 626 871 l 625 926 l 878 926 l 878 871 l 871 871 q 826 865 834 871 q 810 853 818 860 q 778 812 799 842 l 507 421 l 507 118 q 510 75 507 81 q 518 64 513 69 q 527 59 522 60 q 542 56 533 58 q 589 54 554 54 l 651 54 l 650 0 l 260 0 l 261 54 l 317 54 q 377 60 368 54 q 388 70 386 66 q 392 81 390 74 q 394 115 394 91 l 394 432 l 167 786 q 123 852 133 839 q 98 868 112 865 q 52 871 85 871 z "},"Z":{"ha":922,"x_min":38,"x_max":885,"o":"m 885 243 l 857 0 l 68 0 q 38 28 38 0 q 66 71 38 40 q 103 111 95 101 l 726 817 l 160 817 q 127 804 133 817 q 117 761 121 792 q 114 725 114 729 q 111 704 114 722 q 108 678 108 687 l 53 681 q 74 926 70 829 l 830 926 q 864 924 854 926 q 873 914 873 921 q 869 898 873 907 q 857 879 864 888 q 844 861 850 869 q 831 845 838 852 q 825 838 825 838 l 193 115 l 743 115 q 806 123 800 115 q 828 218 817 139 l 832 244 l 885 243 z "},"[":{"ha":453,"x_min":122,"x_max":429,"o":"m 122 -321 l 122 981 l 429 981 l 429 939 l 208 939 l 208 -280 l 429 -280 l 429 -321 l 122 -321 z "},"\\":{"ha":614,"x_min":52,"x_max":590,"o":"m 52 981 l 117 981 l 590 -321 l 525 -321 l 52 981 z "},"]":{"ha":453,"x_min":24,"x_max":331,"o":"m 24 -280 l 244 -280 l 244 939 l 24 939 l 24 981 l 331 981 l 331 -321 l 24 -321 l 24 -280 z "},"^":{"ha":564,"x_min":56,"x_max":508,"o":"m 56 460 l 274 904 l 290 904 l 508 460 l 421 460 l 282 754 l 143 460 l 56 460 z "},"_":{"ha":314,"x_min":28,"x_max":286,"o":"m 28 -82 l 286 -82 l 286 -142 l 28 -142 l 28 -82 z "},"`":{"ha":542,"x_min":132,"x_max":301,"o":"m 132 875 l 229 875 l 301 650 l 251 650 l 132 875 z "},"a":{"ha":528,"x_min":38,"x_max":517,"o":"m 81 345 q 48 394 48 345 q 81 469 48 427 q 292 550 144 550 q 404 489 376 550 q 414 439 414 468 l 414 179 q 437 90 414 116 q 504 53 459 65 q 517 41 517 50 q 499 22 517 33 q 421 -24 425 -23 q 376 15 390 -2 q 328 74 358 35 q 255 10 300 36 q 176 -15 210 -15 q 120 -9 142 -15 q 80 9 99 -3 q 38 91 38 36 q 74 195 38 146 q 175 273 111 244 q 317 303 240 303 l 317 386 q 293 466 317 446 q 233 485 271 485 q 175 480 196 485 q 142 470 153 476 q 111 442 118 456 q 117 419 113 433 q 125 378 125 390 q 109 355 125 366 q 81 345 92 345 m 135 127 q 155 80 135 99 q 208 60 175 60 q 260 65 241 60 q 288 78 278 70 q 306 96 299 85 q 317 136 317 114 l 317 265 q 182 221 233 265 q 135 127 135 179 z "},"b":{"ha":701,"x_min":17,"x_max":667,"o":"m 115 29 l 119 215 l 119 896 q 100 938 119 938 q 21 922 89 938 l 17 965 q 217 1004 63 974 l 217 467 q 231 478 219 468 q 254 496 243 488 q 283 516 264 505 q 320 535 302 527 q 420 554 365 554 q 525 532 475 554 q 605 474 575 511 q 667 294 667 399 q 561 52 667 147 q 380 -13 489 -13 q 276 2 315 -13 q 193 29 202 29 q 162 13 184 29 q 131 -3 141 -3 q 115 29 115 -3 m 376 479 q 217 428 277 479 l 217 136 q 313 44 217 67 q 361 38 339 38 q 400 40 383 38 q 438 48 418 42 q 477 63 459 54 q 511 89 494 73 q 540 126 528 105 q 567 231 567 173 q 558 326 567 289 q 535 387 549 363 q 503 428 522 410 q 466 456 484 446 q 430 471 449 465 q 376 479 401 479 z "},"c":{"ha":559,"x_min":33,"x_max":525,"o":"m 33 245 q 33 272 33 245 q 43 342 33 298 q 75 425 54 386 q 126 493 96 464 q 289 557 191 557 q 486 488 415 557 q 502 464 502 474 q 490 447 502 455 q 463 433 478 438 q 418 424 431 424 q 390 431 405 424 q 361 451 375 439 q 332 474 347 463 q 264 502 295 502 q 210 486 234 502 q 172 448 186 471 q 148 395 157 425 q 132 290 132 343 q 145 198 132 237 q 179 135 158 159 q 227 95 199 111 q 327 65 276 65 q 413 71 378 65 q 464 82 448 76 q 495 93 481 88 q 514 99 508 99 q 525 87 525 99 q 505 57 525 75 q 453 23 485 40 q 294 -18 377 -18 q 49 142 99 -18 q 33 245 33 192 z "},"d":{"ha":711,"x_min":33,"x_max":688,"o":"m 488 -36 l 489 65 q 488 87 489 83 q 280 -17 402 -17 q 106 59 178 -17 q 33 257 33 135 q 57 373 33 318 q 119 466 81 428 q 303 549 203 549 q 485 488 404 549 l 485 901 q 465 940 485 940 q 374 922 453 940 l 371 965 q 582 1015 439 978 l 582 97 q 585 50 582 61 q 597 38 588 38 q 617 41 606 38 q 648 51 628 44 q 688 62 669 57 l 688 25 q 597 -2 660 17 q 488 -36 533 -22 m 184 449 q 173 436 184 449 q 148 386 161 423 q 135 303 135 348 q 150 214 135 258 q 193 136 165 170 q 353 62 252 62 q 425 76 399 62 q 485 118 468 100 l 485 417 q 368 496 445 471 q 304 506 337 506 q 239 491 270 506 q 184 449 208 476 z "},"e":{"ha":573,"x_min":33,"x_max":540,"o":"m 139 314 l 138 294 q 262 91 138 139 q 336 76 299 76 q 402 83 374 76 q 449 100 430 90 q 484 119 468 109 q 528 142 521 142 q 540 129 540 142 q 529 100 540 117 q 494 63 517 83 q 441 25 471 43 q 288 -18 372 -18 q 105 56 173 -18 q 33 254 33 134 q 104 472 33 388 q 279 554 174 554 q 472 460 396 554 q 510 376 510 412 q 502 361 510 367 q 488 356 494 356 l 139 314 m 142 362 l 380 393 q 352 449 372 424 q 321 485 332 475 q 259 507 295 507 q 188 468 222 507 q 142 362 153 429 z "},"f":{"ha":396,"x_min":24,"x_max":483,"o":"m 24 478 l 40 545 l 125 545 l 125 694 q 131 787 125 761 q 144 833 137 812 q 160 871 150 853 q 184 908 171 889 q 260 976 211 945 q 365 1006 309 1006 q 453 992 422 1006 q 483 958 483 979 q 457 901 483 937 q 411 865 430 865 q 390 886 401 865 q 372 919 379 907 q 330 949 354 949 q 290 938 306 949 q 263 912 273 928 q 244 874 252 896 q 232 831 236 851 q 225 788 228 811 q 222 728 222 756 l 222 545 l 378 545 l 362 478 l 222 478 l 222 86 q 226 58 222 63 q 234 51 229 54 q 245 48 239 48 q 260 46 250 47 q 310 44 274 44 l 329 44 l 328 0 l 39 0 l 38 44 l 67 44 q 115 51 104 44 q 125 82 125 57 l 125 478 l 24 478 z "},"g":{"ha":619,"x_min":-11,"x_max":589,"o":"m 242 58 l 336 60 q 589 -96 589 60 q 522 -247 589 -178 q 215 -365 407 -365 q 24 -299 92 -365 q -11 -213 -11 -264 q 65 -81 -11 -137 q 127 -47 93 -60 q 182 -28 160 -34 q 55 32 84 -16 q 47 58 47 44 q 54 86 47 73 q 73 110 61 100 q 98 127 84 119 q 125 141 112 136 q 176 157 154 152 q 98 209 138 166 q 46 346 46 263 q 113 494 46 432 q 265 555 179 555 q 351 541 325 555 q 391 519 377 527 q 454 498 425 498 q 497 501 484 498 q 516 506 509 503 q 528 515 523 509 q 536 524 534 520 q 542 535 538 528 q 547 546 545 543 l 576 546 l 576 511 q 573 456 576 463 q 565 445 569 449 q 555 439 562 441 q 521 436 541 436 l 498 436 q 461 433 461 436 q 466 421 461 429 q 477 405 471 414 q 493 339 493 380 q 476 263 493 298 q 430 201 459 228 q 265 143 366 143 q 178 130 210 143 q 146 93 146 116 q 165 66 146 72 q 174 63 170 64 q 185 61 178 61 q 197 59 192 60 q 218 58 204 58 l 242 58 m 96 -205 q 136 -272 96 -242 q 257 -301 176 -301 q 441 -241 369 -301 q 492 -133 492 -198 q 318 -31 492 -31 q 156 -85 219 -31 q 96 -205 96 -136 m 262 504 q 241 504 262 504 q 190 465 220 504 q 161 370 161 426 q 171 282 161 315 q 198 229 181 249 q 276 186 232 186 q 345 222 315 186 q 375 317 375 260 q 365 407 375 373 q 339 461 355 440 q 262 504 305 504 z "},"h":{"ha":644,"x_min":25,"x_max":621,"o":"m 347 471 q 201 404 281 471 l 201 76 q 215 50 201 55 q 272 44 228 44 l 297 44 l 296 0 l 26 0 l 25 44 l 40 44 q 93 50 87 44 q 104 76 104 60 l 104 901 q 99 934 104 925 q 84 943 94 943 q 25 935 75 943 l 25 983 q 201 1008 63 987 l 201 446 q 277 504 259 494 q 311 524 295 515 q 341 537 328 532 q 402 549 377 549 q 445 544 427 549 q 475 533 462 540 q 498 515 488 527 q 515 492 508 503 q 526 463 522 481 q 533 432 531 446 q 537 397 536 418 q 539 325 539 370 l 539 85 q 544 52 539 56 q 558 47 550 48 q 598 44 567 44 l 621 44 l 621 0 l 354 0 l 353 44 l 375 44 q 429 51 417 44 q 442 83 442 58 l 442 365 q 399 457 442 431 q 347 471 376 471 z "},"i":{"ha":368,"x_min":38,"x_max":345,"o":"m 38 522 q 233 564 141 539 l 233 82 q 245 51 233 56 q 319 44 261 44 l 345 44 l 345 0 l 43 0 l 43 44 l 56 44 q 125 50 119 44 q 136 76 136 60 l 136 447 q 132 483 136 474 q 112 492 127 492 q 39 480 96 492 l 38 522 m 197 762 q 190 762 197 762 q 162 787 183 762 q 142 826 142 811 q 164 862 142 841 q 199 883 186 883 q 236 861 213 883 q 260 824 260 839 q 236 786 260 810 q 197 762 212 762 z "},"j":{"ha":346,"x_min":-92,"x_max":223,"o":"m 117 477 q 114 480 117 477 q 106 486 112 484 q 95 489 100 489 q 31 476 90 489 l 24 518 q 96 532 65 525 q 219 561 185 553 l 219 -67 q 203 -220 219 -179 q 174 -277 187 -260 q 150 -302 161 -294 q 134 -314 139 -311 q 115 -327 129 -318 q 86 -343 100 -336 q 21 -362 48 -362 q -32 -353 -6 -362 q -75 -331 -58 -344 q -92 -302 -92 -318 q -66 -263 -92 -287 q -25 -240 -40 -240 q 1 -250 -10 -240 q 20 -270 11 -259 q 58 -300 44 -300 q 122 -111 122 -300 l 122 432 q 117 477 122 470 m 161 762 q 154 762 161 762 q 126 787 146 762 q 105 826 105 811 q 127 862 105 841 q 163 883 150 883 q 200 861 176 883 q 223 824 223 839 q 200 786 223 810 q 161 762 176 762 z "},"k":{"ha":655,"x_min":24,"x_max":632,"o":"m 24 971 q 204 1007 162 998 l 204 278 l 458 485 q 468 497 468 492 q 439 507 468 507 l 397 507 l 397 545 l 621 545 l 620 507 l 598 507 q 562 502 577 507 q 522 476 547 496 l 325 319 l 532 78 q 543 65 536 73 q 551 55 549 57 q 557 50 553 54 q 566 46 561 46 q 577 45 570 46 q 594 44 583 44 l 632 44 l 631 0 l 467 0 l 250 267 l 201 229 l 201 79 q 214 50 201 55 q 274 44 225 44 l 311 44 l 313 0 l 28 0 l 28 44 q 59 44 46 44 q 80 45 72 44 q 91 46 88 46 q 99 49 95 47 q 103 52 102 51 q 106 58 104 54 q 107 65 107 62 l 107 873 q 103 926 107 912 q 87 939 100 939 q 26 926 75 939 l 24 971 z "},"l":{"ha":364,"x_min":24,"x_max":340,"o":"m 24 976 q 228 1008 142 992 l 228 82 q 244 51 228 57 q 317 44 260 44 l 340 44 l 340 0 l 38 0 l 38 44 l 68 44 q 118 51 105 44 q 131 82 131 58 l 131 873 q 126 930 131 918 q 108 943 122 943 q 26 929 94 943 l 24 976 z "},"m":{"ha":960,"x_min":24,"x_max":936,"o":"m 99 492 q 24 478 97 492 l 24 521 q 183 552 73 528 l 218 560 q 215 458 215 513 q 235 472 220 461 q 268 496 250 484 q 309 520 286 508 q 397 549 360 549 q 454 540 434 549 q 484 521 473 531 q 504 495 495 510 q 519 460 515 476 q 646 536 605 524 q 713 549 687 549 q 759 542 739 549 q 794 526 780 536 q 817 500 807 516 q 833 470 827 485 q 841 435 838 455 q 846 365 846 406 l 846 79 q 858 49 846 54 q 922 44 869 44 l 936 44 l 936 0 l 667 0 l 667 44 q 736 49 723 44 q 749 78 749 54 l 749 365 q 701 467 749 453 q 663 471 687 471 q 617 466 640 471 q 578 455 594 461 q 526 425 547 441 q 532 325 532 382 l 532 68 q 539 49 532 52 q 555 45 546 46 q 602 44 568 44 l 614 44 l 614 0 l 350 0 l 349 44 l 365 44 q 421 48 408 44 q 435 67 435 52 l 435 365 q 414 445 435 418 q 340 471 393 471 q 218 426 287 471 l 218 75 q 225 50 218 53 q 241 46 231 48 q 292 44 252 44 l 299 44 l 299 0 l 28 0 l 26 44 l 65 44 q 110 50 100 44 q 121 75 121 55 l 121 420 q 117 479 121 466 q 99 492 114 492 z "},"n":{"ha":643,"x_min":24,"x_max":620,"o":"m 437 365 q 416 447 437 423 q 341 471 395 471 q 197 426 287 471 l 197 77 q 205 54 197 60 q 217 48 212 48 q 232 46 222 47 q 280 44 245 44 l 299 44 l 296 0 l 25 0 l 24 44 q 54 44 41 44 q 74 46 66 44 q 85 47 81 47 q 92 52 89 48 q 97 57 96 55 q 99 66 98 59 q 100 77 100 72 l 100 422 q 96 479 100 467 q 79 492 93 492 q 26 480 75 492 l 26 524 l 197 558 q 193 460 193 505 q 212 473 198 462 q 245 495 227 483 q 287 520 263 508 q 386 549 341 549 q 451 542 430 549 q 486 524 472 534 q 509 495 500 514 q 524 460 519 475 q 532 417 529 444 q 535 325 535 382 l 535 86 q 550 51 535 57 q 620 44 566 44 l 618 0 l 360 0 l 358 44 l 390 44 q 431 52 427 44 q 437 86 437 64 l 437 365 z "},"o":{"ha":636,"x_min":35,"x_max":602,"o":"m 35 272 q 45 356 35 315 q 77 434 55 397 q 130 498 99 471 q 310 557 199 557 q 522 477 446 557 q 602 256 602 394 q 524 59 602 137 q 313 -21 445 -21 q 79 107 156 -21 q 35 272 35 180 m 146 310 q 154 227 146 266 q 178 153 162 188 q 216 92 194 119 q 268 49 238 65 q 331 33 297 33 q 390 46 364 33 q 434 80 417 58 q 463 130 452 101 q 485 253 485 184 q 470 369 485 321 q 429 448 455 418 q 297 510 375 510 q 191 458 235 510 q 146 310 146 404 z "},"p":{"ha":682,"x_min":19,"x_max":649,"o":"m 92 482 l 29 468 l 28 512 q 132 537 64 519 q 211 558 200 555 l 211 445 q 356 536 276 509 q 418 547 389 547 q 536 510 483 547 q 619 412 589 474 q 649 290 649 351 q 636 183 649 229 q 601 102 624 138 q 546 39 578 65 q 383 -17 479 -17 q 233 1 297 -17 l 211 7 l 211 -280 q 231 -310 211 -304 q 321 -315 251 -315 l 342 -315 l 340 -360 l 21 -360 l 19 -315 q 94 -312 83 -315 q 108 -304 104 -308 q 114 -282 114 -298 l 114 443 q 92 482 114 482 m 211 76 q 300 39 249 48 q 385 29 352 29 q 449 44 418 29 q 499 80 480 58 q 529 131 517 102 q 550 231 550 180 q 535 325 550 282 q 494 398 519 367 q 356 465 437 465 q 219 408 287 465 q 211 401 212 402 l 211 76 z "},"q":{"ha":668,"x_min":33,"x_max":675,"o":"m 74 104 q 64 121 74 104 q 43 176 53 138 q 33 263 33 215 q 51 359 33 310 q 99 442 68 407 q 168 503 129 477 q 340 554 246 554 q 465 529 406 554 q 504 512 486 520 q 528 504 522 504 q 541 509 534 504 q 550 520 547 514 q 558 550 557 535 l 586 550 q 582 471 586 535 q 574 183 574 348 l 574 -277 q 593 -312 574 -308 q 623 -315 611 -315 l 675 -315 l 675 -360 l 325 -360 l 321 -315 l 370 -315 q 456 -307 435 -315 q 476 -268 476 -298 l 476 81 q 382 16 401 24 q 348 1 363 7 q 276 -10 318 -10 q 193 5 234 -10 q 124 45 153 20 q 74 104 95 70 m 476 451 q 329 503 399 503 q 159 410 216 503 q 129 312 129 361 q 148 219 129 262 q 196 144 166 176 q 342 75 262 75 q 470 142 417 75 q 476 150 476 150 l 476 451 z "},"r":{"ha":475,"x_min":24,"x_max":451,"o":"m 132 440 q 116 490 132 490 q 28 475 107 490 l 24 518 q 50 523 36 520 q 71 527 64 526 q 96 532 77 528 q 144 544 115 536 q 227 564 174 551 l 227 407 q 242 435 227 408 q 272 480 258 461 q 302 513 287 498 q 375 549 337 549 q 441 526 416 549 q 451 514 446 523 l 399 376 l 376 385 l 376 403 q 343 435 376 435 q 294 422 320 435 q 249 385 268 409 q 229 336 229 362 l 229 101 q 243 54 229 62 q 317 44 256 44 l 376 44 l 376 0 l 44 0 l 44 44 l 71 44 q 120 50 115 44 q 129 63 126 55 q 132 101 132 72 l 132 440 z "},"s":{"ha":482,"x_min":31,"x_max":424,"o":"m 95 -18 l 96 -32 l 56 -35 l 31 196 l 74 199 l 87 83 q 174 40 129 51 q 239 29 218 29 q 276 36 260 29 q 302 55 292 43 q 321 101 321 80 q 315 137 321 123 q 302 161 310 151 q 281 184 295 172 q 225 223 261 200 l 175 257 q 71 411 71 325 q 93 480 71 448 q 154 531 115 512 q 232 550 194 550 q 298 544 271 550 q 341 531 325 537 q 363 525 357 525 q 374 567 374 525 l 418 565 l 418 356 l 374 356 l 372 454 q 288 495 349 482 q 239 500 266 500 q 187 480 212 500 q 162 433 162 461 q 169 403 162 413 q 177 391 175 394 q 185 381 179 387 q 194 374 192 376 q 204 365 196 371 q 215 357 213 359 q 239 340 222 351 l 301 299 q 381 237 366 256 q 406 203 397 218 q 424 142 424 176 q 412 80 424 108 q 379 30 400 52 q 243 -18 332 -18 q 153 -9 196 -18 q 107 0 110 0 q 95 -18 95 0 z "},"t":{"ha":439,"x_min":31,"x_max":415,"o":"m 47 468 q 31 479 31 468 q 66 525 31 487 q 114 577 102 563 q 149 619 125 590 q 203 682 198 682 q 211 672 211 682 l 211 535 l 399 535 l 390 468 l 211 468 l 211 144 q 271 66 211 82 q 307 62 286 62 q 352 69 329 62 q 390 82 376 76 q 406 89 404 89 q 415 73 415 89 q 389 35 415 57 q 324 -1 363 14 q 249 -15 285 -15 q 187 -4 214 -15 q 145 28 160 8 q 114 133 114 70 l 114 468 l 47 468 z "},"u":{"ha":642,"x_min":24,"x_max":618,"o":"m 70 500 l 24 496 l 24 537 q 193 558 131 547 l 193 211 q 222 93 193 122 q 308 65 250 65 q 433 118 394 65 l 433 457 q 427 491 433 483 q 409 498 421 498 q 382 497 397 498 q 345 492 347 494 l 340 535 q 531 558 418 540 l 531 154 q 537 54 531 62 q 555 44 545 44 q 618 60 566 44 l 618 15 q 516 -10 569 5 q 447 -29 463 -25 q 437 70 445 20 q 315 -11 386 13 q 258 -21 286 -21 q 207 -14 231 -21 q 166 3 183 -8 q 137 30 150 14 q 117 64 124 46 q 104 104 109 81 q 96 192 96 142 l 96 465 q 90 493 96 486 q 70 500 84 500 z "},"v":{"ha":640,"x_min":24,"x_max":617,"o":"m 24 500 l 24 545 l 274 545 l 272 500 l 253 500 q 216 497 227 500 q 205 482 205 493 q 221 432 205 471 l 345 138 q 420 308 381 225 q 468 412 458 391 q 490 477 490 461 q 478 497 490 493 q 429 500 465 500 l 425 500 l 425 545 l 617 545 l 617 500 l 608 500 q 573 491 585 500 q 553 466 562 483 q 492 336 535 433 l 329 -25 l 310 -24 l 114 425 q 81 486 90 479 q 64 496 73 493 q 24 500 53 500 z "},"w":{"ha":1096,"x_min":24,"x_max":1072,"o":"m 272 500 q 231 476 231 500 q 244 432 231 466 l 374 131 l 521 451 q 493 491 508 482 q 449 500 479 500 l 397 500 l 394 545 l 694 545 l 694 500 q 626 493 632 500 q 621 479 621 486 q 633 439 621 472 l 763 132 l 911 446 q 922 481 922 471 q 861 500 922 500 l 825 500 l 825 545 l 1071 545 l 1072 500 q 1020 496 1030 500 q 1002 486 1010 491 q 976 454 987 477 l 746 -24 l 715 -22 l 547 392 l 360 -25 l 331 -24 l 138 425 q 112 480 119 468 q 89 496 104 493 q 24 500 74 500 l 24 545 l 315 545 l 314 500 l 272 500 z "},"x":{"ha":724,"x_min":24,"x_max":699,"o":"m 418 44 q 489 61 489 44 q 476 82 489 69 q 461 99 464 96 l 346 233 l 207 86 q 189 58 189 66 q 254 44 189 44 l 288 44 l 288 0 l 24 0 l 25 44 l 36 44 q 90 53 77 44 q 139 92 115 68 l 314 267 l 135 457 q 100 490 106 487 q 84 495 93 492 q 42 500 71 500 l 42 545 l 343 545 l 343 500 l 315 500 q 265 497 281 500 q 250 485 250 494 q 265 457 250 476 l 374 332 l 485 449 q 511 486 511 477 q 449 500 511 500 l 449 545 l 693 545 l 693 500 l 665 500 q 610 494 619 500 q 593 481 601 488 q 581 471 585 475 q 564 454 577 467 l 407 299 l 600 95 q 644 52 635 56 q 660 46 652 48 q 675 44 668 44 l 699 44 l 699 0 l 418 0 l 418 44 z "},"y":{"ha":651,"x_min":10,"x_max":628,"o":"m 62 -239 l 103 -242 q 160 -194 125 -242 q 256 -29 195 -147 l 297 52 l 124 425 q 114 446 120 433 q 106 464 108 459 q 100 476 105 468 q 93 486 95 484 q 86 492 92 488 q 76 497 80 496 q 64 499 73 497 q 47 500 55 500 l 26 500 l 24 545 l 289 545 l 286 500 l 262 500 q 225 497 236 500 q 214 485 214 493 q 216 469 214 476 q 220 458 218 463 q 225 444 221 453 q 231 432 229 435 l 349 167 l 436 364 q 482 479 482 465 q 469 497 482 493 q 421 500 456 500 l 401 500 l 401 545 l 628 545 l 628 500 l 594 500 q 569 498 575 500 q 560 496 563 496 q 553 491 557 495 q 547 484 549 486 q 541 474 545 482 q 535 462 537 467 q 519 426 528 444 l 308 -40 q 110 -351 181 -321 q 65 -360 90 -360 q 25 -342 40 -360 q 10 -296 10 -324 q 24 -253 10 -268 q 62 -239 39 -239 z "},"z":{"ha":611,"x_min":33,"x_max":564,"o":"m 564 210 l 549 0 l 74 0 q 37 4 40 0 q 33 13 33 9 q 34 19 33 17 q 38 26 35 22 q 42 33 40 30 q 49 41 45 36 q 56 48 53 45 q 64 57 59 52 q 72 65 69 62 l 432 454 l 149 454 q 102 435 106 454 q 90 367 90 386 l 54 368 l 76 565 l 111 565 q 111 562 111 565 q 114 542 111 546 q 142 537 120 537 l 515 537 q 563 528 563 537 q 542 501 563 522 q 510 468 521 481 l 158 85 l 455 85 q 491 90 486 85 q 501 102 497 95 q 507 117 505 109 q 511 139 509 124 q 518 210 514 156 l 564 210 z "},"{":{"ha":390,"x_min":24,"x_max":367,"o":"m 135 -33 l 140 136 q 130 242 140 217 q 115 276 120 267 q 103 291 111 284 q 89 302 95 298 q 73 309 83 306 q 57 313 64 312 q 41 316 51 314 q 24 319 30 318 l 24 346 q 44 350 28 347 q 71 356 60 353 q 97 370 81 359 q 120 398 113 381 q 139 529 139 444 l 135 699 q 277 966 135 912 q 367 981 317 981 l 367 940 q 239 851 267 940 q 223 707 223 800 l 231 507 q 209 394 231 436 q 138 333 188 353 q 221 238 204 308 q 229 158 229 205 l 223 -40 q 233 -170 223 -138 q 254 -222 243 -202 q 279 -253 264 -241 q 367 -280 313 -280 l 367 -321 q 135 -33 135 -321 z "},"|":{"ha":306,"x_min":122,"x_max":183,"o":"m 122 -321 l 122 981 l 183 981 l 183 -321 l 122 -321 z "},"}":{"ha":390,"x_min":24,"x_max":367,"o":"m 251 136 l 257 -33 q 114 -307 257 -256 q 24 -321 74 -321 l 24 -280 q 163 -138 145 -280 q 168 -40 168 -98 l 161 158 q 183 271 161 228 q 254 333 204 314 q 182 394 203 353 q 161 507 161 436 q 167 707 161 507 q 138 881 167 833 q 101 921 120 911 q 24 940 66 940 l 24 981 q 224 863 167 981 q 257 699 257 795 l 251 529 q 261 424 251 448 q 275 390 270 399 q 287 375 279 381 q 301 364 295 368 q 317 357 307 360 q 344 350 332 352 q 357 348 355 348 q 367 346 363 347 l 367 319 q 350 316 361 318 q 333 313 339 314 q 317 309 327 312 q 302 302 308 306 q 288 291 296 298 q 276 276 280 284 q 266 254 271 267 q 258 224 260 240 q 251 136 251 184 z "},"~":{"ha":1383,"x_min":83,"x_max":1300,"o":"m 83 310 q 119 418 93 367 q 162 493 145 469 q 204 542 179 517 q 257 584 229 567 q 388 624 321 624 q 507 610 455 624 q 605 574 559 596 q 697 526 651 552 q 787 473 743 499 q 872 425 830 446 q 1044 375 967 375 q 1166 439 1111 375 q 1246 591 1212 491 q 1256 622 1250 600 l 1300 614 q 1295 596 1300 613 q 1284 558 1291 579 q 1265 508 1278 537 q 1237 452 1253 479 q 1196 396 1221 424 q 1141 348 1171 369 q 983 301 1076 301 q 777 349 883 301 q 630 425 714 377 q 505 493 547 472 q 328 540 408 540 q 203 478 256 540 q 134 330 160 428 q 128 300 131 316 l 83 310 z "},"":{"ha":257,"x_min":0,"x_max":0,"o":""},"":{"ha":424,"x_min":153,"x_max":271,"o":"m 210 787 q 203 787 210 787 q 174 811 196 787 q 153 848 153 834 q 175 885 153 863 q 212 907 198 907 q 248 884 226 907 q 271 847 271 862 q 247 810 271 832 q 210 787 224 787 m 160 1 q 178 274 161 88 q 196 508 195 459 q 198 576 198 556 q 198 608 198 597 q 199 634 198 620 q 201 655 200 648 q 205 669 202 663 q 218 682 210 682 q 230 679 227 682 q 236 671 234 676 q 240 661 238 667 q 242 650 242 654 q 261 346 253 581 q 270 32 270 111 q 196 -12 270 -1 q 178 -14 183 -14 q 160 1 160 -14 z "},"":{"ha":593,"x_min":33,"x_max":560,"o":"m 323 606 l 424 1007 l 479 1000 l 364 602 q 487 548 437 590 q 537 450 537 506 q 514 390 537 415 q 457 365 490 365 q 404 385 425 365 q 382 426 382 405 q 390 460 382 447 q 409 482 399 474 q 436 517 436 504 q 411 546 436 530 q 354 563 386 562 l 221 72 q 333 31 266 31 q 489 99 417 31 q 529 144 516 125 l 560 115 q 548 102 559 115 q 525 77 537 90 q 489 46 512 63 q 443 15 467 28 q 322 -17 386 -17 q 204 8 258 -17 l 132 -280 l 83 -268 l 170 28 q 70 138 107 67 q 33 317 33 208 q 110 515 33 425 q 323 606 188 606 m 190 108 l 311 558 q 222 511 260 548 q 144 306 144 436 q 190 108 144 176 z "},"":{"ha":604,"x_min":24,"x_max":581,"o":"m 288 720 l 289 498 q 282 394 289 450 l 447 394 l 447 340 l 274 340 q 223 186 254 247 l 213 167 q 236 171 219 171 q 276 163 253 171 q 315 144 298 156 q 348 117 332 132 q 378 88 364 103 q 406 62 393 74 q 460 35 435 35 q 499 54 485 35 q 514 91 514 73 q 508 120 514 109 q 494 139 503 131 q 478 157 486 148 q 458 198 458 177 q 471 235 458 219 q 503 251 483 251 q 541 234 523 251 q 576 146 576 197 q 556 59 576 94 q 497 1 535 23 q 424 -21 459 -21 q 372 -16 390 -21 q 342 -4 354 -11 q 318 15 331 2 q 298 38 305 28 q 277 65 290 47 q 201 136 228 136 q 159 81 180 136 q 114 0 134 18 q 72 -18 94 -18 q 37 -3 51 -18 q 24 32 24 12 q 34 69 24 52 q 63 99 45 86 q 99 122 81 112 q 137 141 117 131 q 167 157 158 151 q 188 217 181 172 q 196 300 196 262 l 192 340 l 38 340 l 38 394 l 186 394 q 174 574 174 526 q 186 682 174 621 q 222 787 199 743 q 277 860 245 830 q 429 918 340 918 q 559 856 513 918 q 581 795 581 826 q 565 745 581 763 q 528 726 549 726 q 469 794 482 726 q 456 841 462 829 q 400 872 441 871 q 391 872 399 872 q 369 868 383 872 q 339 852 354 863 q 313 824 325 841 q 288 720 288 786 z "},"":{"ha":724,"x_min":24,"x_max":700,"o":"m 525 144 q 361 90 452 90 q 199 143 270 90 l 103 48 q 62 25 79 25 q 34 36 44 25 q 24 58 24 47 q 28 77 24 69 q 48 103 33 87 l 143 199 q 89 363 89 271 q 142 526 89 455 l 48 622 q 24 662 24 644 q 35 691 24 680 q 62 701 45 701 q 103 676 78 701 l 199 581 q 361 635 271 635 q 525 581 452 635 l 621 676 q 662 700 644 700 q 689 689 679 700 q 700 667 700 678 q 696 648 700 656 q 675 622 690 637 l 579 525 q 636 361 636 447 q 579 200 636 276 l 675 103 q 700 63 700 81 q 688 34 700 45 q 666 24 677 24 q 647 28 655 24 q 621 48 636 33 l 525 144 m 264 534 q 241 520 264 534 q 194 461 219 507 q 168 361 168 415 q 194 262 168 307 q 265 192 220 218 q 361 167 309 167 q 458 193 413 167 q 529 264 503 219 q 555 362 555 310 q 529 461 555 415 q 458 534 503 507 q 361 561 413 561 q 264 534 308 561 z "},"":{"ha":887,"x_min":38,"x_max":864,"o":"m 38 871 l 39 926 l 350 926 l 350 871 l 315 871 q 265 868 280 871 q 250 853 250 864 q 297 769 250 843 l 474 492 l 717 836 q 725 853 725 850 q 704 868 725 864 q 635 871 682 871 l 612 871 l 611 926 l 864 926 l 864 871 l 857 871 q 805 861 816 871 q 764 812 786 843 l 578 545 l 726 545 l 710 478 l 522 478 l 493 431 l 493 340 l 726 340 l 710 274 l 493 274 l 493 118 q 501 67 493 73 q 519 58 509 61 q 574 54 533 54 l 637 54 l 636 0 l 246 0 l 247 54 l 303 54 q 363 60 354 54 q 374 70 372 66 q 378 81 376 74 q 380 115 380 91 l 380 274 l 161 274 l 178 340 l 380 340 l 380 442 l 360 478 l 161 478 l 178 545 l 308 545 l 153 786 q 141 805 149 793 q 130 823 133 817 q 120 837 126 828 l 112 848 q 79 869 98 868 q 68 870 76 869 q 54 871 59 871 l 38 871 z "},"":{"ha":306,"x_min":122,"x_max":183,"o":"m 122 200 l 183 200 l 183 -321 l 122 -321 l 122 200 m 122 460 l 122 981 l 183 981 l 183 460 l 122 460 z "},"":{"ha":624,"x_min":75,"x_max":549,"o":"m 382 129 q 518 -121 518 4 q 459 -250 518 -205 q 329 -292 404 -292 q 173 -231 233 -292 q 131 -133 131 -188 q 154 -50 131 -79 q 213 -21 178 -21 q 240 -31 222 -21 q 274 -58 259 -41 q 290 -87 290 -74 q 282 -114 290 -100 q 263 -139 273 -128 q 236 -182 236 -168 q 238 -204 236 -197 q 247 -220 240 -212 q 264 -234 254 -228 q 323 -249 288 -249 q 385 -236 358 -249 q 430 -200 411 -224 q 449 -147 449 -175 q 437 -93 449 -119 q 408 -44 426 -66 q 364 4 391 -22 q 311 51 337 30 q 196 156 238 111 q 125 248 153 200 q 75 410 75 332 q 135 544 75 505 q 208 565 168 565 q 218 565 212 565 q 227 564 225 564 q 218 575 226 565 q 198 598 209 584 q 172 634 186 612 q 146 679 158 655 q 119 784 119 735 q 129 863 119 833 q 156 914 139 894 q 196 948 173 935 q 286 975 240 975 q 360 967 331 975 q 410 945 390 959 q 445 914 430 931 q 474 839 474 880 q 454 780 474 798 q 403 761 434 761 q 344 779 372 761 q 315 817 315 798 q 331 861 315 836 q 347 898 347 886 q 336 920 347 911 q 307 929 325 929 q 189 818 189 929 q 282 669 189 754 q 339 618 309 644 q 399 565 369 592 q 455 506 428 538 q 503 441 483 475 q 549 283 549 369 q 534 190 549 217 q 507 151 519 163 q 481 133 496 139 q 438 122 456 122 q 412 123 420 122 q 394 126 405 124 q 382 129 384 129 m 233 540 q 164 518 190 540 q 138 466 138 496 q 153 401 138 436 q 194 332 169 366 q 251 264 219 298 q 313 205 282 231 q 417 149 382 149 q 473 165 452 149 q 494 213 494 182 q 471 288 494 243 q 414 375 448 332 q 342 456 379 418 q 275 517 306 494 q 233 540 245 540 z "},"":{"ha":542,"x_min":115,"x_max":436,"o":"z "},"":{"ha":1122,"x_min":61,"x_max":1061,"o":"m 78 192 q 61 328 61 258 q 79 462 61 397 q 128 582 96 527 q 207 684 160 637 q 309 763 253 730 q 568 832 427 832 q 921 684 778 832 q 1044 462 1010 590 q 1061 329 1061 397 q 1044 197 1061 262 q 997 77 1028 133 q 922 -26 967 21 q 824 -107 878 -73 q 567 -178 710 -178 q 202 -32 346 -178 q 78 192 112 60 m 144 469 q 122 328 122 401 q 144 186 122 255 q 205 61 165 117 q 300 -37 245 5 q 568 -124 413 -124 q 735 -88 656 -124 q 873 7 815 -53 q 966 153 931 68 q 1000 320 1000 237 q 980 469 1000 402 q 921 591 959 536 q 830 688 882 647 q 567 777 719 777 q 302 689 416 777 q 144 469 187 601 m 284 126 q 270 146 284 126 q 241 214 255 166 q 227 312 227 262 q 237 404 227 362 q 267 480 248 447 q 313 540 287 513 q 369 587 339 568 q 433 619 399 606 q 558 645 497 645 q 665 636 619 645 q 735 618 712 628 q 779 599 759 609 q 800 589 798 589 l 800 492 q 797 469 800 469 q 787 476 793 469 q 773 493 782 482 q 751 515 764 503 q 721 540 739 528 q 681 563 703 553 q 573 586 633 586 q 466 565 513 586 q 387 507 419 543 q 319 328 319 431 q 427 105 319 194 q 590 47 496 47 q 747 98 683 47 q 795 149 776 121 q 816 176 813 176 q 818 153 818 176 l 818 76 q 656 1 759 23 q 558 -8 612 -8 q 448 8 503 -8 q 353 55 393 25 q 284 126 313 85 z "},"":{"ha":533,"x_min":61,"x_max":472,"o":"m 99 847 q 71 887 71 847 q 90 936 71 913 q 125 971 108 959 q 162 992 141 983 q 279 1013 209 1013 q 376 964 352 1013 q 385 924 385 947 l 385 714 q 421 627 385 651 q 455 613 437 617 q 472 603 472 609 q 441 578 472 596 q 390 550 411 560 q 337 598 358 572 q 310 632 316 624 q 247 578 286 600 q 180 557 209 557 q 133 562 152 557 q 97 577 114 567 q 61 644 61 600 q 92 728 61 688 q 178 790 123 767 q 299 814 233 814 l 299 881 q 279 942 299 927 q 229 957 260 957 q 180 954 198 957 q 152 945 161 950 q 126 924 132 935 l 138 877 q 123 856 138 865 q 99 847 108 847 m 157 713 q 147 674 147 695 q 163 636 147 652 q 209 621 179 621 q 257 627 239 621 q 283 642 274 632 q 299 681 299 660 l 299 782 q 157 713 195 782 z "},"":{"ha":528,"x_min":56,"x_max":472,"o":"m 239 300 l 450 485 l 472 460 l 343 300 l 472 142 l 450 115 l 239 300 m 56 300 l 267 485 l 289 460 l 160 300 l 289 142 l 267 115 l 56 300 z "},"":{"ha":1000,"x_min":111,"x_max":889,"o":"m 111 286 l 111 367 l 889 367 l 889 -46 l 807 -46 l 807 286 l 111 286 z "},"":{"ha":437,"x_min":47,"x_max":390,"o":"m 47 335 l 47 418 l 390 519 l 390 435 l 47 335 z "},"":{"ha":696,"x_min":61,"x_max":635,"o":"m 144 554 q 125 573 144 554 q 83 646 106 593 q 61 759 61 700 q 83 872 61 818 q 144 966 106 927 q 235 1028 182 1005 q 342 1052 289 1052 q 439 1037 395 1052 q 519 995 484 1022 q 580 932 554 968 q 635 758 635 856 q 558 554 635 637 q 347 468 480 468 q 235 491 289 468 q 144 554 182 514 m 227 977 q 198 960 227 977 q 137 883 170 942 q 104 757 104 825 q 137 633 104 690 q 227 544 170 577 q 353 511 283 511 q 478 544 423 511 q 563 633 534 577 q 592 748 592 689 q 573 855 592 808 q 522 937 554 902 q 351 1013 451 1013 q 227 977 284 1013 m 219 633 q 239 637 239 633 l 239 903 q 235 912 239 910 q 221 914 232 914 l 201 914 l 203 947 l 317 947 q 427 920 393 947 q 461 846 461 893 q 394 764 461 786 l 485 645 q 502 633 493 633 l 515 633 l 517 600 l 447 600 l 340 753 l 332 753 l 293 754 l 293 639 q 294 634 293 635 q 300 633 295 633 l 333 633 l 332 600 l 205 600 l 205 633 l 219 633 m 293 783 q 331 782 298 782 q 399 839 399 782 q 373 893 399 872 q 301 914 348 914 q 294 911 296 914 q 293 897 293 909 l 293 783 z "},"":{"ha":542,"x_min":119,"x_max":439,"o":"m 119 722 l 119 789 l 439 789 l 439 722 l 119 722 z "},"":{"ha":458,"x_min":61,"x_max":397,"o":"m 84 760 q 72 779 84 760 q 61 844 61 799 q 84 929 61 890 q 145 990 106 967 q 229 1013 183 1013 q 314 990 275 1013 q 375 929 352 967 q 397 850 397 890 q 384 779 397 810 q 348 726 371 748 q 229 676 299 676 q 145 699 183 676 q 84 760 106 721 m 146 928 q 128 911 146 928 q 111 844 111 893 q 146 760 111 795 q 229 725 180 725 q 313 760 278 725 q 349 844 349 795 q 313 928 349 893 q 229 963 278 963 q 146 928 180 963 z "},"":{"ha":1007,"x_min":111,"x_max":896,"o":"m 111 -32 l 111 50 l 896 50 l 896 -32 l 111 -32 m 111 401 l 111 482 q 447 478 381 482 l 469 476 q 463 779 463 532 l 545 779 q 539 500 545 563 l 537 476 q 896 482 608 482 l 896 401 q 559 406 626 401 l 537 407 q 545 104 545 352 l 463 104 q 468 386 463 323 l 469 407 q 111 401 413 401 z "},"":{"ha":554,"x_min":56,"x_max":498,"o":"z "},"":{"ha":576,"x_min":56,"x_max":493,"o":"z "},"":{"ha":542,"x_min":239,"x_max":408,"o":"m 239 650 l 311 875 l 408 875 l 289 650 l 239 650 z "},"":{"ha":719,"x_min":24,"x_max":668,"o":"m 482 -29 q 426 62 426 -29 q 440 173 426 96 q 454 253 454 250 q 451 257 454 257 q 443 249 448 257 q 428 223 437 240 q 405 184 418 206 q 327 82 373 133 q 157 -25 230 -25 q 132 -16 142 -25 q 116 5 121 -6 q 109 25 112 16 q 103 35 105 35 q 95 7 101 35 q 79 -102 79 -65 q 87 -163 79 -138 q 103 -208 95 -189 q 111 -232 111 -228 q 110 -240 111 -236 q 106 -251 109 -245 q 98 -263 102 -258 q 64 -276 85 -276 q 33 -260 42 -276 q 24 -197 24 -244 q 36 -90 24 -150 q 74 58 49 -29 q 143 345 113 197 q 178 509 173 494 q 193 525 183 525 q 218 520 201 525 q 251 493 251 511 q 220 305 251 480 q 189 112 189 130 q 191 86 189 95 q 219 61 196 61 q 275 87 241 61 q 340 155 309 114 q 405 248 372 196 q 507 442 463 342 q 533 502 527 483 q 541 522 539 520 q 560 525 546 525 q 595 517 574 525 q 615 502 615 510 q 593 406 615 494 q 528 100 528 140 q 538 77 528 86 q 563 68 548 68 q 593 82 578 68 q 616 113 608 96 q 651 157 637 157 q 668 138 668 157 q 659 97 668 119 q 632 54 650 76 q 593 13 615 32 q 482 -29 542 -29 z "},"":{"ha":974,"x_min":61,"x_max":922,"o":"m 826 -229 l 836 -194 q 703 -118 836 -149 q 578 -92 642 -104 q 335 -28 404 -60 q 214 54 267 3 q 127 170 160 105 q 61 474 61 300 q 214 831 61 690 q 439 948 307 917 q 561 964 504 964 q 653 957 618 964 q 707 939 689 950 q 744 901 744 918 q 736 878 744 885 q 720 871 729 871 q 696 878 711 871 q 667 895 682 886 q 560 920 627 920 l 482 912 l 482 -19 q 587 -35 530 -31 q 684 -45 645 -40 q 756 -54 723 -49 q 820 -70 789 -60 q 874 -94 852 -81 q 922 -180 922 -125 q 906 -239 922 -213 q 864 -265 890 -265 q 826 -229 826 -265 m 292 60 q 431 -8 345 15 l 431 899 q 292 830 346 878 l 292 60 z "},"":{"ha":279,"x_min":81,"x_max":199,"o":"m 139 404 q 132 404 139 404 q 103 426 125 404 q 81 464 81 449 q 105 501 81 479 q 143 524 129 524 q 178 499 158 524 q 199 460 199 474 q 175 425 199 445 q 139 404 152 404 z "},"":{"ha":542,"x_min":197,"x_max":437,"o":"m 254 -92 l 278 -90 q 375 -108 340 -90 q 437 -196 437 -139 q 341 -298 437 -273 q 286 -306 315 -306 q 197 -288 228 -306 l 226 -254 q 297 -268 268 -268 q 343 -250 325 -268 q 361 -206 361 -232 q 352 -167 361 -180 q 327 -146 342 -153 q 268 -132 296 -132 q 230 -133 240 -132 l 214 -110 l 253 10 l 284 10 l 254 -92 z "},"":{"ha":478,"x_min":97,"x_max":422,"o":"z "},"":{"ha":559,"x_min":61,"x_max":498,"o":"m 61 788 q 69 856 61 823 q 94 918 77 888 q 135 969 111 947 q 272 1017 188 1017 q 471 903 416 1017 q 498 787 498 845 q 483 688 498 728 q 438 617 467 647 q 275 553 377 553 q 95 656 155 553 q 61 788 61 714 m 268 976 q 243 976 268 976 q 188 934 218 976 q 157 827 157 891 q 172 713 157 762 q 218 632 188 665 q 283 598 249 598 q 338 614 317 598 q 372 655 360 629 q 396 766 396 706 q 385 865 396 826 q 356 927 374 903 q 268 976 318 976 z "},"":{"ha":529,"x_min":56,"x_max":474,"o":"m 240 142 l 370 300 l 240 460 l 262 485 l 474 300 l 262 115 l 240 142 m 56 142 l 185 300 l 56 460 l 78 485 l 289 300 l 78 115 l 56 142 z "},"":{"ha":1325,"x_min":97,"x_max":1270,"o":"m 775 167 q 761 174 761 167 q 780 206 761 185 q 827 257 800 228 q 879 313 855 287 q 942 383 903 340 q 1134 607 1015 465 q 1149 617 1141 617 q 1157 593 1157 617 l 1157 244 l 1270 244 l 1247 167 l 1157 167 l 1157 -14 l 1069 -14 l 1069 167 l 775 167 m 871 244 l 1069 244 l 1069 474 l 871 244 m 282 -52 l 1000 972 l 1071 972 l 353 -52 l 282 -52 z "},"":{"ha":1371,"x_min":97,"x_max":1315,"o":"m 872 8 q 913 53 872 13 q 985 124 955 93 q 1047 193 1016 156 q 1103 269 1077 231 q 1160 426 1160 354 q 1095 536 1160 506 q 1037 549 1067 549 q 985 544 1007 549 q 950 531 962 538 q 930 516 938 524 q 902 498 911 498 q 893 513 893 498 q 906 544 893 527 q 942 576 919 562 q 1081 608 995 608 q 1220 559 1166 608 q 1274 433 1274 509 q 1180 242 1274 351 q 1025 98 1122 174 q 979 57 979 61 q 1024 53 979 53 q 1129 60 1068 53 q 1222 76 1190 67 q 1279 93 1255 85 q 1309 100 1302 100 q 1315 90 1315 100 q 1306 45 1315 80 q 1293 7 1297 10 q 1287 3 1288 3 q 1241 0 1281 0 l 897 0 q 872 8 872 0 m 282 -52 l 1000 972 l 1071 972 l 353 -52 l 282 -52 z "},"":{"ha":1368,"x_min":56,"x_max":1313,"o":"m 818 167 q 804 174 804 167 q 823 206 804 185 q 870 257 843 228 q 922 313 898 287 q 985 383 946 340 q 1177 607 1058 465 q 1192 617 1184 617 q 1200 593 1200 617 l 1200 244 l 1313 244 l 1291 167 l 1200 167 l 1200 -14 l 1113 -14 l 1113 167 l 818 167 m 914 244 l 1113 244 l 1113 474 l 914 244 m 325 -52 l 1043 972 l 1114 972 l 396 -52 l 325 -52 z "},"":{"ha":551,"x_min":83,"x_max":440,"o":"m 421 92 q 440 75 440 92 q 412 32 440 56 q 317 -13 360 -13 q 246 16 287 -13 q 178 70 204 44 q 131 125 152 96 q 83 257 83 190 q 92 314 83 291 q 123 365 100 337 q 179 423 147 393 q 233 473 210 453 q 278 514 257 493 q 321 597 321 557 q 279 683 321 643 q 256 715 256 705 q 275 733 256 733 q 326 711 300 733 q 367 668 352 688 q 392 618 382 648 q 401 557 401 589 q 388 495 401 525 q 353 443 374 466 q 305 397 331 419 q 253 352 279 374 q 205 308 227 330 q 157 204 157 258 q 182 153 157 179 q 250 108 208 126 q 336 90 292 90 l 421 92 m 285 796 q 277 796 285 796 q 245 821 269 796 q 221 861 221 847 q 246 901 221 876 q 288 926 271 926 q 329 900 304 926 q 354 859 354 874 q 328 819 354 843 q 285 796 301 796 z "},"":{"ha":1008,"x_min":38,"x_max":971,"o":"m 374 1207 l 471 1207 l 543 1009 l 493 1009 l 374 1207 m 38 54 l 54 54 q 104 67 92 54 q 133 117 117 80 q 175 211 150 154 q 241 358 201 269 q 298 485 281 446 q 329 552 316 524 q 347 591 342 580 q 357 615 351 602 l 498 960 l 528 960 q 740 429 612 740 q 882 93 869 118 q 910 61 896 67 q 950 54 925 54 l 971 54 l 969 0 l 653 0 l 654 54 l 696 54 q 744 57 730 54 q 757 71 757 60 q 751 94 757 79 q 743 114 744 110 l 640 367 l 318 367 l 208 122 q 194 75 194 88 q 205 58 194 62 q 251 54 216 54 l 308 54 l 308 0 l 39 0 l 38 54 m 345 428 l 617 428 l 485 757 l 345 428 z "},"":{"ha":1008,"x_min":38,"x_max":971,"o":"m 480 1009 l 553 1207 l 650 1207 l 531 1009 l 480 1009 m 38 54 l 54 54 q 104 67 92 54 q 133 117 117 80 q 175 211 150 154 q 241 358 201 269 q 298 485 281 446 q 329 552 316 524 q 347 591 342 580 q 357 615 351 602 l 498 960 l 528 960 q 740 429 612 740 q 882 93 869 118 q 910 61 896 67 q 950 54 925 54 l 971 54 l 969 0 l 653 0 l 654 54 l 696 54 q 744 57 730 54 q 757 71 757 60 q 751 94 757 79 q 743 114 744 110 l 640 367 l 318 367 l 208 122 q 194 75 194 88 q 205 58 194 62 q 251 54 216 54 l 308 54 l 308 0 l 39 0 l 38 54 m 345 428 l 617 428 l 485 757 l 345 428 z "},"":{"ha":1008,"x_min":38,"x_max":971,"o":"m 508 1136 l 424 1036 l 371 1036 q 482 1201 414 1097 l 564 1201 q 675 1036 613 1123 l 594 1036 q 547 1090 575 1057 q 508 1136 519 1123 m 38 54 l 54 54 q 104 67 92 54 q 133 117 117 80 q 175 211 150 154 q 241 358 201 269 q 298 485 281 446 q 329 552 316 524 q 347 591 342 580 q 357 615 351 602 l 498 960 l 528 960 q 740 429 612 740 q 882 93 869 118 q 910 61 896 67 q 950 54 925 54 l 971 54 l 969 0 l 653 0 l 654 54 l 696 54 q 744 57 730 54 q 757 71 757 60 q 751 94 757 79 q 743 114 744 110 l 640 367 l 318 367 l 208 122 q 194 75 194 88 q 205 58 194 62 q 251 54 216 54 l 308 54 l 308 0 l 39 0 l 38 54 m 345 428 l 617 428 l 485 757 l 345 428 z "},"":{"ha":1008,"x_min":38,"x_max":971,"o":"m 347 1046 q 349 1054 348 1049 q 354 1074 350 1059 q 364 1103 359 1089 q 378 1134 369 1117 q 397 1163 387 1151 q 451 1192 421 1192 q 512 1175 482 1192 l 554 1153 q 598 1139 581 1139 q 626 1145 614 1139 q 645 1161 637 1152 q 668 1201 660 1180 l 687 1196 q 636 1089 675 1129 q 586 1065 613 1065 q 532 1078 560 1065 l 489 1099 q 439 1112 461 1112 q 406 1105 417 1112 q 387 1087 394 1097 q 367 1040 372 1063 l 347 1046 m 38 54 l 54 54 q 104 67 92 54 q 133 117 117 80 q 175 211 150 154 q 241 358 201 269 q 298 485 281 446 q 329 552 316 524 q 347 591 342 580 q 357 615 351 602 l 498 960 l 528 960 q 740 429 612 740 q 882 93 869 118 q 910 61 896 67 q 950 54 925 54 l 971 54 l 969 0 l 653 0 l 654 54 l 696 54 q 744 57 730 54 q 757 71 757 60 q 751 94 757 79 q 743 114 744 110 l 640 367 l 318 367 l 208 122 q 194 75 194 88 q 205 58 194 62 q 251 54 216 54 l 308 54 l 308 0 l 39 0 l 38 54 m 345 428 l 617 428 l 485 757 l 345 428 z "},"":{"ha":1008,"x_min":38,"x_max":971,"o":"m 38 54 l 54 54 q 104 67 92 54 q 133 117 117 80 q 175 211 150 154 q 241 358 201 269 q 298 485 281 446 q 329 552 316 524 q 347 591 342 580 q 357 615 351 602 l 498 960 l 528 960 q 740 429 612 740 q 882 93 869 118 q 910 61 896 67 q 950 54 925 54 l 971 54 l 969 0 l 653 0 l 654 54 l 696 54 q 744 57 730 54 q 757 71 757 60 q 751 94 757 79 q 743 114 744 110 l 640 367 l 318 367 l 208 122 q 194 75 194 88 q 205 58 194 62 q 251 54 216 54 l 308 54 l 308 0 l 39 0 l 38 54 m 345 428 l 617 428 l 485 757 l 345 428 m 410 1064 q 404 1064 410 1064 q 375 1086 397 1064 q 353 1124 353 1109 q 377 1162 353 1140 q 417 1184 402 1184 q 451 1160 431 1184 q 471 1121 471 1136 q 447 1085 471 1106 q 410 1064 424 1064 m 615 1064 q 608 1064 615 1064 q 579 1086 602 1064 q 557 1124 557 1109 q 581 1162 557 1140 q 620 1184 606 1184 q 655 1160 634 1184 q 675 1121 675 1135 q 652 1085 675 1106 q 615 1064 628 1064 z "},"":{"ha":1008,"x_min":38,"x_max":971,"o":"m 516 1014 q 494 1014 516 1014 q 436 1043 471 1014 q 400 1107 400 1073 q 416 1168 400 1141 q 459 1214 432 1196 q 522 1232 486 1232 q 592 1198 558 1232 q 625 1121 625 1164 q 593 1046 625 1078 q 516 1014 561 1014 m 449 1110 q 449 1099 449 1110 q 467 1072 449 1088 q 506 1056 485 1056 q 537 1059 527 1056 q 557 1068 548 1062 q 578 1112 578 1084 q 572 1154 578 1140 q 555 1175 565 1168 q 517 1187 535 1187 q 486 1182 498 1187 q 467 1167 473 1176 q 456 1148 460 1159 q 449 1110 449 1132 m 38 54 l 54 54 q 104 67 92 54 q 133 117 117 80 q 175 211 150 154 q 241 358 201 269 q 298 485 281 446 q 329 552 316 524 q 347 591 342 580 q 357 615 351 602 l 498 960 l 528 960 q 740 429 612 740 q 882 93 869 118 q 910 61 896 67 q 950 54 925 54 l 971 54 l 969 0 l 653 0 l 654 54 l 696 54 q 744 57 730 54 q 757 71 757 60 q 751 94 757 79 q 743 114 744 110 l 640 367 l 318 367 l 208 122 q 194 75 194 88 q 205 58 194 62 q 251 54 216 54 l 308 54 l 308 0 l 39 0 l 38 54 m 345 428 l 617 428 l 485 757 l 345 428 z "},"":{"ha":1462,"x_min":38,"x_max":1411,"o":"m 939 64 q 1270 71 1217 66 q 1330 83 1323 75 q 1342 101 1338 90 q 1364 222 1345 112 l 1411 215 l 1376 0 l 674 0 l 674 54 l 693 54 q 763 58 749 54 q 780 72 777 61 q 783 107 783 83 l 783 367 l 410 367 l 236 122 q 211 74 211 87 q 226 57 211 61 q 279 54 241 54 l 321 54 l 321 0 l 38 0 l 39 54 l 62 54 q 123 79 99 54 q 183 157 148 107 l 689 872 l 600 871 l 598 926 l 1360 926 q 1367 708 1362 797 l 1313 706 q 1292 859 1308 843 q 1276 866 1287 864 q 1211 867 1265 867 l 975 867 q 910 860 918 867 q 901 850 902 853 q 898 838 899 846 q 896 801 896 828 l 896 608 q 900 563 896 568 q 910 556 904 558 q 942 553 918 553 l 1150 553 q 1192 560 1186 553 q 1200 575 1198 567 q 1203 620 1203 588 l 1203 675 l 1254 674 l 1254 342 l 1203 342 l 1203 434 q 1202 451 1203 443 q 1201 465 1201 460 q 1199 474 1201 469 q 1196 482 1197 479 q 1191 487 1195 484 q 1185 490 1187 489 q 1177 491 1183 490 q 1167 492 1171 492 l 944 492 q 904 485 910 492 q 896 449 896 475 l 896 121 q 904 74 896 84 q 939 64 912 64 m 453 428 l 783 428 l 783 836 q 778 864 783 857 q 758 871 772 871 l 453 428 z "},"":{"ha":1023,"x_min":75,"x_max":957,"o":"m 563 -92 l 586 -90 q 684 -108 649 -90 q 746 -196 746 -139 q 650 -298 746 -273 q 595 -306 624 -306 q 506 -288 537 -306 l 535 -254 q 605 -268 576 -268 q 651 -250 633 -268 q 669 -206 669 -232 q 660 -167 669 -180 q 635 -146 651 -153 q 577 -132 605 -132 q 539 -133 549 -132 l 522 -110 l 551 -22 q 199 109 325 -15 q 75 436 75 231 q 203 770 75 634 q 381 889 274 845 q 562 929 477 929 q 703 922 648 929 q 785 908 759 916 q 831 893 811 900 q 857 886 850 886 q 868 887 864 886 q 874 894 872 888 q 878 929 878 902 l 878 938 l 930 938 q 947 672 935 802 l 897 671 q 890 734 891 725 q 888 756 890 744 q 885 771 886 767 q 881 781 885 774 q 875 789 877 788 q 865 795 872 791 q 853 802 858 800 q 810 822 841 806 q 714 851 780 838 q 581 864 649 864 q 452 844 513 864 q 344 788 391 824 q 263 703 297 752 q 193 476 193 605 q 247 265 193 367 q 395 103 300 166 q 614 39 493 39 q 842 114 730 39 q 904 182 903 155 l 908 299 l 957 299 l 949 96 q 699 -9 843 22 q 583 -22 640 -22 l 563 -92 z "},"":{"ha":856,"x_min":38,"x_max":804,"o":"m 289 1207 l 386 1207 l 458 1009 l 408 1009 l 289 1207 m 332 64 q 663 71 610 66 q 723 83 716 75 q 735 101 731 90 q 757 222 739 112 l 804 215 l 769 0 l 65 0 l 65 54 l 101 54 q 161 60 153 54 q 172 72 169 65 q 175 107 175 81 l 175 811 q 160 863 175 852 q 78 871 147 871 l 39 871 l 38 926 l 753 926 q 760 708 755 807 l 706 706 q 685 859 701 843 q 669 866 680 864 q 604 867 658 867 l 368 867 q 303 861 311 867 q 292 846 295 854 q 288 801 288 836 l 288 608 q 292 563 288 568 q 302 556 296 558 q 333 553 309 553 l 543 553 q 585 560 580 553 q 593 576 591 567 q 596 622 596 588 l 596 675 l 647 674 l 647 342 l 596 342 l 596 414 q 590 479 596 472 q 582 488 584 486 q 573 490 580 489 q 562 492 566 492 l 337 492 q 296 485 303 492 q 288 449 288 476 l 288 121 q 296 74 288 85 q 332 64 304 64 z "},"":{"ha":856,"x_min":38,"x_max":804,"o":"m 396 1009 l 468 1207 l 565 1207 l 446 1009 l 396 1009 m 332 64 q 663 71 610 66 q 723 83 716 75 q 735 101 731 90 q 757 222 739 112 l 804 215 l 769 0 l 65 0 l 65 54 l 101 54 q 161 60 153 54 q 172 72 169 65 q 175 107 175 81 l 175 811 q 160 863 175 852 q 78 871 147 871 l 39 871 l 38 926 l 753 926 q 760 708 755 807 l 706 706 q 685 859 701 843 q 669 866 680 864 q 604 867 658 867 l 368 867 q 303 861 311 867 q 292 846 295 854 q 288 801 288 836 l 288 608 q 292 563 288 568 q 302 556 296 558 q 333 553 309 553 l 543 553 q 585 560 580 553 q 593 576 591 567 q 596 622 596 588 l 596 675 l 647 674 l 647 342 l 596 342 l 596 414 q 590 479 596 472 q 582 488 584 486 q 573 490 580 489 q 562 492 566 492 l 337 492 q 296 485 303 492 q 288 449 288 476 l 288 121 q 296 74 288 85 q 332 64 304 64 z "},"":{"ha":856,"x_min":38,"x_max":804,"o":"m 424 1136 l 339 1036 l 286 1036 q 397 1201 330 1097 l 479 1201 q 590 1036 529 1123 l 510 1036 q 463 1090 490 1057 q 424 1136 435 1123 m 332 64 q 663 71 610 66 q 723 83 716 75 q 735 101 731 90 q 757 222 739 112 l 804 215 l 769 0 l 65 0 l 65 54 l 101 54 q 161 60 153 54 q 172 72 169 65 q 175 107 175 81 l 175 811 q 160 863 175 852 q 78 871 147 871 l 39 871 l 38 926 l 753 926 q 760 708 755 807 l 706 706 q 685 859 701 843 q 669 866 680 864 q 604 867 658 867 l 368 867 q 303 861 311 867 q 292 846 295 854 q 288 801 288 836 l 288 608 q 292 563 288 568 q 302 556 296 558 q 333 553 309 553 l 543 553 q 585 560 580 553 q 593 576 591 567 q 596 622 596 588 l 596 675 l 647 674 l 647 342 l 596 342 l 596 414 q 590 479 596 472 q 582 488 584 486 q 573 490 580 489 q 562 492 566 492 l 337 492 q 296 485 303 492 q 288 449 288 476 l 288 121 q 296 74 288 85 q 332 64 304 64 z "},"":{"ha":856,"x_min":38,"x_max":804,"o":"m 332 64 q 663 71 610 66 q 723 83 716 75 q 735 101 731 90 q 757 222 739 112 l 804 215 l 769 0 l 65 0 l 65 54 l 101 54 q 161 60 153 54 q 172 72 169 65 q 175 107 175 81 l 175 811 q 160 863 175 852 q 78 871 147 871 l 39 871 l 38 926 l 753 926 q 760 708 755 807 l 706 706 q 685 859 701 843 q 669 866 680 864 q 604 867 658 867 l 368 867 q 303 861 311 867 q 292 846 295 854 q 288 801 288 836 l 288 608 q 292 563 288 568 q 302 556 296 558 q 333 553 309 553 l 543 553 q 585 560 580 553 q 593 576 591 567 q 596 622 596 588 l 596 675 l 647 674 l 647 342 l 596 342 l 596 414 q 590 479 596 472 q 582 488 584 486 q 573 490 580 489 q 562 492 566 492 l 337 492 q 296 485 303 492 q 288 449 288 476 l 288 121 q 296 74 288 85 q 332 64 304 64 m 326 1064 q 319 1064 326 1064 q 290 1086 312 1064 q 268 1124 268 1109 q 293 1162 268 1140 q 332 1184 317 1184 q 366 1160 346 1184 q 386 1121 386 1136 q 362 1085 386 1106 q 326 1064 339 1064 m 530 1064 q 523 1064 530 1064 q 495 1086 517 1064 q 472 1124 472 1109 q 497 1162 472 1140 q 535 1184 521 1184 q 570 1160 549 1184 q 590 1121 590 1135 q 567 1085 590 1106 q 530 1064 544 1064 z "},"":{"ha":447,"x_min":38,"x_max":410,"o":"m 79 1207 l 176 1207 l 249 1009 l 199 1009 l 79 1207 m 38 871 l 39 926 l 388 926 l 388 871 l 364 871 q 308 868 316 871 q 294 862 300 866 q 286 855 288 859 q 282 843 284 850 q 279 807 279 833 l 279 118 q 287 67 279 73 q 304 58 294 61 q 354 54 317 54 l 408 54 l 410 0 l 54 0 l 53 54 l 89 54 q 151 61 143 54 q 163 75 160 67 q 167 115 167 86 l 167 821 q 160 862 167 857 q 144 868 154 866 q 96 871 134 871 l 38 871 z "},"":{"ha":447,"x_min":38,"x_max":410,"o":"m 186 1009 l 258 1207 l 356 1207 l 236 1009 l 186 1009 m 38 871 l 39 926 l 388 926 l 388 871 l 364 871 q 308 868 316 871 q 294 862 300 866 q 286 855 288 859 q 282 843 284 850 q 279 807 279 833 l 279 118 q 287 67 279 73 q 304 58 294 61 q 354 54 317 54 l 408 54 l 410 0 l 54 0 l 53 54 l 89 54 q 151 61 143 54 q 163 75 160 67 q 167 115 167 86 l 167 821 q 160 862 167 857 q 144 868 154 866 q 96 871 134 871 l 38 871 z "},"":{"ha":447,"x_min":38,"x_max":410,"o":"m 214 1136 l 129 1036 l 76 1036 q 188 1201 120 1097 l 270 1201 q 381 1036 319 1123 l 300 1036 q 253 1090 281 1057 q 214 1136 225 1123 m 38 871 l 39 926 l 388 926 l 388 871 l 364 871 q 308 868 316 871 q 294 862 300 866 q 286 855 288 859 q 282 843 284 850 q 279 807 279 833 l 279 118 q 287 67 279 73 q 304 58 294 61 q 354 54 317 54 l 408 54 l 410 0 l 54 0 l 53 54 l 89 54 q 151 61 143 54 q 163 75 160 67 q 167 115 167 86 l 167 821 q 160 862 167 857 q 144 868 154 866 q 96 871 134 871 l 38 871 z "},"":{"ha":447,"x_min":38,"x_max":410,"o":"m 38 871 l 39 926 l 388 926 l 388 871 l 364 871 q 308 868 316 871 q 294 862 300 866 q 286 855 288 859 q 282 843 284 850 q 279 807 279 833 l 279 118 q 287 67 279 73 q 304 58 294 61 q 354 54 317 54 l 408 54 l 410 0 l 54 0 l 53 54 l 89 54 q 151 61 143 54 q 163 75 160 67 q 167 115 167 86 l 167 821 q 160 862 167 857 q 144 868 154 866 q 96 871 134 871 l 38 871 m 116 1064 q 109 1064 116 1064 q 81 1086 103 1064 q 58 1124 58 1109 q 83 1162 58 1140 q 122 1184 108 1184 q 156 1160 137 1184 q 176 1121 176 1136 q 153 1085 176 1106 q 116 1064 130 1064 m 321 1064 q 314 1064 321 1064 q 285 1086 307 1064 q 263 1124 263 1109 q 287 1162 263 1140 q 326 1184 311 1184 q 360 1160 340 1184 q 381 1121 381 1135 q 357 1085 381 1106 q 321 1064 334 1064 z "},"":{"ha":1033,"x_min":38,"x_max":972,"o":"m 38 926 l 413 926 q 702 899 617 926 q 887 769 817 863 q 972 498 972 655 q 832 145 972 288 q 421 0 689 0 l 62 0 l 61 54 l 95 54 q 155 60 146 54 q 165 70 164 66 q 169 81 167 74 q 171 115 171 89 l 171 445 l 65 445 l 67 511 l 171 511 l 171 821 q 164 862 171 857 q 149 868 158 866 q 100 871 138 871 l 42 871 l 38 926 m 283 118 q 288 75 283 82 q 299 64 293 68 q 313 59 306 60 q 334 56 321 58 q 414 54 351 54 q 538 67 476 54 q 646 101 601 79 q 727 154 691 123 q 784 219 762 184 q 821 295 807 254 q 847 433 847 368 q 839 540 847 498 q 813 622 831 581 q 770 697 796 662 q 707 763 744 733 q 624 815 669 793 q 392 861 526 861 l 340 861 q 305 857 316 861 q 283 796 283 849 l 283 511 l 567 511 l 565 445 l 283 445 l 283 118 z "},"":{"ha":1033,"x_min":38,"x_max":996,"o":"m 354 1046 q 356 1054 355 1049 q 361 1074 357 1059 q 371 1103 366 1089 q 385 1134 376 1117 q 404 1163 394 1151 q 459 1192 428 1192 q 519 1175 489 1192 l 561 1153 q 605 1139 588 1139 q 633 1145 621 1139 q 652 1161 644 1152 q 675 1201 667 1180 l 694 1196 q 644 1089 683 1129 q 594 1065 620 1065 q 539 1078 567 1065 l 496 1099 q 446 1112 468 1112 q 413 1105 424 1112 q 394 1087 401 1097 q 374 1040 379 1063 l 354 1046 m 38 926 l 253 926 l 822 192 l 822 821 q 807 864 822 853 q 746 871 795 871 l 697 871 l 700 926 l 996 926 l 996 871 l 964 871 q 908 863 921 871 q 887 810 887 850 l 887 10 q 886 -17 887 -11 q 875 -24 884 -24 l 856 -24 q 842 -21 844 -24 q 838 -16 839 -18 q 832 -9 836 -14 q 825 1 828 -3 l 219 779 l 227 118 q 244 63 227 73 q 329 54 261 54 l 353 54 l 353 0 l 61 0 l 61 54 l 103 54 q 155 70 149 54 q 161 115 161 85 l 161 854 l 147 871 l 39 871 l 38 926 z "},"":{"ha":1108,"x_min":75,"x_max":1033,"o":"m 411 1207 l 508 1207 l 581 1009 l 531 1009 l 411 1207 m 75 468 q 94 604 75 534 q 146 727 113 674 q 226 823 180 781 q 325 891 271 865 q 557 946 435 946 q 845 857 717 946 q 1019 591 980 763 q 1033 470 1033 530 q 1024 360 1033 410 q 994 261 1014 309 q 944 170 974 213 q 875 92 915 128 q 785 32 834 57 q 546 -22 682 -22 q 228 90 356 -22 q 75 468 75 224 m 243 710 q 233 690 243 710 q 212 617 223 671 q 200 507 200 563 q 208 404 200 452 q 232 310 216 356 q 272 224 249 264 q 328 149 295 183 q 398 90 360 115 q 583 38 478 38 q 741 80 668 38 q 860 210 814 123 q 907 428 907 299 q 787 768 907 635 q 621 875 719 845 q 537 889 575 889 q 470 883 499 889 q 408 864 440 878 q 346 831 375 851 q 289 780 316 811 q 243 710 262 749 z "},"":{"ha":1108,"x_min":75,"x_max":1033,"o":"m 518 1009 l 590 1207 l 688 1207 l 568 1009 l 518 1009 m 75 468 q 94 604 75 534 q 146 727 113 674 q 226 823 180 781 q 325 891 271 865 q 557 946 435 946 q 845 857 717 946 q 1019 591 980 763 q 1033 470 1033 530 q 1024 360 1033 410 q 994 261 1014 309 q 944 170 974 213 q 875 92 915 128 q 785 32 834 57 q 546 -22 682 -22 q 228 90 356 -22 q 75 468 75 224 m 243 710 q 233 690 243 710 q 212 617 223 671 q 200 507 200 563 q 208 404 200 452 q 232 310 216 356 q 272 224 249 264 q 328 149 295 183 q 398 90 360 115 q 583 38 478 38 q 741 80 668 38 q 860 210 814 123 q 907 428 907 299 q 787 768 907 635 q 621 875 719 845 q 537 889 575 889 q 470 883 499 889 q 408 864 440 878 q 346 831 375 851 q 289 780 316 811 q 243 710 262 749 z "},"":{"ha":1108,"x_min":75,"x_max":1033,"o":"m 546 1136 l 461 1036 l 408 1036 q 519 1201 452 1097 l 602 1201 q 713 1036 651 1123 l 632 1036 q 585 1090 613 1057 q 546 1136 557 1123 m 75 468 q 94 604 75 534 q 146 727 113 674 q 226 823 180 781 q 325 891 271 865 q 557 946 435 946 q 845 857 717 946 q 1019 591 980 763 q 1033 470 1033 530 q 1024 360 1033 410 q 994 261 1014 309 q 944 170 974 213 q 875 92 915 128 q 785 32 834 57 q 546 -22 682 -22 q 228 90 356 -22 q 75 468 75 224 m 243 710 q 233 690 243 710 q 212 617 223 671 q 200 507 200 563 q 208 404 200 452 q 232 310 216 356 q 272 224 249 264 q 328 149 295 183 q 398 90 360 115 q 583 38 478 38 q 741 80 668 38 q 860 210 814 123 q 907 428 907 299 q 787 768 907 635 q 621 875 719 845 q 537 889 575 889 q 470 883 499 889 q 408 864 440 878 q 346 831 375 851 q 289 780 316 811 q 243 710 262 749 z "},"":{"ha":1108,"x_min":75,"x_max":1033,"o":"m 385 1046 q 387 1054 386 1049 q 392 1074 388 1059 q 401 1103 396 1089 q 416 1134 407 1117 q 435 1163 425 1151 q 489 1192 459 1192 q 550 1175 519 1192 l 592 1153 q 635 1139 619 1139 q 663 1145 652 1139 q 682 1161 675 1152 q 706 1201 698 1180 l 725 1196 q 674 1089 713 1129 q 624 1065 650 1065 q 570 1078 598 1065 l 527 1099 q 477 1112 499 1112 q 443 1105 455 1112 q 425 1087 432 1097 q 404 1040 410 1063 l 385 1046 m 75 468 q 94 604 75 534 q 146 727 113 674 q 226 823 180 781 q 325 891 271 865 q 557 946 435 946 q 845 857 717 946 q 1019 591 980 763 q 1033 470 1033 530 q 1024 360 1033 410 q 994 261 1014 309 q 944 170 974 213 q 875 92 915 128 q 785 32 834 57 q 546 -22 682 -22 q 228 90 356 -22 q 75 468 75 224 m 243 710 q 233 690 243 710 q 212 617 223 671 q 200 507 200 563 q 208 404 200 452 q 232 310 216 356 q 272 224 249 264 q 328 149 295 183 q 398 90 360 115 q 583 38 478 38 q 741 80 668 38 q 860 210 814 123 q 907 428 907 299 q 787 768 907 635 q 621 875 719 845 q 537 889 575 889 q 470 883 499 889 q 408 864 440 878 q 346 831 375 851 q 289 780 316 811 q 243 710 262 749 z "},"":{"ha":1108,"x_min":75,"x_max":1033,"o":"m 75 468 q 94 604 75 534 q 146 727 113 674 q 226 823 180 781 q 325 891 271 865 q 557 946 435 946 q 845 857 717 946 q 1019 591 980 763 q 1033 470 1033 530 q 1024 360 1033 410 q 994 261 1014 309 q 944 170 974 213 q 875 92 915 128 q 785 32 834 57 q 546 -22 682 -22 q 228 90 356 -22 q 75 468 75 224 m 243 710 q 233 690 243 710 q 212 617 223 671 q 200 507 200 563 q 208 404 200 452 q 232 310 216 356 q 272 224 249 264 q 328 149 295 183 q 398 90 360 115 q 583 38 478 38 q 741 80 668 38 q 860 210 814 123 q 907 428 907 299 q 787 768 907 635 q 621 875 719 845 q 537 889 575 889 q 470 883 499 889 q 408 864 440 878 q 346 831 375 851 q 289 780 316 811 q 243 710 262 749 m 448 1064 q 441 1064 448 1064 q 412 1086 435 1064 q 390 1124 390 1109 q 415 1162 390 1140 q 454 1184 440 1184 q 488 1160 469 1184 q 508 1121 508 1136 q 485 1085 508 1106 q 448 1064 461 1064 m 653 1064 q 646 1064 653 1064 q 617 1086 639 1064 q 595 1124 595 1109 q 619 1162 595 1140 q 657 1184 643 1184 q 692 1160 672 1184 q 713 1121 713 1135 q 689 1085 713 1106 q 653 1064 666 1064 z "},"":{"ha":818,"x_min":83,"x_max":735,"o":"m 83 58 q 345 314 300 275 l 360 327 q 83 594 342 335 l 142 651 q 408 375 379 414 q 676 651 430 405 l 735 594 q 473 339 515 374 l 458 327 q 735 58 488 305 l 676 1 q 421 262 466 212 l 408 278 q 142 1 379 238 l 83 58 z "},"":{"ha":1108,"x_min":75,"x_max":1033,"o":"m 166 158 q 143 191 166 158 q 97 299 119 224 q 75 454 75 373 q 94 604 75 534 q 146 727 113 674 q 226 823 180 781 q 325 891 271 865 q 552 946 435 946 q 771 899 668 946 l 828 996 l 885 963 l 829 868 q 1018 596 976 771 q 1033 472 1033 533 q 1024 360 1033 410 q 994 261 1014 309 q 944 170 974 213 q 875 92 915 128 q 785 32 834 57 q 556 -22 682 -22 q 339 19 431 -22 l 247 -140 l 190 -107 l 280 50 q 166 158 213 93 m 200 481 q 235 304 200 399 q 335 143 270 209 l 726 824 q 528 889 636 889 q 346 831 431 889 q 200 481 200 733 m 386 99 q 583 38 476 38 q 741 80 668 38 q 860 210 814 123 q 907 419 907 299 q 779 779 907 647 l 386 99 z "},"":{"ha":1001,"x_min":38,"x_max":964,"o":"m 386 1207 l 483 1207 l 555 1009 l 506 1009 l 386 1207 m 38 871 l 38 926 l 371 926 l 372 871 l 319 871 q 261 861 278 871 q 244 820 244 852 l 244 306 q 305 140 244 209 q 535 56 379 56 q 768 130 709 56 q 801 178 790 156 q 817 238 811 200 q 825 371 825 290 l 825 821 q 809 864 825 853 q 749 871 798 871 l 700 871 l 703 926 l 964 926 l 964 871 l 944 871 q 911 867 921 871 q 890 810 890 860 l 890 317 q 730 11 890 86 q 535 -25 653 -25 q 157 161 235 -25 q 132 299 132 222 l 132 821 q 122 862 132 856 q 75 871 110 871 l 38 871 z "},"":{"ha":1001,"x_min":38,"x_max":964,"o":"m 493 1009 l 565 1207 l 663 1207 l 543 1009 l 493 1009 m 38 871 l 38 926 l 371 926 l 372 871 l 319 871 q 261 861 278 871 q 244 820 244 852 l 244 306 q 305 140 244 209 q 535 56 379 56 q 768 130 709 56 q 801 178 790 156 q 817 238 811 200 q 825 371 825 290 l 825 821 q 809 864 825 853 q 749 871 798 871 l 700 871 l 703 926 l 964 926 l 964 871 l 944 871 q 911 867 921 871 q 890 810 890 860 l 890 317 q 730 11 890 86 q 535 -25 653 -25 q 157 161 235 -25 q 132 299 132 222 l 132 821 q 122 862 132 856 q 75 871 110 871 l 38 871 z "},"":{"ha":1001,"x_min":38,"x_max":964,"o":"m 521 1136 l 436 1036 l 383 1036 q 494 1201 427 1097 l 576 1201 q 688 1036 626 1123 l 607 1036 q 560 1090 588 1057 q 521 1136 532 1123 m 38 871 l 38 926 l 371 926 l 372 871 l 319 871 q 261 861 278 871 q 244 820 244 852 l 244 306 q 305 140 244 209 q 535 56 379 56 q 768 130 709 56 q 801 178 790 156 q 817 238 811 200 q 825 371 825 290 l 825 821 q 809 864 825 853 q 749 871 798 871 l 700 871 l 703 926 l 964 926 l 964 871 l 944 871 q 911 867 921 871 q 890 810 890 860 l 890 317 q 730 11 890 86 q 535 -25 653 -25 q 157 161 235 -25 q 132 299 132 222 l 132 821 q 122 862 132 856 q 75 871 110 871 l 38 871 z "},"":{"ha":1001,"x_min":38,"x_max":964,"o":"m 38 871 l 38 926 l 371 926 l 372 871 l 319 871 q 261 861 278 871 q 244 820 244 852 l 244 306 q 305 140 244 209 q 535 56 379 56 q 768 130 709 56 q 801 178 790 156 q 817 238 811 200 q 825 371 825 290 l 825 821 q 809 864 825 853 q 749 871 798 871 l 700 871 l 703 926 l 964 926 l 964 871 l 944 871 q 911 867 921 871 q 890 810 890 860 l 890 317 q 730 11 890 86 q 535 -25 653 -25 q 157 161 235 -25 q 132 299 132 222 l 132 821 q 122 862 132 856 q 75 871 110 871 l 38 871 m 423 1064 q 416 1064 423 1064 q 387 1086 410 1064 q 365 1124 365 1109 q 390 1162 365 1140 q 429 1184 415 1184 q 463 1160 444 1184 q 483 1121 483 1136 q 460 1085 483 1106 q 423 1064 436 1064 m 627 1064 q 621 1064 627 1064 q 592 1086 614 1064 q 570 1124 570 1109 q 594 1162 570 1140 q 632 1184 618 1184 q 667 1160 647 1184 q 688 1121 688 1135 q 664 1085 688 1106 q 627 1064 641 1064 z "},"":{"ha":915,"x_min":52,"x_max":878,"o":"m 446 1009 l 518 1207 l 615 1207 l 496 1009 l 446 1009 m 52 871 l 53 926 l 364 926 l 364 871 l 336 871 q 280 868 295 871 q 264 853 264 864 q 289 804 264 846 l 488 492 l 730 836 q 739 853 739 850 q 718 868 739 864 q 649 871 697 871 l 626 871 l 625 926 l 878 926 l 878 871 l 871 871 q 826 865 834 871 q 810 853 818 860 q 778 812 799 842 l 507 421 l 507 118 q 510 75 507 81 q 518 64 513 69 q 527 59 522 60 q 542 56 533 58 q 589 54 554 54 l 651 54 l 650 0 l 260 0 l 261 54 l 317 54 q 377 60 368 54 q 388 70 386 66 q 392 81 390 74 q 394 115 394 91 l 394 432 l 167 786 q 123 852 133 839 q 98 868 112 865 q 52 871 85 871 z "},"":{"ha":829,"x_min":38,"x_max":768,"o":"m 38 871 l 39 926 l 388 926 l 388 871 l 343 871 q 294 865 300 871 q 285 851 289 859 q 279 807 279 840 l 279 755 l 365 755 q 547 744 508 755 q 659 689 613 725 q 736 590 704 652 q 768 449 768 528 q 665 250 768 325 q 475 196 591 196 q 291 222 386 196 q 279 225 279 225 l 279 118 q 287 67 279 74 q 303 58 294 61 q 351 54 316 54 l 408 54 l 410 0 l 54 0 l 53 54 l 99 54 q 152 61 145 54 q 163 75 160 67 q 167 115 167 86 l 167 821 q 160 862 167 857 q 144 868 154 866 q 96 871 134 871 l 38 871 m 279 267 q 417 240 314 240 q 579 294 520 240 q 637 451 637 348 q 507 660 637 592 q 321 701 428 701 q 295 697 303 701 q 279 636 279 689 l 279 267 z "},"":{"ha":712,"x_min":24,"x_max":654,"o":"m 24 44 l 38 44 q 92 47 85 44 q 102 52 98 50 q 108 59 106 55 q 111 82 111 68 l 111 478 l 33 478 l 54 545 l 113 545 l 113 694 q 121 799 113 769 q 139 854 129 830 q 163 898 149 878 q 362 1006 239 1006 q 494 945 445 1006 q 540 814 540 886 q 475 703 540 769 q 409 633 426 654 q 372 549 373 590 q 483 379 372 488 l 540 323 q 561 303 545 318 q 583 282 577 288 q 601 262 588 276 q 620 241 614 249 q 633 220 625 234 q 645 196 642 207 q 654 149 654 167 q 652 119 654 131 q 646 91 651 107 q 632 62 641 75 q 610 35 624 48 q 576 12 595 21 q 487 -10 533 -10 q 421 -6 441 -10 q 387 2 400 -2 q 370 5 374 5 q 360 -11 360 5 l 361 -26 l 319 -28 l 294 168 l 339 172 l 353 83 q 479 36 416 36 q 542 66 520 36 q 554 105 554 83 q 451 262 554 167 l 408 304 q 400 312 407 306 q 386 326 392 319 q 366 347 379 333 q 344 377 353 362 q 326 411 335 392 q 307 490 307 450 q 315 556 307 530 q 337 604 324 583 q 367 644 351 625 q 400 680 384 663 q 431 713 417 697 q 461 782 461 748 q 451 847 461 815 q 426 897 441 878 q 391 928 410 915 q 328 950 357 950 q 282 942 299 950 q 252 917 265 934 q 232 878 239 900 q 219 835 224 857 q 212 790 214 813 q 208 728 208 752 l 208 86 q 215 52 208 58 q 244 44 224 44 l 267 44 l 267 0 l 25 0 l 24 44 z "},"":{"ha":528,"x_min":38,"x_max":517,"o":"m 106 875 l 203 875 l 275 650 l 225 650 l 106 875 m 81 345 q 48 394 48 345 q 81 469 48 427 q 292 550 144 550 q 404 489 376 550 q 414 439 414 468 l 414 179 q 437 90 414 116 q 504 53 459 65 q 517 41 517 50 q 499 22 517 33 q 421 -24 425 -23 q 376 15 390 -2 q 328 74 358 35 q 255 10 300 36 q 176 -15 210 -15 q 120 -9 142 -15 q 80 9 99 -3 q 38 91 38 36 q 74 195 38 146 q 175 273 111 244 q 317 303 240 303 l 317 386 q 293 466 317 446 q 233 485 271 485 q 175 480 196 485 q 142 470 153 476 q 111 442 118 456 q 117 419 113 433 q 125 378 125 390 q 109 355 125 366 q 81 345 92 345 m 135 127 q 155 80 135 99 q 208 60 175 60 q 260 65 241 60 q 288 78 278 70 q 306 96 299 85 q 317 136 317 114 l 317 265 q 182 221 233 265 q 135 127 135 179 z "},"":{"ha":528,"x_min":38,"x_max":517,"o":"m 213 650 l 285 875 l 382 875 l 263 650 l 213 650 m 81 345 q 48 394 48 345 q 81 469 48 427 q 292 550 144 550 q 404 489 376 550 q 414 439 414 468 l 414 179 q 437 90 414 116 q 504 53 459 65 q 517 41 517 50 q 499 22 517 33 q 421 -24 425 -23 q 376 15 390 -2 q 328 74 358 35 q 255 10 300 36 q 176 -15 210 -15 q 120 -9 142 -15 q 80 9 99 -3 q 38 91 38 36 q 74 195 38 146 q 175 273 111 244 q 317 303 240 303 l 317 386 q 293 466 317 446 q 233 485 271 485 q 175 480 196 485 q 142 470 153 476 q 111 442 118 456 q 117 419 113 433 q 125 378 125 390 q 109 355 125 366 q 81 345 92 345 m 135 127 q 155 80 135 99 q 208 60 175 60 q 260 65 241 60 q 288 78 278 70 q 306 96 299 85 q 317 136 317 114 l 317 265 q 182 221 233 265 q 135 127 135 179 z "},"":{"ha":528,"x_min":38,"x_max":517,"o":"m 103 650 q 214 840 141 710 l 296 840 q 318 801 302 829 q 341 759 333 772 q 361 723 349 745 q 407 650 384 683 l 327 650 q 278 718 306 673 q 240 775 250 762 q 214 733 231 761 q 156 650 176 674 l 103 650 m 81 345 q 48 394 48 345 q 81 469 48 427 q 292 550 144 550 q 404 489 376 550 q 414 439 414 468 l 414 179 q 437 90 414 116 q 504 53 459 65 q 517 41 517 50 q 499 22 517 33 q 421 -24 425 -23 q 376 15 390 -2 q 328 74 358 35 q 255 10 300 36 q 176 -15 210 -15 q 120 -9 142 -15 q 80 9 99 -3 q 38 91 38 36 q 74 195 38 146 q 175 273 111 244 q 317 303 240 303 l 317 386 q 293 466 317 446 q 233 485 271 485 q 175 480 196 485 q 142 470 153 476 q 111 442 118 456 q 117 419 113 433 q 125 378 125 390 q 109 355 125 366 q 81 345 92 345 m 135 127 q 155 80 135 99 q 208 60 175 60 q 260 65 241 60 q 288 78 278 70 q 306 96 299 85 q 317 136 317 114 l 317 265 q 182 221 233 265 q 135 127 135 179 z "},"":{"ha":528,"x_min":38,"x_max":517,"o":"m 77 671 q 78 679 77 674 q 84 699 79 684 q 93 728 88 714 q 107 759 98 742 q 126 788 116 776 q 182 817 151 817 q 242 801 214 817 l 283 779 q 326 765 311 765 q 354 772 342 765 q 373 787 365 778 q 396 826 389 806 l 417 822 q 366 716 405 756 q 313 692 342 692 q 260 703 285 692 l 217 725 q 166 739 188 739 q 133 731 145 739 q 115 713 122 724 q 96 667 101 690 l 77 671 m 81 345 q 48 394 48 345 q 81 469 48 427 q 292 550 144 550 q 404 489 376 550 q 414 439 414 468 l 414 179 q 437 90 414 116 q 504 53 459 65 q 517 41 517 50 q 499 22 517 33 q 421 -24 425 -23 q 376 15 390 -2 q 328 74 358 35 q 255 10 300 36 q 176 -15 210 -15 q 120 -9 142 -15 q 80 9 99 -3 q 38 91 38 36 q 74 195 38 146 q 175 273 111 244 q 317 303 240 303 l 317 386 q 293 466 317 446 q 233 485 271 485 q 175 480 196 485 q 142 470 153 476 q 111 442 118 456 q 117 419 113 433 q 125 378 125 390 q 109 355 125 366 q 81 345 92 345 m 135 127 q 155 80 135 99 q 208 60 175 60 q 260 65 241 60 q 288 78 278 70 q 306 96 299 85 q 317 136 317 114 l 317 265 q 182 221 233 265 q 135 127 135 179 z "},"":{"ha":528,"x_min":38,"x_max":517,"o":"m 81 345 q 48 394 48 345 q 81 469 48 427 q 292 550 144 550 q 404 489 376 550 q 414 439 414 468 l 414 179 q 437 90 414 116 q 504 53 459 65 q 517 41 517 50 q 499 22 517 33 q 421 -24 425 -23 q 376 15 390 -2 q 328 74 358 35 q 255 10 300 36 q 176 -15 210 -15 q 120 -9 142 -15 q 80 9 99 -3 q 38 91 38 36 q 74 195 38 146 q 175 273 111 244 q 317 303 240 303 l 317 386 q 293 466 317 446 q 233 485 271 485 q 175 480 196 485 q 142 470 153 476 q 111 442 118 456 q 117 419 113 433 q 125 378 125 390 q 109 355 125 366 q 81 345 92 345 m 135 127 q 155 80 135 99 q 208 60 175 60 q 260 65 241 60 q 288 78 278 70 q 306 96 299 85 q 317 136 317 114 l 317 265 q 182 221 233 265 q 135 127 135 179 m 349 700 q 343 700 349 700 q 314 723 336 700 q 292 761 292 746 q 317 799 292 776 q 356 821 341 821 q 390 796 370 821 q 410 757 410 772 q 386 721 410 742 q 349 700 363 700 m 147 700 q 140 700 147 700 q 111 723 134 700 q 89 761 89 745 q 113 798 89 776 q 152 821 138 821 q 187 796 166 821 q 207 757 207 771 q 184 721 207 742 q 147 700 160 700 z "},"":{"ha":528,"x_min":38,"x_max":517,"o":"m 256 647 q 234 647 256 647 q 176 677 212 647 q 140 741 140 706 q 156 802 140 775 q 198 847 172 829 q 261 865 225 865 q 331 831 297 865 q 366 754 366 797 q 333 679 366 711 q 256 647 301 647 m 199 791 q 196 785 199 791 q 190 769 193 779 q 188 740 188 758 q 206 705 188 721 q 253 689 225 689 q 317 754 317 689 q 274 818 317 805 q 249 821 263 821 q 220 812 234 821 q 199 791 205 804 m 81 345 q 48 394 48 345 q 81 469 48 427 q 292 550 144 550 q 404 489 376 550 q 414 439 414 468 l 414 179 q 437 90 414 116 q 504 53 459 65 q 517 41 517 50 q 499 22 517 33 q 421 -24 425 -23 q 376 15 390 -2 q 328 74 358 35 q 255 10 300 36 q 176 -15 210 -15 q 120 -9 142 -15 q 80 9 99 -3 q 38 91 38 36 q 74 195 38 146 q 175 273 111 244 q 317 303 240 303 l 317 386 q 293 466 317 446 q 233 485 271 485 q 175 480 196 485 q 142 470 153 476 q 111 442 118 456 q 117 419 113 433 q 125 378 125 390 q 109 355 125 366 q 81 345 92 345 m 135 127 q 155 80 135 99 q 208 60 175 60 q 260 65 241 60 q 288 78 278 70 q 306 96 299 85 q 317 136 317 114 l 317 265 q 182 221 233 265 q 135 127 135 179 z "},"":{"ha":882,"x_min":44,"x_max":849,"o":"m 113 345 q 81 394 81 345 q 105 460 81 429 q 154 510 130 492 q 289 551 208 551 q 419 453 393 551 q 426 426 425 430 q 491 517 444 479 q 583 554 539 554 q 659 545 627 554 q 714 521 690 536 q 758 487 738 506 q 791 448 778 468 q 818 386 818 406 q 810 361 818 367 q 796 356 802 356 l 451 317 l 451 294 q 573 91 451 139 q 651 76 610 76 q 725 85 692 76 q 778 105 759 95 q 836 135 828 135 q 849 122 849 135 q 837 94 849 110 q 803 59 826 78 q 752 22 781 39 q 608 -18 683 -18 q 479 18 532 -18 q 397 110 426 55 q 245 -15 348 12 q 189 -22 216 -22 q 138 -16 162 -22 q 93 2 114 -10 q 44 79 44 30 q 72 170 44 129 q 144 240 99 212 q 361 303 241 303 l 362 350 q 355 426 362 408 q 339 454 347 444 q 320 471 331 465 q 262 485 295 485 q 207 480 229 485 q 174 470 185 476 q 143 442 150 456 q 149 419 145 434 q 156 379 156 392 q 140 355 156 366 q 113 345 124 345 m 146 117 q 167 73 146 90 q 215 57 188 57 q 263 62 241 57 q 302 74 286 66 q 332 90 318 81 q 356 107 346 99 q 385 140 376 126 q 362 265 365 218 q 211 217 278 265 q 146 117 146 170 m 457 367 l 689 393 q 610 500 665 477 q 578 507 594 507 q 502 470 535 507 q 457 367 468 433 z "},"":{"ha":559,"x_min":33,"x_max":525,"o":"m 278 -92 l 301 -90 q 399 -108 364 -90 q 461 -196 461 -139 q 366 -298 461 -273 q 310 -306 339 -306 q 221 -288 253 -306 l 250 -254 q 320 -268 292 -268 q 367 -250 349 -268 q 385 -206 385 -232 q 376 -167 385 -180 q 351 -146 366 -153 q 292 -132 320 -132 q 254 -133 264 -132 l 237 -110 l 268 -17 q 47 147 92 -6 q 33 247 33 196 q 43 342 33 298 q 75 425 54 386 q 126 493 96 464 q 289 557 191 557 q 486 488 415 557 q 502 464 502 474 q 490 447 502 455 q 463 433 478 438 q 418 424 431 424 q 390 431 405 424 q 361 451 375 439 q 332 474 347 463 q 264 502 295 502 q 210 486 234 502 q 172 448 186 471 q 148 395 157 425 q 132 290 132 343 q 145 198 132 237 q 179 135 158 159 q 227 95 199 111 q 327 65 276 65 q 413 71 378 65 q 464 82 448 76 q 495 93 481 88 q 514 99 508 99 q 525 87 525 99 q 505 58 525 75 q 456 24 486 41 q 300 -18 382 -16 l 278 -92 z "},"":{"ha":573,"x_min":33,"x_max":540,"o":"m 140 875 l 237 875 l 310 650 l 260 650 l 140 875 m 139 314 l 138 294 q 262 91 138 139 q 336 76 299 76 q 402 83 374 76 q 449 100 430 90 q 484 119 468 109 q 528 142 521 142 q 540 129 540 142 q 529 100 540 117 q 494 63 517 83 q 441 25 471 43 q 288 -18 372 -18 q 105 56 173 -18 q 33 254 33 134 q 104 472 33 388 q 279 554 174 554 q 472 460 396 554 q 510 376 510 412 q 502 361 510 367 q 488 356 494 356 l 139 314 m 142 362 l 380 393 q 352 449 372 424 q 321 485 332 475 q 259 507 295 507 q 188 468 222 507 q 142 362 153 429 z "},"":{"ha":573,"x_min":33,"x_max":540,"o":"m 247 650 l 319 875 l 417 875 l 297 650 l 247 650 m 139 314 l 138 294 q 262 91 138 139 q 336 76 299 76 q 402 83 374 76 q 449 100 430 90 q 484 119 468 109 q 528 142 521 142 q 540 129 540 142 q 529 100 540 117 q 494 63 517 83 q 441 25 471 43 q 288 -18 372 -18 q 105 56 173 -18 q 33 254 33 134 q 104 472 33 388 q 279 554 174 554 q 472 460 396 554 q 510 376 510 412 q 502 361 510 367 q 488 356 494 356 l 139 314 m 142 362 l 380 393 q 352 449 372 424 q 321 485 332 475 q 259 507 295 507 q 188 468 222 507 q 142 362 153 429 z "},"":{"ha":573,"x_min":33,"x_max":540,"o":"m 137 650 q 249 840 176 710 l 331 840 q 352 801 337 829 q 376 759 368 772 q 396 723 383 745 q 442 650 419 683 l 361 650 q 312 718 340 673 q 275 775 284 762 q 248 733 265 761 q 190 650 211 674 l 137 650 m 139 314 l 138 294 q 262 91 138 139 q 336 76 299 76 q 402 83 374 76 q 449 100 430 90 q 484 119 468 109 q 528 142 521 142 q 540 129 540 142 q 529 100 540 117 q 494 63 517 83 q 441 25 471 43 q 288 -18 372 -18 q 105 56 173 -18 q 33 254 33 134 q 104 472 33 388 q 279 554 174 554 q 472 460 396 554 q 510 376 510 412 q 502 361 510 367 q 488 356 494 356 l 139 314 m 142 362 l 380 393 q 352 449 372 424 q 321 485 332 475 q 259 507 295 507 q 188 468 222 507 q 142 362 153 429 z "},"":{"ha":573,"x_min":33,"x_max":540,"o":"m 139 314 l 138 294 q 262 91 138 139 q 336 76 299 76 q 402 83 374 76 q 449 100 430 90 q 484 119 468 109 q 528 142 521 142 q 540 129 540 142 q 529 100 540 117 q 494 63 517 83 q 441 25 471 43 q 288 -18 372 -18 q 105 56 173 -18 q 33 254 33 134 q 104 472 33 388 q 279 554 174 554 q 472 460 396 554 q 510 376 510 412 q 502 361 510 367 q 488 356 494 356 l 139 314 m 142 362 l 380 393 q 352 449 372 424 q 321 485 332 475 q 259 507 295 507 q 188 468 222 507 q 142 362 153 429 m 384 700 q 377 700 384 700 q 349 723 371 700 q 327 761 327 746 q 351 799 327 776 q 390 821 376 821 q 425 796 405 821 q 445 757 445 772 q 421 721 445 742 q 384 700 397 700 m 182 700 q 175 700 182 700 q 146 723 168 700 q 124 761 124 745 q 148 798 124 776 q 186 821 172 821 q 221 796 201 821 q 242 757 242 771 q 218 721 242 742 q 182 700 195 700 z "},"":{"ha":368,"x_min":36,"x_max":345,"o":"m 36 875 l 133 875 l 205 650 l 156 650 l 36 875 m 38 522 q 233 564 141 539 l 233 82 q 245 51 233 56 q 319 44 261 44 l 345 44 l 345 0 l 43 0 l 43 44 l 56 44 q 125 50 119 44 q 136 76 136 60 l 136 447 q 132 483 136 474 q 112 492 127 492 q 39 480 96 492 l 38 522 z "},"":{"ha":368,"x_min":38,"x_max":345,"o":"m 143 650 l 215 875 l 313 875 l 193 650 l 143 650 m 38 522 q 233 564 141 539 l 233 82 q 245 51 233 56 q 319 44 261 44 l 345 44 l 345 0 l 43 0 l 43 44 l 56 44 q 125 50 119 44 q 136 76 136 60 l 136 447 q 132 483 136 474 q 112 492 127 492 q 39 480 96 492 l 38 522 z "},"":{"ha":368,"x_min":33,"x_max":345,"o":"m 33 650 q 144 840 72 710 l 227 840 q 248 801 233 829 q 271 759 264 772 q 292 723 279 745 q 338 650 315 683 l 257 650 q 208 718 236 673 q 171 775 180 762 q 144 733 161 761 q 86 650 106 674 l 33 650 m 38 522 q 233 564 141 539 l 233 82 q 245 51 233 56 q 319 44 261 44 l 345 44 l 345 0 l 43 0 l 43 44 l 56 44 q 125 50 119 44 q 136 76 136 60 l 136 447 q 132 483 136 474 q 112 492 127 492 q 39 480 96 492 l 38 522 z "},"":{"ha":368,"x_min":34,"x_max":345,"o":"m 38 522 q 233 564 141 539 l 233 82 q 245 51 233 56 q 319 44 261 44 l 345 44 l 345 0 l 43 0 l 43 44 l 56 44 q 125 50 119 44 q 136 76 136 60 l 136 447 q 132 483 136 474 q 112 492 127 492 q 39 480 96 492 l 38 522 m 268 700 q 261 700 268 700 q 232 723 254 700 q 210 761 210 745 q 234 798 210 776 q 273 821 258 821 q 307 796 287 821 q 328 757 328 771 q 304 721 328 742 q 268 700 281 700 m 91 700 q 85 700 91 700 q 56 723 78 700 q 34 761 34 745 q 58 798 34 776 q 96 821 82 821 q 131 796 111 821 q 152 757 152 771 q 128 721 152 742 q 91 700 105 700 z "},"":{"ha":639,"x_min":35,"x_max":604,"o":"m 432 804 q 604 297 604 568 q 531 73 604 160 q 332 -21 452 -21 q 81 103 162 -21 q 35 265 35 173 q 132 492 35 407 q 300 551 199 551 q 434 517 375 551 q 457 503 442 512 q 478 490 473 493 q 439 627 467 570 q 371 755 393 723 l 361 771 q 320 751 344 762 q 281 732 295 739 q 205 693 250 717 l 157 744 l 319 821 q 124 996 253 915 l 221 996 q 323 922 276 965 q 390 853 369 878 q 531 914 517 910 l 581 868 q 483 828 527 849 q 432 804 439 807 m 225 474 q 206 459 225 474 q 166 393 187 443 q 146 294 146 342 q 154 210 146 246 q 181 143 163 174 q 222 87 198 111 q 349 36 273 36 q 499 214 474 36 q 504 286 504 253 q 494 399 504 339 l 490 418 q 480 427 487 421 q 454 448 474 433 q 414 475 434 464 q 312 506 361 506 q 225 474 263 506 z "},"":{"ha":643,"x_min":24,"x_max":620,"o":"m 156 671 q 157 679 156 674 q 163 699 158 684 q 172 728 167 714 q 186 759 177 742 q 205 788 195 776 q 261 817 230 817 q 321 801 293 817 l 362 779 q 405 765 390 765 q 433 772 421 765 q 452 787 444 778 q 475 826 468 806 l 496 822 q 445 716 484 756 q 392 692 421 692 q 339 703 364 692 l 296 725 q 245 739 267 739 q 212 731 224 739 q 194 713 201 724 q 175 667 180 690 l 156 671 m 437 365 q 416 447 437 423 q 341 471 395 471 q 197 426 287 471 l 197 77 q 205 54 197 60 q 217 48 212 48 q 232 46 222 47 q 280 44 245 44 l 299 44 l 296 0 l 25 0 l 24 44 q 54 44 41 44 q 74 46 66 44 q 85 47 81 47 q 92 52 89 48 q 97 57 96 55 q 99 66 98 59 q 100 77 100 72 l 100 422 q 96 479 100 467 q 79 492 93 492 q 26 480 75 492 l 26 524 l 197 558 q 193 460 193 505 q 212 473 198 462 q 245 495 227 483 q 287 520 263 508 q 386 549 341 549 q 451 542 430 549 q 486 524 472 534 q 509 495 500 514 q 524 460 519 475 q 532 417 529 444 q 535 325 535 382 l 535 86 q 550 51 535 57 q 620 44 566 44 l 618 0 l 360 0 l 358 44 l 390 44 q 431 52 427 44 q 437 86 437 64 l 437 365 z "},"":{"ha":636,"x_min":35,"x_max":602,"o":"m 171 875 l 268 875 l 340 650 l 290 650 l 171 875 m 35 272 q 45 356 35 315 q 77 434 55 397 q 130 498 99 471 q 310 557 199 557 q 522 477 446 557 q 602 256 602 394 q 524 59 602 137 q 313 -21 445 -21 q 79 107 156 -21 q 35 272 35 180 m 146 310 q 154 227 146 266 q 178 153 162 188 q 216 92 194 119 q 268 49 238 65 q 331 33 297 33 q 390 46 364 33 q 434 80 417 58 q 463 130 452 101 q 485 253 485 184 q 470 369 485 321 q 429 448 455 418 q 297 510 375 510 q 191 458 235 510 q 146 310 146 404 z "},"":{"ha":636,"x_min":35,"x_max":602,"o":"m 278 650 l 350 875 l 447 875 l 328 650 l 278 650 m 35 272 q 45 356 35 315 q 77 434 55 397 q 130 498 99 471 q 310 557 199 557 q 522 477 446 557 q 602 256 602 394 q 524 59 602 137 q 313 -21 445 -21 q 79 107 156 -21 q 35 272 35 180 m 146 310 q 154 227 146 266 q 178 153 162 188 q 216 92 194 119 q 268 49 238 65 q 331 33 297 33 q 390 46 364 33 q 434 80 417 58 q 463 130 452 101 q 485 253 485 184 q 470 369 485 321 q 429 448 455 418 q 297 510 375 510 q 191 458 235 510 q 146 310 146 404 z "},"":{"ha":636,"x_min":35,"x_max":602,"o":"m 168 650 q 279 840 207 710 l 361 840 q 383 801 367 829 q 406 759 398 772 q 427 723 414 745 q 472 650 449 683 l 392 650 q 343 718 371 673 q 306 775 315 762 q 279 733 296 761 q 221 650 241 674 l 168 650 m 35 272 q 45 356 35 315 q 77 434 55 397 q 130 498 99 471 q 310 557 199 557 q 522 477 446 557 q 602 256 602 394 q 524 59 602 137 q 313 -21 445 -21 q 79 107 156 -21 q 35 272 35 180 m 146 310 q 154 227 146 266 q 178 153 162 188 q 216 92 194 119 q 268 49 238 65 q 331 33 297 33 q 390 46 364 33 q 434 80 417 58 q 463 130 452 101 q 485 253 485 184 q 470 369 485 321 q 429 448 455 418 q 297 510 375 510 q 191 458 235 510 q 146 310 146 404 z "},"":{"ha":636,"x_min":35,"x_max":602,"o":"m 142 671 q 143 679 142 674 q 149 699 144 684 q 158 728 153 714 q 172 759 163 742 q 192 788 181 776 q 247 817 216 817 q 307 801 279 817 l 349 779 q 391 765 376 765 q 419 772 407 765 q 438 787 430 778 q 461 826 454 806 l 482 822 q 431 716 470 756 q 379 692 407 692 q 325 703 350 692 l 282 725 q 232 739 253 739 q 199 731 210 739 q 180 713 187 724 q 161 667 166 690 l 142 671 m 35 272 q 45 356 35 315 q 77 434 55 397 q 130 498 99 471 q 310 557 199 557 q 522 477 446 557 q 602 256 602 394 q 524 59 602 137 q 313 -21 445 -21 q 79 107 156 -21 q 35 272 35 180 m 146 310 q 154 227 146 266 q 178 153 162 188 q 216 92 194 119 q 268 49 238 65 q 331 33 297 33 q 390 46 364 33 q 434 80 417 58 q 463 130 452 101 q 485 253 485 184 q 470 369 485 321 q 429 448 455 418 q 297 510 375 510 q 191 458 235 510 q 146 310 146 404 z "},"":{"ha":636,"x_min":35,"x_max":602,"o":"m 35 272 q 45 356 35 315 q 77 434 55 397 q 130 498 99 471 q 310 557 199 557 q 522 477 446 557 q 602 256 602 394 q 524 59 602 137 q 313 -21 445 -21 q 79 107 156 -21 q 35 272 35 180 m 146 310 q 154 227 146 266 q 178 153 162 188 q 216 92 194 119 q 268 49 238 65 q 331 33 297 33 q 390 46 364 33 q 434 80 417 58 q 463 130 452 101 q 485 253 485 184 q 470 369 485 321 q 429 448 455 418 q 297 510 375 510 q 191 458 235 510 q 146 310 146 404 m 415 700 q 408 700 415 700 q 379 723 401 700 q 357 761 357 746 q 382 799 357 776 q 421 821 407 821 q 455 796 435 821 q 475 757 475 772 q 451 721 475 742 q 415 700 428 700 m 212 700 q 205 700 212 700 q 176 723 199 700 q 154 761 154 745 q 179 798 154 776 q 217 821 203 821 q 252 796 231 821 q 272 757 272 771 q 249 721 272 742 q 212 700 225 700 z "},"":{"ha":1005,"x_min":97,"x_max":908,"o":"m 443 50 q 431 62 443 50 q 418 108 418 74 q 443 168 418 142 q 503 193 469 193 q 562 168 537 193 q 586 108 586 143 q 562 50 586 74 q 503 25 537 25 q 443 50 468 25 m 443 485 q 431 498 443 485 q 418 545 418 510 q 443 603 418 579 q 503 628 468 628 q 562 603 537 628 q 586 544 586 579 q 562 485 586 510 q 503 460 537 460 q 443 485 469 460 m 97 286 l 97 367 l 908 367 l 908 286 l 97 286 z "},"":{"ha":634,"x_min":33,"x_max":600,"o":"m 147 29 q 63 135 92 71 q 33 258 33 200 q 43 356 33 315 q 75 434 54 397 q 129 498 97 471 q 308 557 198 557 q 439 533 384 557 l 468 583 l 506 561 l 478 512 q 594 323 570 452 q 600 244 600 290 q 579 147 600 197 q 522 59 559 96 q 311 -21 443 -21 q 186 7 243 -21 l 138 -78 l 99 -57 l 147 29 m 197 115 l 403 471 q 296 510 358 510 q 190 458 233 510 q 144 301 144 404 q 197 115 144 199 m 228 79 q 329 33 274 33 q 462 130 423 33 q 483 260 483 184 q 435 437 483 371 l 228 79 z "},"":{"ha":642,"x_min":24,"x_max":618,"o":"m 168 875 l 265 875 l 337 650 l 288 650 l 168 875 m 70 500 l 24 496 l 24 537 q 193 558 131 547 l 193 211 q 222 93 193 122 q 308 65 250 65 q 433 118 394 65 l 433 457 q 427 491 433 483 q 409 498 421 498 q 382 497 397 498 q 345 492 347 494 l 340 535 q 531 558 418 540 l 531 154 q 537 54 531 62 q 555 44 545 44 q 618 60 566 44 l 618 15 q 516 -10 569 5 q 447 -29 463 -25 q 437 70 445 20 q 315 -11 386 13 q 258 -21 286 -21 q 207 -14 231 -21 q 166 3 183 -8 q 137 30 150 14 q 117 64 124 46 q 104 104 109 81 q 96 192 96 142 l 96 465 q 90 493 96 486 q 70 500 84 500 z "},"":{"ha":642,"x_min":24,"x_max":618,"o":"m 275 650 l 347 875 l 445 875 l 325 650 l 275 650 m 70 500 l 24 496 l 24 537 q 193 558 131 547 l 193 211 q 222 93 193 122 q 308 65 250 65 q 433 118 394 65 l 433 457 q 427 491 433 483 q 409 498 421 498 q 382 497 397 498 q 345 492 347 494 l 340 535 q 531 558 418 540 l 531 154 q 537 54 531 62 q 555 44 545 44 q 618 60 566 44 l 618 15 q 516 -10 569 5 q 447 -29 463 -25 q 437 70 445 20 q 315 -11 386 13 q 258 -21 286 -21 q 207 -14 231 -21 q 166 3 183 -8 q 137 30 150 14 q 117 64 124 46 q 104 104 109 81 q 96 192 96 142 l 96 465 q 90 493 96 486 q 70 500 84 500 z "},"":{"ha":642,"x_min":24,"x_max":618,"o":"m 165 650 q 276 840 204 710 l 358 840 q 380 801 365 829 q 403 759 396 772 q 424 723 411 745 q 470 650 447 683 l 389 650 q 340 718 368 673 q 303 775 312 762 q 276 733 293 761 q 218 650 238 674 l 165 650 m 70 500 l 24 496 l 24 537 q 193 558 131 547 l 193 211 q 222 93 193 122 q 308 65 250 65 q 433 118 394 65 l 433 457 q 427 491 433 483 q 409 498 421 498 q 382 497 397 498 q 345 492 347 494 l 340 535 q 531 558 418 540 l 531 154 q 537 54 531 62 q 555 44 545 44 q 618 60 566 44 l 618 15 q 516 -10 569 5 q 447 -29 463 -25 q 437 70 445 20 q 315 -11 386 13 q 258 -21 286 -21 q 207 -14 231 -21 q 166 3 183 -8 q 137 30 150 14 q 117 64 124 46 q 104 104 109 81 q 96 192 96 142 l 96 465 q 90 493 96 486 q 70 500 84 500 z "},"":{"ha":642,"x_min":24,"x_max":618,"o":"m 70 500 l 24 496 l 24 537 q 193 558 131 547 l 193 211 q 222 93 193 122 q 308 65 250 65 q 433 118 394 65 l 433 457 q 427 491 433 483 q 409 498 421 498 q 382 497 397 498 q 345 492 347 494 l 340 535 q 531 558 418 540 l 531 154 q 537 54 531 62 q 555 44 545 44 q 618 60 566 44 l 618 15 q 516 -10 569 5 q 447 -29 463 -25 q 437 70 445 20 q 315 -11 386 13 q 258 -21 286 -21 q 207 -14 231 -21 q 166 3 183 -8 q 137 30 150 14 q 117 64 124 46 q 104 104 109 81 q 96 192 96 142 l 96 465 q 90 493 96 486 q 70 500 84 500 m 412 700 q 405 700 412 700 q 376 723 398 700 q 354 761 354 746 q 379 799 354 776 q 418 821 404 821 q 453 796 433 821 q 472 757 472 772 q 449 721 472 742 q 412 700 425 700 m 209 700 q 203 700 209 700 q 174 723 196 700 q 152 761 152 745 q 176 798 152 776 q 214 821 200 821 q 249 796 229 821 q 270 757 270 771 q 246 721 270 742 q 209 700 223 700 z "},"":{"ha":651,"x_min":10,"x_max":628,"o":"m 300 650 l 372 875 l 470 875 l 350 650 l 300 650 m 62 -239 l 103 -242 q 160 -194 125 -242 q 256 -29 195 -147 l 297 52 l 124 425 q 114 446 120 433 q 106 464 108 459 q 100 476 105 468 q 93 486 95 484 q 86 492 92 488 q 76 497 80 496 q 64 499 73 497 q 47 500 55 500 l 26 500 l 24 545 l 289 545 l 286 500 l 262 500 q 225 497 236 500 q 214 485 214 493 q 216 469 214 476 q 220 458 218 463 q 225 444 221 453 q 231 432 229 435 l 349 167 l 436 364 q 482 479 482 465 q 469 497 482 493 q 421 500 456 500 l 401 500 l 401 545 l 628 545 l 628 500 l 594 500 q 569 498 575 500 q 560 496 563 496 q 553 491 557 495 q 547 484 549 486 q 541 474 545 482 q 535 462 537 467 q 519 426 528 444 l 308 -40 q 110 -351 181 -321 q 65 -360 90 -360 q 25 -342 40 -360 q 10 -296 10 -324 q 24 -253 10 -268 q 62 -239 39 -239 z "},"":{"ha":703,"x_min":28,"x_max":669,"o":"m 28 976 q 232 1008 146 992 l 232 445 q 376 536 297 509 q 439 547 409 547 q 556 510 503 547 q 640 412 610 474 q 669 273 669 351 q 637 127 669 195 q 543 22 604 60 q 404 -17 483 -17 q 253 1 317 -17 l 232 7 l 232 -280 q 252 -310 232 -304 q 342 -315 273 -315 l 362 -315 l 361 -360 l 42 -360 l 40 -315 q 123 -309 116 -315 q 135 -282 135 -299 l 135 873 q 130 931 135 918 q 112 943 126 943 q 31 929 98 943 l 28 976 m 232 76 q 400 29 302 29 q 550 131 508 29 q 571 231 571 180 q 555 325 571 282 q 514 398 540 367 q 376 465 458 465 q 240 408 307 465 q 232 401 232 402 l 232 76 z "},"":{"ha":651,"x_min":10,"x_max":628,"o":"m 62 -239 l 103 -242 q 160 -194 125 -242 q 256 -29 195 -147 l 297 52 l 124 425 q 114 446 120 433 q 106 464 108 459 q 100 476 105 468 q 93 486 95 484 q 86 492 92 488 q 76 497 80 496 q 64 499 73 497 q 47 500 55 500 l 26 500 l 24 545 l 289 545 l 286 500 l 262 500 q 225 497 236 500 q 214 485 214 493 q 216 469 214 476 q 220 458 218 463 q 225 444 221 453 q 231 432 229 435 l 349 167 l 436 364 q 482 479 482 465 q 469 497 482 493 q 421 500 456 500 l 401 500 l 401 545 l 628 545 l 628 500 l 594 500 q 569 498 575 500 q 560 496 563 496 q 553 491 557 495 q 547 484 549 486 q 541 474 545 482 q 535 462 537 467 q 519 426 528 444 l 308 -40 q 110 -351 181 -321 q 65 -360 90 -360 q 25 -342 40 -360 q 10 -296 10 -324 q 24 -253 10 -268 q 62 -239 39 -239 m 437 700 q 430 700 437 700 q 401 723 424 700 q 379 761 379 746 q 404 799 379 776 q 443 821 429 821 q 478 796 458 821 q 497 757 497 772 q 474 721 497 742 q 437 700 450 700 m 234 700 q 228 700 234 700 q 199 723 221 700 q 177 761 177 745 q 201 798 177 776 q 239 821 225 821 q 274 796 254 821 q 295 757 295 771 q 271 721 295 742 q 234 700 248 700 z "},"":{"ha":1008,"x_min":38,"x_max":971,"o":"m 38 54 l 54 54 q 104 67 92 54 q 133 117 117 80 q 175 211 150 154 q 241 358 201 269 q 298 485 281 446 q 329 552 316 524 q 347 591 342 580 q 357 615 351 602 l 498 960 l 528 960 q 740 429 612 740 q 882 93 869 118 q 910 61 896 67 q 950 54 925 54 l 971 54 l 969 0 l 653 0 l 654 54 l 696 54 q 744 57 730 54 q 757 71 757 60 q 751 94 757 79 q 743 114 744 110 l 640 367 l 318 367 l 208 122 q 194 75 194 88 q 205 58 194 62 q 251 54 216 54 l 308 54 l 308 0 l 39 0 l 38 54 m 345 428 l 617 428 l 485 757 l 345 428 z "},"":{"ha":528,"x_min":38,"x_max":517,"o":"m 93 722 l 93 789 l 413 789 l 413 722 l 93 722 m 81 345 q 48 394 48 345 q 81 469 48 427 q 292 550 144 550 q 404 489 376 550 q 414 439 414 468 l 414 179 q 437 90 414 116 q 504 53 459 65 q 517 41 517 50 q 499 22 517 33 q 421 -24 425 -23 q 376 15 390 -2 q 328 74 358 35 q 255 10 300 36 q 176 -15 210 -15 q 120 -9 142 -15 q 80 9 99 -3 q 38 91 38 36 q 74 195 38 146 q 175 273 111 244 q 317 303 240 303 l 317 386 q 293 466 317 446 q 233 485 271 485 q 175 480 196 485 q 142 470 153 476 q 111 442 118 456 q 117 419 113 433 q 125 378 125 390 q 109 355 125 366 q 81 345 92 345 m 135 127 q 155 80 135 99 q 208 60 175 60 q 260 65 241 60 q 288 78 278 70 q 306 96 299 85 q 317 136 317 114 l 317 265 q 182 221 233 265 q 135 127 135 179 z "},"":{"ha":1008,"x_min":38,"x_max":971,"o":"m 620 1190 l 618 1201 l 653 1201 l 653 1192 q 515 1040 653 1040 q 391 1103 427 1040 q 374 1169 374 1134 l 375 1201 l 445 1201 l 445 1189 q 468 1125 445 1143 q 528 1109 489 1109 q 593 1131 567 1109 q 620 1190 620 1152 m 38 54 l 54 54 q 104 67 92 54 q 133 117 117 80 q 175 211 150 154 q 241 358 201 269 q 298 485 281 446 q 329 552 316 524 q 347 591 342 580 q 357 615 351 602 l 498 960 l 528 960 q 740 429 612 740 q 882 93 869 118 q 910 61 896 67 q 950 54 925 54 l 971 54 l 969 0 l 653 0 l 654 54 l 696 54 q 744 57 730 54 q 757 71 757 60 q 751 94 757 79 q 743 114 744 110 l 640 367 l 318 367 l 208 122 q 194 75 194 88 q 205 58 194 62 q 251 54 216 54 l 308 54 l 308 0 l 39 0 l 38 54 m 345 428 l 617 428 l 485 757 l 345 428 z "},"":{"ha":528,"x_min":38,"x_max":517,"o":"m 106 820 l 107 840 l 177 840 q 175 801 175 829 q 202 751 176 774 q 264 729 228 729 q 326 754 299 729 q 352 826 352 779 l 350 840 l 385 840 q 386 804 386 830 q 375 748 386 779 q 345 699 364 718 q 245 660 305 660 q 146 701 185 660 q 106 820 106 743 m 81 345 q 48 394 48 345 q 81 469 48 427 q 292 550 144 550 q 404 489 376 550 q 414 439 414 468 l 414 179 q 437 90 414 116 q 504 53 459 65 q 517 41 517 50 q 499 22 517 33 q 421 -24 425 -23 q 376 15 390 -2 q 328 74 358 35 q 255 10 300 36 q 176 -15 210 -15 q 120 -9 142 -15 q 80 9 99 -3 q 38 91 38 36 q 74 195 38 146 q 175 273 111 244 q 317 303 240 303 l 317 386 q 293 466 317 446 q 233 485 271 485 q 175 480 196 485 q 142 470 153 476 q 111 442 118 456 q 117 419 113 433 q 125 378 125 390 q 109 355 125 366 q 81 345 92 345 m 135 127 q 155 80 135 99 q 208 60 175 60 q 260 65 241 60 q 288 78 278 70 q 306 96 299 85 q 317 136 317 114 l 317 265 q 182 221 233 265 q 135 127 135 179 z "},"":{"ha":1008,"x_min":38,"x_max":971,"o":"m 528 960 q 721 478 574 838 q 881 94 868 119 q 909 62 893 70 q 971 54 924 54 l 969 0 l 836 0 q 690 -98 753 0 q 654 -199 654 -153 q 673 -272 654 -244 q 722 -299 693 -299 q 772 -293 752 -299 q 803 -279 792 -287 q 837 -260 830 -260 q 843 -269 843 -260 q 831 -293 843 -277 q 799 -324 819 -308 q 685 -364 749 -364 q 589 -329 621 -364 q 557 -254 557 -295 q 568 -184 557 -213 q 596 -132 578 -155 q 634 -85 613 -108 q 676 -42 655 -62 q 715 -3 697 -21 q 754 59 754 38 q 726 156 754 89 l 640 367 l 318 367 l 208 122 q 194 75 194 88 q 205 58 194 62 q 251 54 216 54 l 308 54 l 308 0 l 39 0 l 38 54 q 59 54 50 54 q 76 56 68 54 q 87 58 83 58 q 96 63 91 59 q 105 69 102 67 q 113 80 107 71 q 121 92 118 88 q 130 110 123 97 q 139 131 136 123 q 172 204 143 138 q 241 358 201 269 q 298 485 281 446 q 329 552 316 524 q 347 591 342 580 q 357 615 351 602 l 498 960 l 528 960 m 345 428 l 617 428 l 485 757 l 345 428 z "},"":{"ha":528,"x_min":38,"x_max":517,"o":"m 81 345 q 48 394 48 345 q 81 469 48 427 q 292 550 144 550 q 404 489 376 550 q 414 439 414 468 l 414 179 q 437 90 414 116 q 504 53 459 66 q 517 41 517 50 q 504 26 517 33 l 432 -17 q 337 -102 370 -54 q 304 -199 304 -151 q 345 -290 304 -266 q 380 -299 359 -299 q 422 -293 402 -299 q 452 -279 442 -287 q 471 -266 462 -272 q 483 -260 479 -260 q 493 -269 493 -260 q 481 -293 493 -277 q 449 -324 469 -308 q 331 -364 399 -364 q 220 -301 250 -364 q 207 -239 207 -272 q 224 -170 207 -205 q 269 -102 242 -134 q 393 -1 327 -38 q 352 42 371 18 q 328 74 333 67 q 255 10 300 36 q 176 -15 210 -15 q 120 -9 142 -15 q 80 9 99 -3 q 38 91 38 36 q 74 195 38 146 q 175 273 111 244 q 317 303 240 303 l 317 386 q 293 466 317 446 q 233 485 271 485 q 175 480 196 485 q 142 470 153 476 q 111 442 118 456 q 117 419 113 433 q 125 378 125 390 q 109 355 125 366 q 81 345 92 345 m 135 127 q 155 80 135 99 q 208 60 175 60 q 260 65 241 60 q 288 78 278 70 q 306 96 299 85 q 317 136 317 114 l 317 265 q 182 221 233 265 q 135 127 135 179 z "},"":{"ha":1023,"x_min":75,"x_max":957,"o":"m 533 1009 l 606 1207 l 703 1207 l 584 1009 l 533 1009 m 878 929 l 878 938 l 930 938 q 947 672 935 802 l 897 671 q 890 734 891 725 q 888 756 890 744 q 885 771 886 767 q 881 781 885 774 q 875 789 877 788 q 865 795 872 791 q 853 802 858 800 q 810 822 841 806 q 714 851 780 838 q 581 864 649 864 q 452 844 513 864 q 344 788 391 824 q 263 703 297 752 q 193 476 193 605 q 247 265 193 367 q 395 103 300 166 q 614 39 493 39 q 842 114 730 39 q 904 182 903 155 l 908 299 l 957 299 l 949 96 q 664 -16 826 10 q 579 -22 621 -22 q 207 102 339 -22 q 75 436 75 224 q 203 770 75 634 q 381 889 274 845 q 562 929 477 929 q 703 922 648 929 q 785 908 759 916 q 831 893 811 900 q 857 886 850 886 q 868 887 864 886 q 874 894 872 888 q 878 929 878 902 z "},"":{"ha":559,"x_min":33,"x_max":525,"o":"m 257 650 l 329 875 l 427 875 l 307 650 l 257 650 m 33 245 q 33 272 33 245 q 43 342 33 298 q 75 425 54 386 q 126 493 96 464 q 289 557 191 557 q 486 488 415 557 q 502 464 502 474 q 490 447 502 455 q 463 433 478 438 q 418 424 431 424 q 390 431 405 424 q 361 451 375 439 q 332 474 347 463 q 264 502 295 502 q 210 486 234 502 q 172 448 186 471 q 148 395 157 425 q 132 290 132 343 q 145 198 132 237 q 179 135 158 159 q 227 95 199 111 q 327 65 276 65 q 413 71 378 65 q 464 82 448 76 q 495 93 481 88 q 514 99 508 99 q 525 87 525 99 q 505 57 525 75 q 453 23 485 40 q 294 -18 377 -18 q 49 142 99 -18 q 33 245 33 192 z "},"":{"ha":1023,"x_min":75,"x_max":957,"o":"m 561 1136 l 476 1036 l 424 1036 q 535 1201 467 1097 l 617 1201 q 728 1036 666 1123 l 647 1036 q 600 1090 628 1057 q 561 1136 572 1123 m 878 929 l 878 938 l 930 938 q 947 672 935 802 l 897 671 q 890 734 891 725 q 888 756 890 744 q 885 771 886 767 q 881 781 885 774 q 875 789 877 788 q 865 795 872 791 q 853 802 858 800 q 810 822 841 806 q 714 851 780 838 q 581 864 649 864 q 452 844 513 864 q 344 788 391 824 q 263 703 297 752 q 193 476 193 605 q 247 265 193 367 q 395 103 300 166 q 614 39 493 39 q 842 114 730 39 q 904 182 903 155 l 908 299 l 957 299 l 949 96 q 664 -16 826 10 q 579 -22 621 -22 q 207 102 339 -22 q 75 436 75 224 q 203 770 75 634 q 381 889 274 845 q 562 929 477 929 q 703 922 648 929 q 785 908 759 916 q 831 893 811 900 q 857 886 850 886 q 868 887 864 886 q 874 894 872 888 q 878 929 878 902 z "},"":{"ha":559,"x_min":33,"x_max":525,"o":"m 147 650 q 258 840 186 710 l 340 840 q 362 801 347 829 q 385 759 378 772 q 406 723 393 745 q 452 650 429 683 l 371 650 q 322 718 350 673 q 285 775 294 762 q 258 733 275 761 q 200 650 220 674 l 147 650 m 33 245 q 33 272 33 245 q 43 342 33 298 q 75 425 54 386 q 126 493 96 464 q 289 557 191 557 q 486 488 415 557 q 502 464 502 474 q 490 447 502 455 q 463 433 478 438 q 418 424 431 424 q 390 431 405 424 q 361 451 375 439 q 332 474 347 463 q 264 502 295 502 q 210 486 234 502 q 172 448 186 471 q 148 395 157 425 q 132 290 132 343 q 145 198 132 237 q 179 135 158 159 q 227 95 199 111 q 327 65 276 65 q 413 71 378 65 q 464 82 448 76 q 495 93 481 88 q 514 99 508 99 q 525 87 525 99 q 505 57 525 75 q 453 23 485 40 q 294 -18 377 -18 q 49 142 99 -18 q 33 245 33 192 z "},"":{"ha":1023,"x_min":75,"x_max":957,"o":"m 573 1064 q 567 1064 573 1064 q 538 1086 560 1064 q 515 1124 515 1109 q 540 1162 515 1140 q 578 1184 564 1184 q 613 1160 592 1184 q 633 1121 633 1135 q 610 1085 633 1106 q 573 1064 587 1064 m 878 929 l 878 938 l 930 938 q 947 672 935 802 l 897 671 q 890 734 891 725 q 888 756 890 744 q 885 771 886 767 q 881 781 885 774 q 875 789 877 788 q 865 795 872 791 q 853 802 858 800 q 810 822 841 806 q 714 851 780 838 q 581 864 649 864 q 452 844 513 864 q 344 788 391 824 q 263 703 297 752 q 193 476 193 605 q 247 265 193 367 q 395 103 300 166 q 614 39 493 39 q 842 114 730 39 q 904 182 903 155 l 908 299 l 957 299 l 949 96 q 664 -16 826 10 q 579 -22 621 -22 q 207 102 339 -22 q 75 436 75 224 q 203 770 75 634 q 381 889 274 845 q 562 929 477 929 q 703 922 648 929 q 785 908 759 916 q 831 893 811 900 q 857 886 850 886 q 868 887 864 886 q 874 894 872 888 q 878 929 878 902 z "},"":{"ha":559,"x_min":33,"x_max":525,"o":"m 311 700 q 304 700 311 700 q 276 724 297 700 q 256 764 256 748 q 278 800 256 779 q 313 821 300 821 q 350 799 327 821 q 374 762 374 777 q 350 724 374 747 q 311 700 326 700 m 33 245 q 33 272 33 245 q 43 342 33 298 q 75 425 54 386 q 126 493 96 464 q 289 557 191 557 q 486 488 415 557 q 502 464 502 474 q 490 447 502 455 q 463 433 478 438 q 418 424 431 424 q 390 431 405 424 q 361 451 375 439 q 332 474 347 463 q 264 502 295 502 q 210 486 234 502 q 172 448 186 471 q 148 395 157 425 q 132 290 132 343 q 145 198 132 237 q 179 135 158 159 q 227 95 199 111 q 327 65 276 65 q 413 71 378 65 q 464 82 448 76 q 495 93 481 88 q 514 99 508 99 q 525 87 525 99 q 505 57 525 75 q 453 23 485 40 q 294 -18 377 -18 q 49 142 99 -18 q 33 245 33 192 z "},"":{"ha":1023,"x_min":75,"x_max":957,"o":"m 411 1201 l 492 1201 l 578 1101 l 663 1201 l 715 1201 q 604 1036 672 1140 l 522 1036 q 411 1201 470 1119 m 878 929 l 878 938 l 930 938 q 947 672 935 802 l 897 671 q 890 734 891 725 q 888 756 890 744 q 885 771 886 767 q 881 781 885 774 q 875 789 877 788 q 865 795 872 791 q 853 802 858 800 q 810 822 841 806 q 714 851 780 838 q 581 864 649 864 q 452 844 513 864 q 344 788 391 824 q 263 703 297 752 q 193 476 193 605 q 247 265 193 367 q 395 103 300 166 q 614 39 493 39 q 842 114 730 39 q 904 182 903 155 l 908 299 l 957 299 l 949 96 q 664 -16 826 10 q 579 -22 621 -22 q 207 102 339 -22 q 75 436 75 224 q 203 770 75 634 q 381 889 274 845 q 562 929 477 929 q 703 922 648 929 q 785 908 759 916 q 831 893 811 900 q 857 886 850 886 q 868 887 864 886 q 874 894 872 888 q 878 929 878 902 z "},"":{"ha":559,"x_min":33,"x_max":525,"o":"m 135 840 l 215 840 q 264 772 237 816 q 301 714 292 728 q 329 756 312 729 q 386 840 367 818 l 439 840 q 328 650 400 781 l 246 650 q 220 698 241 659 q 190 752 198 738 q 135 840 159 806 m 33 245 q 33 272 33 245 q 43 342 33 298 q 75 425 54 386 q 126 493 96 464 q 289 557 191 557 q 486 488 415 557 q 502 464 502 474 q 490 447 502 455 q 463 433 478 438 q 418 424 431 424 q 390 431 405 424 q 361 451 375 439 q 332 474 347 463 q 264 502 295 502 q 210 486 234 502 q 172 448 186 471 q 148 395 157 425 q 132 290 132 343 q 145 198 132 237 q 179 135 158 159 q 227 95 199 111 q 327 65 276 65 q 413 71 378 65 q 464 82 448 76 q 495 93 481 88 q 514 99 508 99 q 525 87 525 99 q 505 57 525 75 q 453 23 485 40 q 294 -18 377 -18 q 49 142 99 -18 q 33 245 33 192 z "},"":{"ha":1033,"x_min":38,"x_max":972,"o":"m 353 1167 l 433 1167 l 519 1067 l 604 1167 l 657 1167 q 546 1001 613 1106 l 464 1001 q 353 1167 412 1084 m 38 926 l 413 926 q 702 899 617 926 q 887 769 817 863 q 972 498 972 655 q 832 145 972 288 q 421 0 689 0 l 62 0 l 61 54 l 99 54 q 157 61 150 54 q 168 75 165 67 q 171 115 171 85 l 171 821 q 164 862 171 857 q 149 868 158 866 q 100 871 138 871 l 42 871 l 38 926 m 283 118 q 288 75 283 82 q 299 64 293 68 q 313 59 306 60 q 334 56 321 58 q 414 54 351 54 q 538 67 476 54 q 646 101 601 79 q 727 154 691 123 q 784 219 762 184 q 821 295 807 254 q 847 433 847 368 q 839 540 847 498 q 813 622 831 581 q 770 697 796 662 q 707 763 744 733 q 624 815 669 793 q 392 861 526 861 l 340 861 q 305 857 316 861 q 283 796 283 849 l 283 118 z "},"":{"ha":711,"x_min":33,"x_max":754,"o":"m 643 708 l 667 939 l 754 928 l 689 701 l 643 708 m 488 -36 l 489 65 q 488 87 489 83 q 280 -17 402 -17 q 106 59 178 -17 q 33 257 33 135 q 57 373 33 318 q 119 466 81 428 q 303 549 203 549 q 485 488 404 549 l 485 901 q 465 940 485 940 q 374 922 453 940 l 371 965 q 582 1015 439 978 l 582 97 q 585 50 582 61 q 597 38 588 38 q 617 41 606 38 q 648 51 628 44 q 688 62 669 57 l 688 25 q 597 -2 660 17 q 488 -36 533 -22 m 184 449 q 173 436 184 449 q 148 386 161 423 q 135 303 135 348 q 150 214 135 258 q 193 136 165 170 q 353 62 252 62 q 425 76 399 62 q 485 118 468 100 l 485 417 q 368 496 445 471 q 304 506 337 506 q 239 491 270 506 q 184 449 208 476 z "},"":{"ha":1033,"x_min":38,"x_max":972,"o":"m 38 926 l 413 926 q 702 899 617 926 q 887 769 817 863 q 972 498 972 655 q 832 145 972 288 q 421 0 689 0 l 62 0 l 61 54 l 95 54 q 155 60 146 54 q 165 70 164 66 q 169 81 167 74 q 171 115 171 89 l 171 445 l 65 445 l 67 511 l 171 511 l 171 821 q 164 862 171 857 q 149 868 158 866 q 100 871 138 871 l 42 871 l 38 926 m 283 118 q 288 75 283 82 q 299 64 293 68 q 313 59 306 60 q 334 56 321 58 q 414 54 351 54 q 538 67 476 54 q 646 101 601 79 q 727 154 691 123 q 784 219 762 184 q 821 295 807 254 q 847 433 847 368 q 839 540 847 498 q 813 622 831 581 q 770 697 796 662 q 707 763 744 733 q 624 815 669 793 q 392 861 526 861 l 340 861 q 305 857 316 861 q 283 796 283 849 l 283 511 l 567 511 l 565 445 l 283 445 l 283 118 z "},"":{"ha":711,"x_min":33,"x_max":688,"o":"m 488 -36 l 489 65 q 488 87 489 83 q 280 -17 402 -17 q 106 59 178 -17 q 33 257 33 135 q 57 373 33 318 q 119 466 81 428 q 303 549 203 549 q 485 488 404 549 l 485 720 l 336 720 l 336 781 l 485 781 l 485 901 q 465 940 485 940 q 374 922 453 940 l 371 965 q 582 1015 439 978 l 582 781 l 672 781 l 672 720 l 582 720 l 582 97 q 585 50 582 61 q 597 38 588 38 q 617 41 606 38 q 648 51 628 44 q 688 62 669 57 l 688 25 q 597 -2 660 17 q 488 -36 533 -22 m 184 449 q 173 436 184 449 q 148 386 161 423 q 135 303 135 348 q 150 214 135 258 q 193 136 165 170 q 353 62 252 62 q 425 76 399 62 q 485 118 468 100 l 485 417 q 368 496 445 471 q 304 506 337 506 q 239 491 270 506 q 184 449 208 476 z "},"":{"ha":856,"x_min":38,"x_max":804,"o":"m 332 64 q 663 71 610 66 q 723 83 716 75 q 735 101 731 90 q 757 222 739 112 l 804 215 l 769 0 l 65 0 l 65 54 l 101 54 q 161 60 153 54 q 172 72 169 65 q 175 107 175 81 l 175 811 q 160 863 175 852 q 78 871 147 871 l 39 871 l 38 926 l 753 926 q 760 708 755 807 l 706 706 q 685 859 701 843 q 669 866 680 864 q 604 867 658 867 l 368 867 q 303 861 311 867 q 292 846 295 854 q 288 801 288 836 l 288 608 q 292 563 288 568 q 302 556 296 558 q 333 553 309 553 l 543 553 q 585 560 580 553 q 593 576 591 567 q 596 622 596 588 l 596 675 l 647 674 l 647 342 l 596 342 l 596 414 q 590 479 596 472 q 582 488 584 486 q 573 490 580 489 q 562 492 566 492 l 337 492 q 296 485 303 492 q 288 449 288 476 l 288 121 q 296 74 288 85 q 332 64 304 64 z "},"":{"ha":573,"x_min":33,"x_max":540,"o":"m 128 722 l 128 789 l 447 789 l 447 722 l 128 722 m 139 314 l 138 294 q 262 91 138 139 q 336 76 299 76 q 402 83 374 76 q 449 100 430 90 q 484 119 468 109 q 528 142 521 142 q 540 129 540 142 q 529 100 540 117 q 494 63 517 83 q 441 25 471 43 q 288 -18 372 -18 q 105 56 173 -18 q 33 254 33 134 q 104 472 33 388 q 279 554 174 554 q 472 460 396 554 q 510 376 510 412 q 502 361 510 367 q 488 356 494 356 l 139 314 m 142 362 l 380 393 q 352 449 372 424 q 321 485 332 475 q 259 507 295 507 q 188 468 222 507 q 142 362 153 429 z "},"":{"ha":856,"x_min":38,"x_max":804,"o":"m 535 1190 l 533 1201 l 568 1201 l 568 1192 q 430 1040 568 1040 q 307 1103 342 1040 q 289 1169 289 1134 l 290 1201 l 360 1201 l 360 1189 q 383 1125 360 1143 q 444 1109 405 1109 q 509 1131 483 1109 q 535 1190 535 1152 m 332 64 q 663 71 610 66 q 723 83 716 75 q 735 101 731 90 q 757 222 739 112 l 804 215 l 769 0 l 65 0 l 65 54 l 101 54 q 161 60 153 54 q 172 72 169 65 q 175 107 175 81 l 175 811 q 160 863 175 852 q 78 871 147 871 l 39 871 l 38 926 l 753 926 q 760 708 755 807 l 706 706 q 685 859 701 843 q 669 866 680 864 q 604 867 658 867 l 368 867 q 303 861 311 867 q 292 846 295 854 q 288 801 288 836 l 288 608 q 292 563 288 568 q 302 556 296 558 q 333 553 309 553 l 543 553 q 585 560 580 553 q 593 576 591 567 q 596 622 596 588 l 596 675 l 647 674 l 647 342 l 596 342 l 596 414 q 590 479 596 472 q 582 488 584 486 q 573 490 580 489 q 562 492 566 492 l 337 492 q 296 485 303 492 q 288 449 288 476 l 288 121 q 296 74 288 85 q 332 64 304 64 z "},"":{"ha":573,"x_min":33,"x_max":540,"o":"m 140 820 l 142 840 l 211 840 q 210 801 210 829 q 237 751 211 774 q 298 729 263 729 q 360 754 334 729 q 386 826 386 779 l 385 840 l 419 840 q 421 804 421 830 q 410 748 421 779 q 379 699 398 718 q 280 660 339 660 q 180 701 220 660 q 140 820 140 743 m 139 314 l 138 294 q 262 91 138 139 q 336 76 299 76 q 402 83 374 76 q 449 100 430 90 q 484 119 468 109 q 528 142 521 142 q 540 129 540 142 q 529 100 540 117 q 494 63 517 83 q 441 25 471 43 q 288 -18 372 -18 q 105 56 173 -18 q 33 254 33 134 q 104 472 33 388 q 279 554 174 554 q 472 460 396 554 q 510 376 510 412 q 502 361 510 367 q 488 356 494 356 l 139 314 m 142 362 l 380 393 q 352 449 372 424 q 321 485 332 475 q 259 507 295 507 q 188 468 222 507 q 142 362 153 429 z "},"":{"ha":856,"x_min":38,"x_max":804,"o":"m 436 1064 q 429 1064 436 1064 q 400 1086 422 1064 q 378 1124 378 1109 q 402 1162 378 1140 q 440 1184 426 1184 q 475 1160 455 1184 q 496 1121 496 1135 q 472 1085 496 1106 q 436 1064 449 1064 m 332 64 q 663 71 610 66 q 723 83 716 75 q 735 101 731 90 q 757 222 739 112 l 804 215 l 769 0 l 65 0 l 65 54 l 101 54 q 161 60 153 54 q 172 72 169 65 q 175 107 175 81 l 175 811 q 160 863 175 852 q 78 871 147 871 l 39 871 l 38 926 l 753 926 q 760 708 755 807 l 706 706 q 685 859 701 843 q 669 866 680 864 q 604 867 658 867 l 368 867 q 303 861 311 867 q 292 846 295 854 q 288 801 288 836 l 288 608 q 292 563 288 568 q 302 556 296 558 q 333 553 309 553 l 543 553 q 585 560 580 553 q 593 576 591 567 q 596 622 596 588 l 596 675 l 647 674 l 647 342 l 596 342 l 596 414 q 590 479 596 472 q 582 488 584 486 q 573 490 580 489 q 562 492 566 492 l 337 492 q 296 485 303 492 q 288 449 288 476 l 288 121 q 296 74 288 85 q 332 64 304 64 z "},"":{"ha":573,"x_min":33,"x_max":540,"o":"m 301 700 q 294 700 301 700 q 266 724 287 700 q 246 764 246 748 q 268 800 246 779 q 303 821 290 821 q 340 799 317 821 q 364 762 364 777 q 340 724 364 747 q 301 700 316 700 m 139 314 l 138 294 q 262 91 138 139 q 336 76 299 76 q 402 83 374 76 q 449 100 430 90 q 484 119 468 109 q 528 142 521 142 q 540 129 540 142 q 529 100 540 117 q 494 63 517 83 q 441 25 471 43 q 288 -18 372 -18 q 105 56 173 -18 q 33 254 33 134 q 104 472 33 388 q 279 554 174 554 q 472 460 396 554 q 510 376 510 412 q 502 361 510 367 q 488 356 494 356 l 139 314 m 142 362 l 380 393 q 352 449 372 424 q 321 485 332 475 q 259 507 295 507 q 188 468 222 507 q 142 362 153 429 z "},"":{"ha":856,"x_min":38,"x_max":804,"o":"m 332 64 q 663 71 610 66 q 723 83 716 75 q 735 101 731 90 q 757 222 739 112 l 804 215 l 769 0 l 722 0 q 655 -27 691 0 q 597 -76 618 -54 q 549 -179 549 -127 q 576 -264 549 -230 q 647 -299 604 -299 q 702 -286 686 -299 q 739 -260 734 -260 q 749 -267 749 -260 q 742 -286 749 -274 q 722 -310 735 -297 q 691 -336 708 -324 q 609 -364 649 -364 q 542 -355 568 -364 q 496 -330 516 -346 q 451 -231 451 -294 q 649 0 451 -93 l 65 0 l 65 54 q 102 54 87 54 q 127 55 117 54 q 142 56 138 55 q 154 58 147 56 q 162 61 160 60 q 168 66 164 63 q 172 73 171 70 q 174 82 173 76 q 175 93 175 87 l 175 811 q 171 851 175 844 q 161 862 166 859 q 149 867 155 866 q 132 869 144 868 q 79 871 116 871 l 39 871 l 38 926 l 753 926 q 760 708 755 807 l 706 706 q 685 859 701 843 q 669 866 680 864 q 604 867 658 867 l 368 867 q 303 861 311 867 q 292 846 295 854 q 288 801 288 836 l 288 608 q 292 563 288 568 q 302 556 296 558 q 333 553 309 553 l 543 553 q 588 564 582 553 q 596 618 595 576 q 596 675 596 661 l 647 674 l 647 342 l 596 342 q 595 414 595 361 q 589 479 595 467 q 546 492 583 492 l 337 492 q 296 485 303 492 q 288 449 288 476 l 288 121 q 296 74 288 85 q 332 64 304 64 z "},"":{"ha":573,"x_min":33,"x_max":540,"o":"m 139 314 l 138 294 q 262 91 138 139 q 334 76 299 76 q 391 81 368 76 q 434 93 414 85 q 465 107 453 101 q 493 124 477 114 q 516 138 509 134 q 532 140 524 142 q 540 126 540 138 q 518 89 540 114 q 449 29 496 64 q 381 -23 401 -6 q 343 -61 361 -40 q 316 -98 326 -82 q 301 -130 307 -114 q 293 -175 293 -154 q 299 -218 293 -196 q 316 -258 304 -240 q 392 -299 341 -299 q 452 -286 430 -299 q 499 -260 492 -260 q 507 -268 507 -260 q 494 -293 507 -277 q 460 -324 481 -308 q 345 -364 410 -364 q 240 -332 282 -364 q 196 -239 196 -299 q 237 -122 196 -178 q 358 -4 278 -66 q 273 -17 315 -17 q 190 -1 231 -17 q 121 40 150 14 q 73 101 93 66 q 33 245 33 170 q 52 377 33 320 q 104 472 72 433 q 279 554 174 554 q 472 460 396 554 q 510 376 510 412 q 502 361 510 367 q 488 356 494 356 l 139 314 m 142 362 l 380 393 q 352 449 372 424 q 321 485 332 475 q 259 507 295 507 q 188 468 222 507 q 142 362 153 429 z "},"":{"ha":856,"x_min":38,"x_max":804,"o":"m 274 1201 l 354 1201 l 440 1101 l 525 1201 l 578 1201 q 467 1036 534 1140 l 385 1036 q 274 1201 332 1119 m 332 64 q 663 71 610 66 q 723 83 716 75 q 735 101 731 90 q 757 222 739 112 l 804 215 l 769 0 l 65 0 l 65 54 l 101 54 q 161 60 153 54 q 172 72 169 65 q 175 107 175 81 l 175 811 q 160 863 175 852 q 78 871 147 871 l 39 871 l 38 926 l 753 926 q 760 708 755 807 l 706 706 q 685 859 701 843 q 669 866 680 864 q 604 867 658 867 l 368 867 q 303 861 311 867 q 292 846 295 854 q 288 801 288 836 l 288 608 q 292 563 288 568 q 302 556 296 558 q 333 553 309 553 l 543 553 q 585 560 580 553 q 593 576 591 567 q 596 622 596 588 l 596 675 l 647 674 l 647 342 l 596 342 l 596 414 q 590 479 596 472 q 582 488 584 486 q 573 490 580 489 q 562 492 566 492 l 337 492 q 296 485 303 492 q 288 449 288 476 l 288 121 q 296 74 288 85 q 332 64 304 64 z "},"":{"ha":573,"x_min":33,"x_max":540,"o":"m 125 840 l 205 840 q 255 772 227 816 q 292 714 282 728 q 319 756 302 729 q 376 840 357 818 l 429 840 q 318 650 391 781 l 236 650 q 210 698 231 659 q 180 752 188 738 q 125 840 149 806 m 139 314 l 138 294 q 262 91 138 139 q 336 76 299 76 q 402 83 374 76 q 449 100 430 90 q 484 119 468 109 q 528 142 521 142 q 540 129 540 142 q 529 100 540 117 q 494 63 517 83 q 441 25 471 43 q 288 -18 372 -18 q 105 56 173 -18 q 33 254 33 134 q 104 472 33 388 q 279 554 174 554 q 472 460 396 554 q 510 376 510 412 q 502 361 510 367 q 488 356 494 356 l 139 314 m 142 362 l 380 393 q 352 449 372 424 q 321 485 332 475 q 259 507 295 507 q 188 468 222 507 q 142 362 153 429 z "},"":{"ha":1103,"x_min":75,"x_max":1065,"o":"m 567 1136 l 482 1036 l 429 1036 q 540 1201 473 1097 l 622 1201 q 733 1036 672 1123 l 653 1036 q 606 1090 633 1057 q 567 1136 578 1123 m 114 225 q 104 248 114 225 q 84 317 94 270 q 75 417 75 364 q 86 524 75 469 q 121 630 98 578 q 177 729 144 682 q 255 814 210 775 q 352 882 299 853 q 603 942 462 942 q 744 926 681 942 q 886 878 808 909 l 886 947 l 942 947 l 951 645 l 897 643 l 887 787 q 695 865 815 843 q 585 875 645 875 q 470 860 526 875 q 371 817 413 845 q 296 753 329 790 q 242 672 262 716 q 200 480 200 583 q 247 269 200 370 q 385 103 294 168 q 607 36 479 36 q 828 97 736 36 q 847 113 838 104 l 847 361 l 682 361 l 681 415 l 1064 415 l 1065 361 l 960 361 l 960 76 q 906 53 939 68 q 851 28 873 38 q 794 5 828 18 q 731 -14 761 -7 q 584 -32 660 -32 q 443 -19 507 -32 q 327 16 378 -6 q 235 72 276 39 q 164 142 193 104 q 114 225 134 181 z "},"":{"ha":619,"x_min":-11,"x_max":589,"o":"m 123 650 q 235 840 162 710 l 317 840 q 338 801 323 829 q 362 759 354 772 q 382 723 369 745 q 428 650 405 683 l 347 650 q 298 718 327 673 q 261 775 270 762 q 234 733 251 761 q 176 650 197 674 l 123 650 m 242 58 l 336 60 q 589 -96 589 60 q 522 -247 589 -178 q 215 -365 407 -365 q 24 -299 92 -365 q -11 -213 -11 -264 q 65 -81 -11 -137 q 127 -47 93 -60 q 182 -28 160 -34 q 55 32 84 -16 q 47 58 47 44 q 54 86 47 73 q 73 110 61 100 q 98 127 84 119 q 125 141 112 136 q 176 157 154 152 q 98 209 138 166 q 46 346 46 263 q 113 494 46 432 q 265 555 179 555 q 351 541 325 555 q 391 519 377 527 q 454 498 425 498 q 497 501 484 498 q 516 506 509 503 q 528 515 523 509 q 536 524 534 520 q 542 535 538 528 q 547 546 545 543 l 576 546 l 576 511 q 573 456 576 463 q 565 445 569 449 q 555 439 562 441 q 521 436 541 436 l 498 436 q 461 433 461 436 q 466 421 461 429 q 477 405 471 414 q 493 339 493 380 q 476 263 493 298 q 430 201 459 228 q 265 143 366 143 q 178 130 210 143 q 146 93 146 116 q 165 66 146 72 q 174 63 170 64 q 185 61 178 61 q 197 59 192 60 q 218 58 204 58 l 242 58 m 96 -205 q 136 -272 96 -242 q 257 -301 176 -301 q 441 -241 369 -301 q 492 -133 492 -198 q 318 -31 492 -31 q 156 -85 219 -31 q 96 -205 96 -136 m 262 504 q 241 504 262 504 q 190 465 220 504 q 161 370 161 426 q 171 282 161 315 q 198 229 181 249 q 276 186 232 186 q 345 222 315 186 q 375 317 375 260 q 365 407 375 373 q 339 461 355 440 q 262 504 305 504 z "},"":{"ha":1103,"x_min":75,"x_max":1065,"o":"m 678 1190 l 676 1201 l 711 1201 l 711 1192 q 573 1040 711 1040 q 450 1103 485 1040 q 432 1169 432 1134 l 433 1201 l 503 1201 l 503 1189 q 526 1125 503 1143 q 587 1109 548 1109 q 652 1131 626 1109 q 678 1190 678 1152 m 114 225 q 104 248 114 225 q 84 317 94 270 q 75 417 75 364 q 86 524 75 469 q 121 630 98 578 q 177 729 144 682 q 255 814 210 775 q 352 882 299 853 q 603 942 462 942 q 744 926 681 942 q 886 878 808 909 l 886 947 l 942 947 l 951 645 l 897 643 l 887 787 q 695 865 815 843 q 585 875 645 875 q 470 860 526 875 q 371 817 413 845 q 296 753 329 790 q 242 672 262 716 q 200 480 200 583 q 247 269 200 370 q 385 103 294 168 q 607 36 479 36 q 828 97 736 36 q 847 113 838 104 l 847 361 l 682 361 l 681 415 l 1064 415 l 1065 361 l 960 361 l 960 76 q 906 53 939 68 q 851 28 873 38 q 794 5 828 18 q 731 -14 761 -7 q 584 -32 660 -32 q 443 -19 507 -32 q 327 16 378 -6 q 235 72 276 39 q 164 142 193 104 q 114 225 134 181 z "},"":{"ha":619,"x_min":-11,"x_max":589,"o":"m 126 820 l 128 840 l 197 840 q 196 801 196 829 q 223 751 197 774 q 284 729 249 729 q 346 754 320 729 q 372 826 372 779 l 371 840 l 406 840 q 407 804 407 830 q 396 748 407 779 q 365 699 385 718 q 266 660 326 660 q 166 701 206 660 q 126 820 126 743 m 242 58 l 336 60 q 589 -96 589 60 q 522 -247 589 -178 q 215 -365 407 -365 q 24 -299 92 -365 q -11 -213 -11 -264 q 65 -81 -11 -137 q 127 -47 93 -60 q 182 -28 160 -34 q 55 32 84 -16 q 47 58 47 44 q 54 86 47 73 q 73 110 61 100 q 98 127 84 119 q 125 141 112 136 q 176 157 154 152 q 98 209 138 166 q 46 346 46 263 q 113 494 46 432 q 265 555 179 555 q 351 541 325 555 q 391 519 377 527 q 454 498 425 498 q 497 501 484 498 q 516 506 509 503 q 528 515 523 509 q 536 524 534 520 q 542 535 538 528 q 547 546 545 543 l 576 546 l 576 511 q 573 456 576 463 q 565 445 569 449 q 555 439 562 441 q 521 436 541 436 l 498 436 q 461 433 461 436 q 466 421 461 429 q 477 405 471 414 q 493 339 493 380 q 476 263 493 298 q 430 201 459 228 q 265 143 366 143 q 178 130 210 143 q 146 93 146 116 q 165 66 146 72 q 174 63 170 64 q 185 61 178 61 q 197 59 192 60 q 218 58 204 58 l 242 58 m 96 -205 q 136 -272 96 -242 q 257 -301 176 -301 q 441 -241 369 -301 q 492 -133 492 -198 q 318 -31 492 -31 q 156 -85 219 -31 q 96 -205 96 -136 m 262 504 q 241 504 262 504 q 190 465 220 504 q 161 370 161 426 q 171 282 161 315 q 198 229 181 249 q 276 186 232 186 q 345 222 315 186 q 375 317 375 260 q 365 407 375 373 q 339 461 355 440 q 262 504 305 504 z "},"":{"ha":1103,"x_min":75,"x_max":1065,"o":"m 579 1064 q 572 1064 579 1064 q 543 1086 565 1064 q 521 1124 521 1109 q 545 1162 521 1140 q 584 1184 569 1184 q 618 1160 598 1184 q 639 1121 639 1135 q 615 1085 639 1106 q 579 1064 592 1064 m 114 225 q 104 248 114 225 q 84 317 94 270 q 75 417 75 364 q 86 524 75 469 q 121 630 98 578 q 177 729 144 682 q 255 814 210 775 q 352 882 299 853 q 603 942 462 942 q 744 926 681 942 q 886 878 808 909 l 886 947 l 942 947 l 951 645 l 897 643 l 887 787 q 695 865 815 843 q 585 875 645 875 q 470 860 526 875 q 371 817 413 845 q 296 753 329 790 q 242 672 262 716 q 200 480 200 583 q 247 269 200 370 q 385 103 294 168 q 607 36 479 36 q 828 97 736 36 q 847 113 838 104 l 847 361 l 682 361 l 681 415 l 1064 415 l 1065 361 l 960 361 l 960 76 q 906 53 939 68 q 851 28 873 38 q 794 5 828 18 q 731 -14 761 -7 q 584 -32 660 -32 q 443 -19 507 -32 q 327 16 378 -6 q 235 72 276 39 q 164 142 193 104 q 114 225 134 181 z "},"":{"ha":619,"x_min":-11,"x_max":589,"o":"m 288 700 q 280 700 288 700 q 252 724 273 700 q 232 764 232 748 q 254 800 232 779 q 289 821 276 821 q 326 799 303 821 q 350 762 350 777 q 326 724 350 747 q 288 700 302 700 m 242 58 l 336 60 q 589 -96 589 60 q 522 -247 589 -178 q 215 -365 407 -365 q 24 -299 92 -365 q -11 -213 -11 -264 q 65 -81 -11 -137 q 127 -47 93 -60 q 182 -28 160 -34 q 55 32 84 -16 q 47 58 47 44 q 54 86 47 73 q 73 110 61 100 q 98 127 84 119 q 125 141 112 136 q 176 157 154 152 q 98 209 138 166 q 46 346 46 263 q 113 494 46 432 q 265 555 179 555 q 351 541 325 555 q 391 519 377 527 q 454 498 425 498 q 497 501 484 498 q 516 506 509 503 q 528 515 523 509 q 536 524 534 520 q 542 535 538 528 q 547 546 545 543 l 576 546 l 576 511 q 573 456 576 463 q 565 445 569 449 q 555 439 562 441 q 521 436 541 436 l 498 436 q 461 433 461 436 q 466 421 461 429 q 477 405 471 414 q 493 339 493 380 q 476 263 493 298 q 430 201 459 228 q 265 143 366 143 q 178 130 210 143 q 146 93 146 116 q 165 66 146 72 q 174 63 170 64 q 185 61 178 61 q 197 59 192 60 q 218 58 204 58 l 242 58 m 96 -205 q 136 -272 96 -242 q 257 -301 176 -301 q 441 -241 369 -301 q 492 -133 492 -198 q 318 -31 492 -31 q 156 -85 219 -31 q 96 -205 96 -136 m 262 504 q 241 504 262 504 q 190 465 220 504 q 161 370 161 426 q 171 282 161 315 q 198 229 181 249 q 276 186 232 186 q 345 222 315 186 q 375 317 375 260 q 365 407 375 373 q 339 461 355 440 q 262 504 305 504 z "},"":{"ha":1103,"x_min":75,"x_max":1065,"o":"m 573 -295 q 564 -302 573 -295 q 538 -315 554 -308 q 509 -321 522 -321 q 496 -312 496 -321 q 504 -297 496 -304 q 523 -284 512 -291 q 545 -269 534 -277 q 572 -213 572 -249 q 550 -172 572 -183 q 531 -164 541 -167 q 509 -152 509 -157 q 515 -139 509 -148 l 544 -100 q 563 -87 556 -87 q 585 -95 570 -87 q 605 -107 599 -103 q 613 -111 612 -111 q 619 -115 614 -112 q 626 -120 624 -119 q 631 -126 627 -122 q 635 -132 634 -129 q 639 -140 636 -135 q 642 -149 641 -144 q 644 -182 644 -163 q 634 -224 644 -200 q 607 -265 623 -248 q 573 -295 591 -282 m 114 225 q 104 248 114 225 q 84 317 94 270 q 75 417 75 364 q 86 524 75 469 q 121 630 98 578 q 177 729 144 682 q 255 814 210 775 q 352 882 299 853 q 603 942 462 942 q 744 926 681 942 q 886 878 808 909 l 886 947 l 942 947 l 951 645 l 897 643 l 887 787 q 695 865 815 843 q 585 875 645 875 q 470 860 526 875 q 371 817 413 845 q 296 753 329 790 q 242 672 262 716 q 200 480 200 583 q 247 269 200 370 q 385 103 294 168 q 607 36 479 36 q 828 97 736 36 q 847 113 838 104 l 847 361 l 682 361 l 681 415 l 1064 415 l 1065 361 l 960 361 l 960 76 q 906 53 939 68 q 851 28 873 38 q 794 5 828 18 q 731 -14 761 -7 q 584 -32 660 -32 q 443 -19 507 -32 q 327 16 378 -6 q 235 72 276 39 q 164 142 193 104 q 114 225 134 181 z "},"":{"ha":619,"x_min":-11,"x_max":589,"o":"m 272 857 q 281 864 272 857 q 307 877 291 870 q 337 883 323 883 q 350 872 350 883 q 331 850 350 861 q 301 830 312 838 q 275 773 275 810 q 297 732 275 744 q 314 725 306 728 q 336 712 336 718 q 332 701 336 707 l 303 663 q 281 650 290 650 q 259 657 273 650 q 240 668 246 665 q 232 673 233 672 q 226 677 231 673 q 219 682 220 680 q 214 687 218 683 q 210 693 211 691 q 207 701 209 696 q 203 710 204 706 q 201 743 201 725 q 212 785 201 761 q 238 827 222 810 q 272 857 254 844 m 242 58 l 336 60 q 589 -96 589 60 q 522 -247 589 -178 q 215 -365 407 -365 q 24 -299 92 -365 q -11 -213 -11 -264 q 65 -81 -11 -137 q 127 -47 93 -60 q 182 -28 160 -34 q 55 32 84 -16 q 47 58 47 44 q 54 86 47 73 q 73 110 61 100 q 98 127 84 119 q 125 141 112 136 q 176 157 154 152 q 98 209 138 166 q 46 346 46 263 q 113 494 46 432 q 265 555 179 555 q 351 541 325 555 q 391 519 377 527 q 454 498 425 498 q 497 501 484 498 q 516 506 509 503 q 528 515 523 509 q 536 524 534 520 q 542 535 538 528 q 547 546 545 543 l 576 546 l 576 511 q 573 456 576 463 q 565 445 569 449 q 555 439 562 441 q 521 436 541 436 l 498 436 q 461 433 461 436 q 466 421 461 429 q 477 405 471 414 q 493 339 493 380 q 476 263 493 298 q 430 201 459 228 q 265 143 366 143 q 178 130 210 143 q 146 93 146 116 q 165 66 146 72 q 174 63 170 64 q 185 61 178 61 q 197 59 192 60 q 218 58 204 58 l 242 58 m 96 -205 q 136 -272 96 -242 q 257 -301 176 -301 q 441 -241 369 -301 q 492 -133 492 -198 q 318 -31 492 -31 q 156 -85 219 -31 q 96 -205 96 -136 m 262 504 q 241 504 262 504 q 190 465 220 504 q 161 370 161 426 q 171 282 161 315 q 198 229 181 249 q 276 186 232 186 q 345 222 315 186 q 375 317 375 260 q 365 407 375 373 q 339 461 355 440 q 262 504 305 504 z "},"":{"ha":1000,"x_min":38,"x_max":963,"o":"m 488 1136 l 403 1036 l 350 1036 q 461 1201 394 1097 l 543 1201 q 654 1036 593 1123 l 574 1036 q 527 1090 554 1057 q 488 1136 499 1123 m 38 871 l 38 926 l 383 926 l 383 871 l 347 871 q 287 864 295 871 q 274 850 278 857 q 268 810 268 839 l 268 546 l 720 546 l 720 821 q 713 862 720 858 q 697 868 707 866 q 647 871 686 871 l 589 871 l 588 926 l 940 926 l 940 871 l 901 871 q 848 864 855 871 q 837 851 840 858 q 832 812 832 840 l 832 111 q 845 63 832 71 q 915 54 858 54 l 963 54 l 961 0 l 615 0 l 614 54 l 654 54 q 707 61 700 54 q 716 75 713 67 q 720 115 720 86 l 720 479 l 268 479 l 268 115 q 284 63 268 74 q 368 54 298 54 l 408 54 l 406 0 l 50 0 l 48 54 q 97 54 78 54 q 126 56 116 54 q 139 58 135 57 q 147 63 142 58 q 152 70 151 67 q 154 81 153 72 q 156 96 156 90 l 156 825 q 140 864 156 857 q 74 871 125 871 l 38 871 z "},"":{"ha":644,"x_min":25,"x_max":621,"o":"m 345 1136 l 260 1036 l 207 1036 q 318 1201 251 1097 l 400 1201 q 511 1036 450 1123 l 431 1036 q 384 1090 411 1057 q 345 1136 356 1123 m 347 471 q 201 404 281 471 l 201 76 q 215 50 201 55 q 272 44 228 44 l 297 44 l 296 0 l 26 0 l 25 44 l 40 44 q 93 50 87 44 q 104 76 104 60 l 104 901 q 99 934 104 925 q 84 943 94 943 q 25 935 75 943 l 25 983 q 201 1008 63 987 l 201 446 q 277 504 259 494 q 311 524 295 515 q 341 537 328 532 q 402 549 377 549 q 445 544 427 549 q 475 533 462 540 q 498 515 488 527 q 515 492 508 503 q 526 463 522 481 q 533 432 531 446 q 537 397 536 418 q 539 325 539 370 l 539 85 q 544 52 539 56 q 558 47 550 48 q 598 44 567 44 l 621 44 l 621 0 l 354 0 l 353 44 l 375 44 q 429 51 417 44 q 442 83 442 58 l 442 365 q 399 457 442 431 q 347 471 376 471 z "},"":{"ha":1000,"x_min":38,"x_max":963,"o":"m 38 871 l 38 926 l 383 926 l 383 871 l 331 871 q 286 863 296 871 q 268 810 268 850 l 268 743 l 720 743 l 720 821 q 713 861 720 857 q 697 868 706 866 q 647 871 686 871 l 589 871 l 588 926 l 940 926 l 940 871 l 895 871 q 847 863 857 871 q 832 812 832 851 l 832 743 l 942 743 l 940 676 l 832 676 l 832 111 q 845 63 832 73 q 915 54 857 54 l 963 54 l 961 0 l 615 0 l 614 54 l 642 54 q 706 61 699 54 q 715 70 714 67 q 718 81 716 73 q 720 96 720 89 l 720 479 l 268 479 l 268 115 q 283 63 268 74 q 361 54 297 54 l 408 54 l 406 0 l 50 0 l 48 54 q 103 54 83 54 q 130 55 122 54 q 140 57 137 56 q 146 62 142 59 q 151 69 150 65 q 154 80 152 73 q 156 115 156 88 l 156 676 l 40 676 l 40 743 l 156 743 l 156 825 q 141 864 156 856 q 75 871 129 871 l 38 871 m 268 546 l 720 546 l 720 676 l 268 676 l 268 546 z "},"":{"ha":644,"x_min":24,"x_max":621,"o":"m 347 471 q 201 404 281 471 l 201 76 q 224 47 201 50 q 293 44 248 44 l 297 44 l 296 0 l 25 0 l 24 44 l 39 44 q 91 50 78 44 q 104 76 104 55 l 104 720 l 24 720 l 24 781 l 104 781 l 104 901 q 99 934 104 925 q 84 943 94 943 q 25 935 75 943 l 25 983 q 201 1008 63 987 l 201 781 l 347 781 l 347 720 l 201 720 l 201 446 q 277 504 259 494 q 311 524 295 515 q 341 537 328 532 q 402 549 377 549 q 445 544 427 549 q 475 533 462 540 q 498 515 488 527 q 515 492 508 503 q 526 463 522 481 q 533 432 531 446 q 537 397 536 418 q 539 325 539 370 l 539 85 q 546 51 539 57 q 585 44 554 44 l 621 44 l 621 0 l 354 0 l 353 44 l 375 44 q 429 51 416 44 q 442 83 442 58 l 442 365 q 399 457 442 431 q 347 471 376 471 z "},"":{"ha":447,"x_min":38,"x_max":410,"o":"m 53 1046 q 55 1054 54 1049 q 60 1074 56 1059 q 70 1103 64 1089 q 84 1134 75 1117 q 103 1163 93 1151 q 157 1192 127 1192 q 218 1175 188 1192 l 260 1153 q 303 1139 287 1139 q 331 1145 320 1139 q 350 1161 343 1152 q 374 1201 366 1180 l 393 1196 q 342 1089 381 1129 q 292 1065 318 1065 q 238 1078 266 1065 l 195 1099 q 145 1112 167 1112 q 111 1105 123 1112 q 93 1087 100 1097 q 72 1040 78 1063 l 53 1046 m 38 871 l 39 926 l 388 926 l 388 871 l 364 871 q 308 868 316 871 q 294 862 300 866 q 286 855 288 859 q 282 843 284 850 q 279 807 279 833 l 279 118 q 287 67 279 73 q 304 58 294 61 q 354 54 317 54 l 408 54 l 410 0 l 54 0 l 53 54 l 89 54 q 151 61 143 54 q 163 75 160 67 q 167 115 167 86 l 167 821 q 160 862 167 857 q 144 868 154 866 q 96 871 134 871 l 38 871 z "},"":{"ha":368,"x_min":7,"x_max":347,"o":"m 7 671 q 9 679 8 674 q 14 699 10 684 q 24 728 19 714 q 38 759 29 742 q 57 788 47 776 q 113 817 81 817 q 172 801 144 817 l 214 779 q 257 765 241 765 q 284 772 273 765 q 303 787 296 778 q 327 826 319 806 l 347 822 q 296 716 335 756 q 244 692 273 692 q 190 703 215 692 l 147 725 q 97 739 119 739 q 64 731 75 739 q 46 713 53 724 q 26 667 32 690 l 7 671 m 38 522 q 233 564 141 539 l 233 82 q 245 51 233 56 q 319 44 261 44 l 345 44 l 345 0 l 43 0 l 43 44 l 56 44 q 125 50 119 44 q 136 76 136 60 l 136 447 q 132 483 136 474 q 112 492 127 492 q 39 480 96 492 l 38 522 z "},"":{"ha":447,"x_min":38,"x_max":410,"o":"m 38 871 l 39 926 l 388 926 l 388 871 l 364 871 q 308 868 316 871 q 294 862 300 866 q 286 855 288 859 q 282 843 284 850 q 279 807 279 833 l 279 118 q 287 67 279 73 q 304 58 294 61 q 354 54 317 54 l 408 54 l 410 0 l 54 0 l 53 54 l 89 54 q 151 61 143 54 q 163 75 160 67 q 167 115 167 86 l 167 821 q 160 862 167 857 q 144 868 154 866 q 96 871 134 871 l 38 871 z "},"":{"ha":368,"x_min":24,"x_max":345,"o":"m 24 722 l 24 789 l 343 789 l 343 722 l 24 722 m 38 522 q 233 564 141 539 l 233 82 q 245 51 233 56 q 319 44 261 44 l 345 44 l 345 0 l 43 0 l 43 44 l 56 44 q 125 50 119 44 q 136 76 136 60 l 136 447 q 132 483 136 474 q 112 492 127 492 q 39 480 96 492 l 38 522 z "},"":{"ha":447,"x_min":38,"x_max":410,"o":"m 325 1190 l 324 1201 l 358 1201 l 358 1192 q 221 1040 358 1040 q 97 1103 132 1040 q 79 1169 79 1134 l 81 1201 l 150 1201 l 150 1189 q 174 1125 150 1143 q 234 1109 195 1109 q 299 1131 273 1109 q 325 1190 325 1152 m 38 871 l 39 926 l 388 926 l 388 871 l 364 871 q 308 868 316 871 q 294 862 300 866 q 286 855 288 859 q 282 843 284 850 q 279 807 279 833 l 279 118 q 287 67 279 73 q 304 58 294 61 q 354 54 317 54 l 408 54 l 410 0 l 54 0 l 53 54 l 89 54 q 151 61 143 54 q 163 75 160 67 q 167 115 167 86 l 167 821 q 160 862 167 857 q 144 868 154 866 q 96 871 134 871 l 38 871 z "},"":{"ha":368,"x_min":36,"x_max":345,"o":"m 36 820 l 38 840 l 107 840 q 106 801 105 829 q 133 751 106 774 q 194 729 159 729 q 256 754 230 729 q 282 826 282 779 l 281 840 l 315 840 q 317 804 317 830 q 306 748 317 779 q 275 699 294 718 q 176 660 235 660 q 76 701 116 660 q 36 820 36 743 m 38 522 q 233 564 141 539 l 233 82 q 245 51 233 56 q 319 44 261 44 l 345 44 l 345 0 l 43 0 l 43 44 l 56 44 q 125 50 119 44 q 136 76 136 60 l 136 447 q 132 483 136 474 q 112 492 127 492 q 39 480 96 492 l 38 522 z "},"":{"ha":447,"x_min":38,"x_max":410,"o":"m 376 -275 q 379 -275 376 -275 q 382 -282 382 -275 q 376 -299 382 -290 q 359 -319 371 -308 q 332 -339 348 -330 q 260 -361 296 -361 q 203 -356 224 -361 q 164 -341 183 -352 q 131 -315 145 -330 q 100 -223 100 -280 q 120 -131 100 -169 q 211 0 150 -76 l 54 0 l 53 54 l 81 54 q 152 61 143 54 q 162 72 160 68 q 165 82 163 75 q 167 115 167 92 l 167 821 q 160 862 167 857 q 144 868 154 866 q 96 871 134 871 l 38 871 l 39 926 l 388 926 l 388 871 l 343 871 q 294 865 300 871 q 285 851 289 859 q 279 807 279 840 l 279 118 q 287 67 279 72 q 304 58 294 61 q 358 54 317 54 l 408 54 l 410 0 l 251 0 q 202 -86 217 -48 q 188 -155 188 -123 q 190 -204 188 -187 q 200 -238 193 -221 q 217 -268 207 -255 q 288 -296 242 -296 q 342 -289 327 -296 q 376 -275 370 -275 z "},"":{"ha":368,"x_min":38,"x_max":345,"o":"m 297 -289 q 304 -285 297 -289 q 319 -278 312 -281 q 333 -275 327 -275 q 339 -282 339 -275 q 333 -299 339 -290 q 316 -319 328 -308 q 289 -339 305 -330 q 217 -361 253 -361 q 160 -356 181 -361 q 121 -341 140 -352 q 88 -315 102 -330 q 57 -223 57 -280 q 77 -131 57 -169 q 168 0 107 -76 l 43 0 l 43 44 l 70 44 q 122 50 109 44 q 136 76 136 56 l 136 447 q 132 483 136 474 q 112 492 127 492 q 39 480 96 492 l 38 522 q 233 564 141 539 l 233 82 q 247 51 233 56 q 323 44 261 44 l 345 44 l 345 0 l 207 0 q 159 -85 173 -48 q 144 -155 144 -122 q 147 -204 144 -187 q 156 -238 150 -221 q 174 -268 163 -255 q 244 -296 199 -296 q 297 -289 281 -296 z "},"":{"ha":447,"x_min":38,"x_max":410,"o":"m 226 1064 q 219 1064 226 1064 q 190 1086 213 1064 q 168 1124 168 1109 q 192 1162 168 1140 q 231 1184 217 1184 q 266 1160 245 1184 q 286 1121 286 1135 q 263 1085 286 1106 q 226 1064 239 1064 m 38 871 l 39 926 l 388 926 l 388 871 l 364 871 q 308 868 316 871 q 294 862 300 866 q 286 855 288 859 q 282 843 284 850 q 279 807 279 833 l 279 118 q 287 67 279 73 q 304 58 294 61 q 354 54 317 54 l 408 54 l 410 0 l 54 0 l 53 54 l 89 54 q 151 61 143 54 q 163 75 160 67 q 167 115 167 86 l 167 821 q 160 862 167 857 q 144 868 154 866 q 96 871 134 871 l 38 871 z "},"":{"ha":368,"x_min":38,"x_max":345,"o":"m 38 522 q 233 564 141 539 l 233 82 q 245 51 233 56 q 319 44 261 44 l 345 44 l 345 0 l 43 0 l 43 44 l 56 44 q 125 50 119 44 q 136 76 136 60 l 136 447 q 132 483 136 474 q 112 492 127 492 q 39 480 96 492 l 38 522 z "},"":{"ha":871,"x_min":38,"x_max":833,"o":"m 524 -282 q 614 -33 614 -282 l 614 821 q 607 860 614 855 q 593 868 601 866 q 551 871 582 871 l 500 871 l 500 926 l 833 926 l 830 871 l 786 871 q 740 865 745 871 q 731 851 734 859 q 726 807 726 840 l 726 -3 q 719 -119 726 -76 q 691 -195 711 -162 q 626 -272 671 -228 q 540 -337 581 -316 q 454 -358 498 -358 q 375 -337 409 -358 q 342 -294 342 -315 q 357 -252 342 -273 q 392 -219 372 -232 q 426 -205 413 -205 q 450 -213 439 -205 q 468 -232 460 -221 q 484 -255 476 -243 q 524 -282 503 -282 m 38 871 l 39 926 l 388 926 l 388 871 l 364 871 q 308 868 316 871 q 294 862 300 866 q 286 855 288 859 q 282 843 284 850 q 279 807 279 833 l 279 118 q 287 67 279 73 q 304 58 294 61 q 354 54 317 54 l 408 54 l 410 0 l 54 0 l 53 54 l 89 54 q 151 61 143 54 q 163 75 160 67 q 167 115 167 86 l 167 821 q 160 862 167 857 q 144 868 154 866 q 96 871 134 871 l 38 871 z "},"":{"ha":714,"x_min":38,"x_max":591,"o":"m 485 477 q 482 480 485 477 q 474 486 479 484 q 463 489 468 489 q 398 476 457 489 l 392 518 q 464 532 433 525 q 587 561 553 553 l 587 -67 q 571 -220 587 -179 q 542 -277 555 -260 q 518 -302 529 -294 q 502 -314 507 -311 q 483 -327 497 -318 q 454 -343 468 -336 q 389 -362 416 -362 q 336 -353 362 -362 q 293 -331 310 -344 q 276 -302 276 -318 q 302 -263 276 -287 q 343 -240 328 -240 q 369 -250 358 -240 q 388 -270 379 -259 q 426 -300 412 -300 q 490 -111 490 -300 l 490 432 q 485 477 490 470 m 529 762 q 522 762 529 762 q 494 787 514 762 q 473 826 473 811 q 495 862 473 841 q 531 883 517 883 q 568 861 544 883 q 591 824 591 839 q 567 786 591 810 q 529 762 544 762 m 38 522 q 233 564 141 539 l 233 82 q 245 51 233 56 q 319 44 261 44 l 345 44 l 345 0 l 43 0 l 43 44 l 56 44 q 125 50 119 44 q 136 76 136 60 l 136 447 q 132 483 136 474 q 112 492 127 492 q 39 480 96 492 l 38 522 m 197 762 q 190 762 197 762 q 162 787 183 762 q 142 826 142 811 q 164 862 142 841 q 199 883 186 883 q 236 861 213 883 q 260 824 260 839 q 236 786 260 810 q 197 762 212 762 z "},"":{"ha":424,"x_min":-105,"x_max":386,"o":"m 207 1136 l 122 1036 l 69 1036 q 180 1201 113 1097 l 262 1201 q 374 1036 312 1123 l 293 1036 q 246 1090 274 1057 q 207 1136 218 1123 m 76 -282 q 167 -33 167 -282 l 167 821 q 160 860 167 855 q 146 868 154 866 q 104 871 135 871 l 53 871 l 53 926 l 386 926 l 383 871 l 339 871 q 292 865 298 871 q 284 851 287 859 q 279 807 279 840 l 279 -3 q 271 -119 279 -76 q 244 -195 263 -162 q 179 -272 224 -228 q 93 -337 134 -316 q 6 -358 51 -358 q -72 -337 -39 -358 q -105 -294 -105 -315 q -90 -252 -105 -273 q -55 -219 -75 -232 q -21 -205 -35 -205 q 2 -213 -8 -205 q 21 -232 13 -221 q 37 -255 28 -243 q 76 -282 55 -282 z "},"":{"ha":346,"x_min":-92,"x_max":301,"o":"m -3 650 q 108 840 36 710 l 190 840 q 212 801 196 829 q 235 759 228 772 q 256 723 243 745 q 301 650 278 683 l 221 650 q 172 718 200 673 q 135 775 144 762 q 108 733 125 761 q 50 650 70 674 l -3 650 m 117 477 q 114 480 117 477 q 106 486 112 484 q 95 489 100 489 q 31 476 90 489 l 24 518 q 96 532 65 525 q 219 561 185 553 l 219 -67 q 203 -220 219 -179 q 174 -277 187 -260 q 150 -302 161 -294 q 134 -314 139 -311 q 115 -327 129 -318 q 86 -343 100 -336 q 21 -362 48 -362 q -32 -353 -6 -362 q -75 -331 -58 -344 q -92 -302 -92 -318 q -66 -263 -92 -287 q -25 -240 -40 -240 q 1 -250 -10 -240 q 20 -270 11 -259 q 58 -300 44 -300 q 122 -111 122 -300 l 122 432 q 117 477 122 470 z "},"":{"ha":1011,"x_min":38,"x_max":974,"o":"m 533 -313 q 524 -320 533 -313 q 498 -332 515 -326 q 469 -339 482 -339 q 457 -330 457 -339 q 465 -315 457 -322 q 483 -302 472 -309 q 506 -287 494 -295 q 532 -231 532 -267 q 510 -190 532 -201 q 491 -182 501 -185 q 469 -170 469 -175 q 475 -157 469 -165 l 504 -118 q 524 -105 517 -105 q 545 -113 530 -105 q 566 -125 559 -121 q 573 -129 572 -129 q 579 -133 574 -130 q 586 -138 585 -137 q 591 -144 587 -140 q 596 -150 595 -147 q 599 -158 597 -153 q 602 -167 602 -162 q 604 -200 604 -181 q 594 -242 604 -218 q 568 -283 584 -266 q 533 -313 552 -300 m 685 817 q 720 858 720 845 q 655 871 720 871 l 602 871 l 598 926 l 932 926 l 932 871 l 896 871 q 836 861 856 871 q 728 781 809 847 l 414 529 l 833 92 q 867 61 856 68 q 893 54 879 54 l 974 54 l 971 0 l 753 0 l 331 464 l 279 422 l 279 118 q 284 75 279 84 q 296 63 289 67 q 309 58 303 60 q 329 56 316 57 q 389 54 346 54 l 419 54 l 419 0 l 64 0 l 62 54 l 100 54 q 156 61 150 54 q 163 71 162 68 q 166 83 165 74 q 167 96 167 91 l 167 821 q 160 862 167 857 q 144 868 154 866 q 96 871 134 871 l 38 871 l 38 926 l 385 926 l 385 871 l 340 871 q 293 865 299 871 q 284 851 288 859 q 279 807 279 840 l 279 488 l 685 817 z "},"":{"ha":655,"x_min":24,"x_max":632,"o":"m 340 -313 q 331 -320 340 -313 q 305 -332 322 -326 q 276 -339 289 -339 q 264 -330 264 -339 q 272 -315 264 -322 q 290 -302 279 -309 q 313 -287 301 -295 q 339 -231 339 -267 q 317 -190 339 -201 q 298 -182 308 -185 q 276 -170 276 -175 q 282 -157 276 -165 l 311 -118 q 331 -105 324 -105 q 352 -113 337 -105 q 373 -125 367 -121 q 380 -129 379 -129 q 387 -133 381 -130 q 393 -138 392 -137 q 398 -144 394 -140 q 403 -150 402 -147 q 406 -158 404 -153 q 409 -167 409 -162 q 411 -200 411 -181 q 401 -242 411 -218 q 375 -283 391 -266 q 340 -313 359 -300 m 24 971 q 204 1007 162 998 l 204 278 l 458 485 q 468 497 468 492 q 439 507 468 507 l 397 507 l 397 545 l 621 545 l 620 507 l 598 507 q 562 502 577 507 q 522 476 547 496 l 325 319 l 532 78 q 543 65 536 73 q 551 55 549 57 q 557 50 553 54 q 566 46 561 46 q 577 45 570 46 q 594 44 583 44 l 632 44 l 631 0 l 467 0 l 250 267 l 201 229 l 201 79 q 214 50 201 55 q 274 44 225 44 l 311 44 l 313 0 l 28 0 l 28 44 q 59 44 46 44 q 80 45 72 44 q 91 46 88 46 q 99 49 95 47 q 103 52 102 51 q 106 58 104 54 q 107 65 107 62 l 107 873 q 103 926 107 912 q 87 939 100 939 q 26 926 75 939 l 24 971 z "},"":{"ha":811,"x_min":38,"x_max":773,"o":"m 180 1009 l 253 1207 l 350 1207 l 231 1009 l 180 1009 m 38 871 l 39 926 l 394 926 l 394 871 l 332 871 q 287 866 293 871 q 278 854 281 860 q 272 820 272 845 l 272 118 q 290 67 272 74 q 318 64 299 64 q 688 84 669 66 q 703 119 698 95 q 712 160 708 144 q 718 193 715 176 q 725 235 721 210 l 773 232 l 728 0 l 57 0 l 56 54 l 95 54 q 148 60 142 54 q 156 69 155 66 q 158 78 157 72 q 160 107 160 87 l 160 825 q 145 863 160 855 q 86 871 130 871 l 38 871 z "},"":{"ha":365,"x_min":24,"x_max":340,"o":"m 24 976 q 228 1008 142 992 l 228 82 q 252 48 228 52 q 299 45 270 46 q 340 44 329 45 l 340 0 l 38 0 l 38 44 q 108 47 102 44 q 119 52 114 50 q 126 59 124 55 q 131 82 131 69 l 131 873 q 126 930 131 918 q 108 943 122 943 q 26 929 94 943 l 24 976 m 101 1025 l 168 1207 l 265 1207 l 158 1032 l 101 1025 z "},"":{"ha":811,"x_min":38,"x_max":773,"o":"m 408 -263 q 399 -270 408 -263 q 374 -283 390 -276 q 345 -289 357 -289 q 332 -280 332 -289 q 340 -265 332 -272 q 359 -252 348 -259 q 381 -237 370 -245 q 407 -181 407 -217 q 385 -140 407 -151 q 367 -132 376 -135 q 345 -120 345 -125 q 350 -107 345 -116 l 379 -68 q 399 -56 392 -56 q 420 -64 406 -56 q 441 -75 435 -72 q 448 -80 447 -79 q 455 -84 450 -80 q 461 -89 460 -87 q 466 -94 463 -90 q 471 -100 470 -97 q 474 -108 472 -103 q 477 -117 477 -113 q 479 -150 479 -132 q 469 -192 479 -168 q 443 -233 459 -216 q 408 -263 427 -250 m 38 871 l 39 926 l 394 926 l 394 871 l 332 871 q 287 866 293 871 q 278 854 281 860 q 272 820 272 845 l 272 118 q 290 67 272 74 q 318 64 299 64 q 688 84 669 66 q 703 119 698 95 q 712 160 708 144 q 718 193 715 176 q 725 235 721 210 l 773 232 l 728 0 l 57 0 l 56 54 l 95 54 q 148 60 142 54 q 156 69 155 66 q 158 78 157 72 q 160 107 160 87 l 160 825 q 145 863 160 855 q 86 871 130 871 l 38 871 z "},"":{"ha":364,"x_min":24,"x_max":340,"o":"m 185 -263 q 175 -270 185 -263 q 150 -283 166 -276 q 121 -289 133 -289 q 108 -280 108 -289 q 116 -265 108 -272 q 135 -252 124 -259 q 157 -237 146 -245 q 183 -181 183 -217 q 161 -140 183 -151 q 143 -132 152 -135 q 121 -120 121 -125 q 126 -107 121 -116 l 156 -68 q 175 -56 168 -56 q 196 -64 182 -56 q 217 -75 211 -72 q 225 -80 223 -79 q 231 -84 226 -80 q 237 -89 236 -87 q 242 -94 239 -90 q 247 -100 246 -97 q 251 -108 248 -103 q 254 -117 253 -113 q 256 -150 256 -132 q 245 -192 256 -168 q 219 -233 235 -216 q 185 -263 203 -250 m 24 976 q 228 1008 142 992 l 228 82 q 244 51 228 57 q 317 44 260 44 l 340 44 l 340 0 l 38 0 l 38 44 l 68 44 q 118 51 105 44 q 131 82 131 58 l 131 873 q 126 930 131 918 q 108 943 122 943 q 26 929 94 943 l 24 976 z "},"":{"ha":811,"x_min":38,"x_max":773,"o":"m 458 708 l 482 939 l 570 928 l 504 701 l 458 708 m 38 871 l 39 926 l 394 926 l 394 871 l 332 871 q 287 866 293 871 q 278 854 281 860 q 272 820 272 845 l 272 118 q 290 67 272 74 q 318 64 299 64 q 688 84 669 66 q 703 119 698 95 q 712 160 708 144 q 718 193 715 176 q 725 235 721 210 l 773 232 l 728 0 l 57 0 l 56 54 l 95 54 q 148 60 142 54 q 156 69 155 66 q 158 78 157 72 q 160 107 160 87 l 160 825 q 145 863 160 855 q 86 871 130 871 l 38 871 z "},"":{"ha":364,"x_min":24,"x_max":409,"o":"m 297 708 l 321 939 l 409 928 l 343 701 l 297 708 m 24 976 q 228 1008 142 992 l 228 82 q 244 51 228 57 q 317 44 260 44 l 340 44 l 340 0 l 38 0 l 38 44 l 68 44 q 118 51 105 44 q 131 82 131 58 l 131 873 q 126 930 131 918 q 108 943 122 943 q 26 929 94 943 l 24 976 z "},"":{"ha":811,"x_min":38,"x_max":773,"o":"m 626 404 q 620 404 626 404 q 591 426 613 404 q 568 464 568 449 q 593 501 568 479 q 631 524 617 524 q 666 499 645 524 q 686 460 686 474 q 663 425 686 445 q 626 404 640 404 m 38 871 l 39 926 l 394 926 l 394 871 l 332 871 q 287 866 293 871 q 278 854 281 860 q 272 820 272 845 l 272 118 q 290 67 272 74 q 318 64 299 64 q 688 84 669 66 q 703 119 698 95 q 712 160 708 144 q 718 193 715 176 q 725 235 721 210 l 773 232 l 728 0 l 57 0 l 56 54 l 95 54 q 148 60 142 54 q 156 69 155 66 q 158 78 157 72 q 160 107 160 87 l 160 825 q 145 863 160 855 q 86 871 130 871 l 38 871 z "},"":{"ha":624,"x_min":24,"x_max":543,"o":"m 483 404 q 476 404 483 404 q 447 426 470 404 q 425 464 425 449 q 449 501 425 479 q 488 524 474 524 q 523 499 502 524 q 543 460 543 474 q 520 425 543 445 q 483 404 497 404 m 24 976 q 228 1008 142 992 l 228 82 q 244 51 228 57 q 317 44 260 44 l 340 44 l 340 0 l 38 0 l 38 44 l 68 44 q 118 51 105 44 q 131 82 131 58 l 131 873 q 126 930 131 918 q 108 943 122 943 q 26 929 94 943 l 24 976 z "},"":{"ha":811,"x_min":38,"x_max":773,"o":"m 38 871 l 39 926 l 394 926 l 394 871 l 332 871 q 287 866 293 871 q 278 854 281 860 q 272 820 272 845 l 272 482 l 531 554 l 535 488 l 272 419 l 272 118 q 290 67 272 74 q 318 64 299 64 q 688 84 669 66 q 703 119 698 95 q 712 160 708 144 q 718 193 715 176 q 725 235 721 210 l 773 232 l 728 0 l 57 0 l 56 54 l 87 54 q 128 56 119 54 q 142 58 138 57 q 151 63 146 59 q 156 69 155 66 q 159 78 157 71 q 160 90 160 85 l 160 392 l 54 360 l 47 426 l 160 454 l 160 825 q 147 862 160 855 q 92 871 129 871 l 38 871 z "},"":{"ha":365,"x_min":25,"x_max":342,"o":"m 25 976 q 229 1008 143 992 l 229 558 l 325 597 l 329 531 l 229 497 l 229 82 q 256 47 229 52 q 325 44 277 44 l 342 44 l 342 0 l 38 0 l 38 44 l 68 44 q 118 51 105 44 q 132 82 132 58 l 132 463 l 35 424 l 32 492 l 132 524 l 132 873 q 128 930 132 918 q 110 943 123 943 q 28 929 96 943 l 25 976 z "},"":{"ha":1033,"x_min":38,"x_max":996,"o":"m 488 1009 l 560 1207 l 657 1207 l 538 1009 l 488 1009 m 38 926 l 253 926 l 822 192 l 822 821 q 807 864 822 853 q 746 871 795 871 l 697 871 l 700 926 l 996 926 l 996 871 l 964 871 q 908 863 921 871 q 887 810 887 850 l 887 10 q 886 -17 887 -11 q 875 -24 884 -24 l 856 -24 q 842 -21 844 -24 q 838 -16 839 -18 q 832 -9 836 -14 q 825 1 828 -3 l 219 779 l 227 118 q 244 63 227 73 q 329 54 261 54 l 353 54 l 353 0 l 61 0 l 61 54 l 103 54 q 155 70 149 54 q 161 115 161 85 l 161 854 l 147 871 l 39 871 l 38 926 z "},"":{"ha":643,"x_min":24,"x_max":620,"o":"m 292 650 l 364 875 l 461 875 l 342 650 l 292 650 m 437 365 q 416 447 437 423 q 341 471 395 471 q 197 426 287 471 l 197 77 q 205 54 197 60 q 217 48 212 48 q 232 46 222 47 q 280 44 245 44 l 299 44 l 296 0 l 25 0 l 24 44 q 54 44 41 44 q 74 46 66 44 q 85 47 81 47 q 92 52 89 48 q 97 57 96 55 q 99 66 98 59 q 100 77 100 72 l 100 422 q 96 479 100 467 q 79 492 93 492 q 26 480 75 492 l 26 524 l 197 558 q 193 460 193 505 q 212 473 198 462 q 245 495 227 483 q 287 520 263 508 q 386 549 341 549 q 451 542 430 549 q 486 524 472 534 q 509 495 500 514 q 524 460 519 475 q 532 417 529 444 q 535 325 535 382 l 535 86 q 550 51 535 57 q 620 44 566 44 l 618 0 l 360 0 l 358 44 l 390 44 q 431 52 427 44 q 437 86 437 64 l 437 365 z "},"":{"ha":1033,"x_min":38,"x_max":996,"o":"m 532 -313 q 523 -320 532 -313 q 497 -332 513 -326 q 468 -339 480 -339 q 455 -330 455 -339 q 463 -315 455 -322 q 482 -302 471 -309 q 504 -287 493 -295 q 531 -231 531 -267 q 509 -190 531 -201 q 490 -182 499 -185 q 468 -170 468 -175 q 474 -157 468 -165 l 503 -118 q 522 -105 515 -105 q 544 -113 529 -105 q 564 -125 558 -121 q 572 -129 571 -129 q 578 -133 573 -130 q 585 -138 583 -137 q 590 -144 586 -140 q 594 -150 593 -147 q 598 -158 595 -153 q 601 -167 600 -162 q 603 -200 603 -181 q 593 -242 603 -218 q 566 -283 582 -266 q 532 -313 550 -300 m 38 926 l 253 926 l 822 192 l 822 821 q 807 864 822 853 q 746 871 795 871 l 697 871 l 700 926 l 996 926 l 996 871 l 964 871 q 908 863 921 871 q 887 810 887 850 l 887 10 q 886 -17 887 -11 q 875 -24 884 -24 l 856 -24 q 842 -21 844 -24 q 838 -16 839 -18 q 832 -9 836 -14 q 825 1 828 -3 l 219 779 l 227 118 q 244 63 227 73 q 329 54 261 54 l 353 54 l 353 0 l 61 0 l 61 54 l 103 54 q 155 70 149 54 q 161 115 161 85 l 161 854 l 147 871 l 39 871 l 38 926 z "},"":{"ha":643,"x_min":24,"x_max":620,"o":"m 330 -313 q 321 -320 330 -313 q 296 -332 312 -326 q 267 -339 279 -339 q 254 -330 254 -339 q 262 -315 254 -322 q 281 -302 270 -309 q 303 -287 292 -295 q 329 -231 329 -267 q 307 -190 329 -201 q 289 -182 298 -185 q 267 -170 267 -175 q 272 -157 267 -165 l 301 -118 q 321 -105 314 -105 q 342 -113 328 -105 q 363 -125 357 -121 q 370 -129 369 -129 q 377 -133 372 -130 q 383 -138 382 -137 q 388 -144 385 -140 q 393 -150 392 -147 q 396 -158 394 -153 q 399 -167 399 -162 q 401 -200 401 -181 q 391 -242 401 -218 q 365 -283 381 -266 q 330 -313 349 -300 m 437 365 q 416 447 437 423 q 341 471 395 471 q 197 426 287 471 l 197 77 q 205 54 197 60 q 217 48 212 48 q 232 46 222 47 q 280 44 245 44 l 299 44 l 296 0 l 25 0 l 24 44 q 54 44 41 44 q 74 46 66 44 q 85 47 81 47 q 92 52 89 48 q 97 57 96 55 q 99 66 98 59 q 100 77 100 72 l 100 422 q 96 479 100 467 q 79 492 93 492 q 26 480 75 492 l 26 524 l 197 558 q 193 460 193 505 q 212 473 198 462 q 245 495 227 483 q 287 520 263 508 q 386 549 341 549 q 451 542 430 549 q 486 524 472 534 q 509 495 500 514 q 524 460 519 475 q 532 417 529 444 q 535 325 535 382 l 535 86 q 550 51 535 57 q 620 44 566 44 l 618 0 l 360 0 l 358 44 l 390 44 q 431 52 427 44 q 437 86 437 64 l 437 365 z "},"":{"ha":1033,"x_min":38,"x_max":996,"o":"m 366 1201 l 446 1201 l 532 1101 l 617 1201 l 670 1201 q 558 1036 626 1140 l 476 1036 q 366 1201 424 1119 m 38 926 l 253 926 l 822 192 l 822 821 q 807 864 822 853 q 746 871 795 871 l 697 871 l 700 926 l 996 926 l 996 871 l 964 871 q 908 863 921 871 q 887 810 887 850 l 887 10 q 886 -17 887 -11 q 875 -24 884 -24 l 856 -24 q 842 -21 844 -24 q 838 -16 839 -18 q 832 -9 836 -14 q 825 1 828 -3 l 219 779 l 227 118 q 244 63 227 73 q 329 54 261 54 l 353 54 l 353 0 l 61 0 l 61 54 l 103 54 q 155 70 149 54 q 161 115 161 85 l 161 854 l 147 871 l 39 871 l 38 926 z "},"":{"ha":643,"x_min":24,"x_max":620,"o":"m 170 840 l 250 840 q 299 772 272 816 q 336 714 327 728 q 363 756 346 729 q 421 840 401 818 l 474 840 q 362 650 435 781 l 280 650 q 254 698 276 659 q 224 752 233 738 q 170 840 194 806 m 437 365 q 416 447 437 423 q 341 471 395 471 q 197 426 287 471 l 197 77 q 205 54 197 60 q 217 48 212 48 q 232 46 222 47 q 280 44 245 44 l 299 44 l 296 0 l 25 0 l 24 44 q 54 44 41 44 q 74 46 66 44 q 85 47 81 47 q 92 52 89 48 q 97 57 96 55 q 99 66 98 59 q 100 77 100 72 l 100 422 q 96 479 100 467 q 79 492 93 492 q 26 480 75 492 l 26 524 l 197 558 q 193 460 193 505 q 212 473 198 462 q 245 495 227 483 q 287 520 263 508 q 386 549 341 549 q 451 542 430 549 q 486 524 472 534 q 509 495 500 514 q 524 460 519 475 q 532 417 529 444 q 535 325 535 382 l 535 86 q 550 51 535 57 q 620 44 566 44 l 618 0 l 360 0 l 358 44 l 390 44 q 431 52 427 44 q 437 86 437 64 l 437 365 z "},"":{"ha":980,"x_min":96,"x_max":957,"o":"m 775 365 q 754 447 775 423 q 678 471 732 471 q 535 426 624 471 l 535 77 q 542 54 535 60 q 555 48 550 48 q 570 46 560 47 q 618 44 582 44 l 636 44 l 633 0 l 362 0 l 361 44 q 391 44 378 44 q 411 46 404 44 q 422 47 419 47 q 429 52 426 48 q 434 57 433 55 q 436 66 435 59 q 437 77 437 72 l 437 422 q 434 479 437 467 q 416 492 430 492 q 364 480 413 492 l 364 524 l 535 558 q 530 460 530 505 q 549 473 535 462 q 582 495 564 483 q 624 520 601 508 q 723 549 679 549 q 789 542 767 549 q 823 524 810 534 q 847 495 837 514 q 861 460 857 475 q 869 417 866 444 q 872 325 872 382 l 872 86 q 888 51 872 57 q 957 44 903 44 l 956 0 l 697 0 l 696 44 l 728 44 q 768 52 764 44 q 775 86 775 64 l 775 365 m 96 663 q 96 670 96 663 q 112 686 96 677 q 139 705 128 696 q 160 724 150 714 q 182 776 182 748 q 177 816 182 804 q 164 834 172 828 q 147 845 156 840 q 130 852 137 849 q 111 867 111 857 q 117 879 111 868 l 150 928 q 170 944 161 944 q 207 927 179 944 q 241 905 235 910 q 264 845 262 885 l 264 836 q 203 700 264 761 q 149 660 174 671 q 110 650 123 650 q 96 663 96 650 z "},"":{"ha":1108,"x_min":75,"x_max":1033,"o":"m 75 468 q 94 604 75 534 q 146 727 113 674 q 226 823 180 781 q 325 891 271 865 q 557 946 435 946 q 845 857 717 946 q 1019 591 980 763 q 1033 470 1033 530 q 1024 360 1033 410 q 994 261 1014 309 q 944 170 974 213 q 875 92 915 128 q 785 32 834 57 q 546 -22 682 -22 q 228 90 356 -22 q 75 468 75 224 m 243 710 q 233 690 243 710 q 212 617 223 671 q 200 507 200 563 q 208 404 200 452 q 232 310 216 356 q 272 224 249 264 q 328 149 295 183 q 398 90 360 115 q 583 38 478 38 q 741 80 668 38 q 860 210 814 123 q 907 428 907 299 q 787 768 907 635 q 621 875 719 845 q 537 889 575 889 q 470 883 499 889 q 408 864 440 878 q 346 831 375 851 q 289 780 316 811 q 243 710 262 749 z "},"":{"ha":636,"x_min":35,"x_max":602,"o":"m 158 722 l 158 789 l 478 789 l 478 722 l 158 722 m 35 272 q 45 356 35 315 q 77 434 55 397 q 130 498 99 471 q 310 557 199 557 q 522 477 446 557 q 602 256 602 394 q 524 59 602 137 q 313 -21 445 -21 q 79 107 156 -21 q 35 272 35 180 m 146 310 q 154 227 146 266 q 178 153 162 188 q 216 92 194 119 q 268 49 238 65 q 331 33 297 33 q 390 46 364 33 q 434 80 417 58 q 463 130 452 101 q 485 253 485 184 q 470 369 485 321 q 429 448 455 418 q 297 510 375 510 q 191 458 235 510 q 146 310 146 404 z "},"":{"ha":1108,"x_min":75,"x_max":1033,"o":"m 657 1190 l 656 1201 l 690 1201 l 690 1192 q 553 1040 690 1040 q 429 1103 464 1040 q 411 1169 411 1134 l 413 1201 l 482 1201 l 482 1189 q 506 1125 482 1143 q 566 1109 527 1109 q 631 1131 605 1109 q 657 1190 657 1152 m 75 468 q 94 604 75 534 q 146 727 113 674 q 226 823 180 781 q 325 891 271 865 q 557 946 435 946 q 845 857 717 946 q 1019 591 980 763 q 1033 470 1033 530 q 1024 360 1033 410 q 994 261 1014 309 q 944 170 974 213 q 875 92 915 128 q 785 32 834 57 q 546 -22 682 -22 q 228 90 356 -22 q 75 468 75 224 m 243 710 q 233 690 243 710 q 212 617 223 671 q 200 507 200 563 q 208 404 200 452 q 232 310 216 356 q 272 224 249 264 q 328 149 295 183 q 398 90 360 115 q 583 38 478 38 q 741 80 668 38 q 860 210 814 123 q 907 428 907 299 q 787 768 907 635 q 621 875 719 845 q 537 889 575 889 q 470 883 499 889 q 408 864 440 878 q 346 831 375 851 q 289 780 316 811 q 243 710 262 749 z "},"":{"ha":636,"x_min":35,"x_max":602,"o":"m 171 820 l 172 840 l 242 840 q 241 801 240 829 q 267 751 241 774 q 329 729 293 729 q 391 754 365 729 q 417 826 417 779 l 415 840 l 450 840 q 451 804 451 830 q 440 748 451 779 q 410 699 429 718 q 310 660 370 660 q 211 701 251 660 q 171 820 171 743 m 35 272 q 45 356 35 315 q 77 434 55 397 q 130 498 99 471 q 310 557 199 557 q 522 477 446 557 q 602 256 602 394 q 524 59 602 137 q 313 -21 445 -21 q 79 107 156 -21 q 35 272 35 180 m 146 310 q 154 227 146 266 q 178 153 162 188 q 216 92 194 119 q 268 49 238 65 q 331 33 297 33 q 390 46 364 33 q 434 80 417 58 q 463 130 452 101 q 485 253 485 184 q 470 369 485 321 q 429 448 455 418 q 297 510 375 510 q 191 458 235 510 q 146 310 146 404 z "},"":{"ha":1108,"x_min":75,"x_max":1033,"o":"m 75 468 q 94 604 75 534 q 146 727 113 674 q 226 823 180 781 q 325 891 271 865 q 557 946 435 946 q 845 857 717 946 q 1019 591 980 763 q 1033 470 1033 530 q 1024 360 1033 410 q 994 261 1014 309 q 944 170 974 213 q 875 92 915 128 q 785 32 834 57 q 546 -22 682 -22 q 228 90 356 -22 q 75 468 75 224 m 243 710 q 233 690 243 710 q 212 617 223 671 q 200 507 200 563 q 208 404 200 452 q 232 310 216 356 q 272 224 249 264 q 328 149 295 183 q 398 90 360 115 q 583 38 478 38 q 741 80 668 38 q 860 210 814 123 q 907 428 907 299 q 787 768 907 635 q 621 875 719 845 q 537 889 575 889 q 470 883 499 889 q 408 864 440 878 q 346 831 375 851 q 289 780 316 811 q 243 710 262 749 z "},"":{"ha":636,"x_min":35,"x_max":602,"o":"m 35 272 q 45 356 35 315 q 77 434 55 397 q 130 498 99 471 q 310 557 199 557 q 522 477 446 557 q 602 256 602 394 q 524 59 602 137 q 313 -21 445 -21 q 79 107 156 -21 q 35 272 35 180 m 146 310 q 154 227 146 266 q 178 153 162 188 q 216 92 194 119 q 268 49 238 65 q 331 33 297 33 q 390 46 364 33 q 434 80 417 58 q 463 130 452 101 q 485 253 485 184 q 470 369 485 321 q 429 448 455 418 q 297 510 375 510 q 191 458 235 510 q 146 310 146 404 z "},"":{"ha":1464,"x_min":76,"x_max":1411,"o":"m 939 64 q 1270 71 1217 66 q 1330 83 1323 75 q 1342 101 1338 90 q 1364 222 1345 112 l 1411 215 l 1376 0 l 860 0 q 715 -11 837 0 q 536 -22 593 -22 q 421 -8 480 -22 q 315 30 362 5 q 229 90 268 55 q 162 166 190 124 q 114 255 134 208 q 76 436 76 348 q 90 584 76 523 q 130 695 104 646 q 190 785 155 744 q 268 856 225 826 q 358 905 310 885 q 558 946 451 946 q 691 936 620 946 q 844 926 762 926 l 1360 926 q 1368 708 1361 846 l 1313 706 q 1300 849 1308 834 q 1279 865 1292 864 q 1211 867 1267 867 l 975 867 q 910 860 918 867 q 901 850 902 853 q 898 838 899 846 q 896 801 896 828 l 896 608 q 900 563 896 568 q 909 556 904 559 q 939 553 917 553 l 1150 553 q 1192 560 1186 553 q 1200 576 1198 567 q 1203 620 1203 589 l 1203 675 l 1254 674 l 1254 342 l 1203 342 l 1203 434 q 1202 451 1203 443 q 1201 465 1201 460 q 1199 474 1201 469 q 1196 482 1197 479 q 1191 487 1195 484 q 1185 490 1187 489 q 1177 491 1183 490 q 1167 492 1171 492 l 944 492 q 904 485 910 492 q 896 449 896 475 l 896 121 q 904 74 896 84 q 939 64 912 64 m 783 843 q 529 889 655 889 q 347 831 432 889 q 212 617 243 762 q 200 503 200 563 q 211 388 200 444 q 244 280 223 332 q 299 184 266 229 q 374 108 332 140 q 578 38 463 38 q 783 81 694 38 l 783 843 z "},"":{"ha":1030,"x_min":36,"x_max":996,"o":"m 36 275 q 46 356 36 315 q 78 434 56 397 q 131 498 99 471 q 299 557 199 557 q 458 518 398 557 q 537 415 518 479 q 621 517 567 481 q 727 554 674 554 q 818 540 779 554 q 882 505 857 526 q 928 460 908 485 q 965 376 965 413 q 958 361 965 366 q 944 356 950 356 l 594 314 l 594 294 q 718 91 594 139 q 792 76 755 76 q 857 83 829 76 q 905 100 886 90 q 940 119 925 109 q 985 142 978 142 q 996 130 996 142 q 988 105 996 118 q 967 76 981 93 q 932 44 954 60 q 886 13 911 27 q 753 -18 829 -18 q 542 126 592 -18 q 453 18 514 56 q 313 -21 391 -21 q 104 73 182 -21 q 36 275 36 154 m 146 310 q 154 227 146 266 q 178 153 162 188 q 216 92 194 119 q 268 49 238 65 q 331 33 297 33 q 390 46 364 33 q 434 80 417 58 q 463 130 452 101 q 485 253 485 184 q 470 369 485 321 q 429 448 455 418 q 297 510 375 510 q 191 458 235 510 q 146 310 146 404 m 598 362 l 838 393 q 809 449 829 424 q 779 485 789 475 q 716 507 752 507 q 644 468 679 507 q 598 362 610 429 z "},"":{"ha":964,"x_min":32,"x_max":925,"o":"m 361 1009 l 433 1207 l 531 1207 l 411 1009 l 361 1009 m 393 426 q 267 435 308 426 l 267 95 q 279 61 267 66 q 362 54 296 54 l 433 54 l 431 0 l 61 0 l 61 54 l 93 54 q 143 58 137 54 q 151 67 149 61 q 154 95 154 73 l 154 821 q 123 867 154 860 q 71 871 105 871 l 32 871 l 33 926 l 353 926 q 525 912 463 926 q 635 859 587 898 q 709 769 684 820 q 735 678 735 718 q 729 613 735 638 q 707 562 722 588 q 670 515 693 536 q 536 446 621 468 l 803 92 q 834 61 822 68 q 863 54 847 54 l 922 54 l 925 0 l 724 0 l 426 428 l 393 426 m 267 480 q 356 467 283 467 q 539 510 482 467 q 597 645 597 553 q 523 807 597 745 q 308 871 447 871 q 277 863 284 871 q 267 807 267 850 l 267 480 z "},"":{"ha":475,"x_min":24,"x_max":451,"o":"m 239 650 l 311 875 l 408 875 l 289 650 l 239 650 m 132 440 q 116 490 132 490 q 28 475 107 490 l 24 518 q 50 523 36 520 q 71 527 64 526 q 96 532 77 528 q 144 544 115 536 q 227 564 174 551 l 227 407 q 242 435 227 408 q 272 480 258 461 q 302 513 287 498 q 375 549 337 549 q 441 526 416 549 q 451 514 446 523 l 399 376 l 376 385 l 376 403 q 343 435 376 435 q 294 422 320 435 q 249 385 268 409 q 229 336 229 362 l 229 101 q 243 54 229 62 q 317 44 256 44 l 376 44 l 376 0 l 44 0 l 44 44 l 71 44 q 120 50 115 44 q 129 63 126 55 q 132 101 132 72 l 132 440 z "},"":{"ha":964,"x_min":32,"x_max":925,"o":"m 481 -263 q 472 -270 481 -263 q 446 -283 463 -276 q 417 -289 430 -289 q 405 -280 405 -289 q 413 -265 405 -272 q 431 -252 420 -259 q 454 -237 443 -245 q 480 -181 480 -217 q 458 -140 480 -151 q 439 -132 449 -135 q 417 -120 417 -125 q 423 -107 417 -116 l 452 -68 q 472 -56 465 -56 q 493 -64 478 -56 q 514 -75 508 -72 q 521 -80 520 -79 q 528 -84 523 -80 q 534 -89 533 -87 q 539 -94 535 -90 q 544 -100 543 -97 q 547 -108 545 -103 q 550 -117 550 -113 q 552 -150 552 -132 q 542 -192 552 -168 q 516 -233 532 -216 q 481 -263 500 -250 m 393 426 q 267 435 308 426 l 267 95 q 279 61 267 66 q 362 54 296 54 l 433 54 l 431 0 l 61 0 l 61 54 l 93 54 q 143 58 137 54 q 151 67 149 61 q 154 95 154 73 l 154 821 q 123 867 154 860 q 71 871 105 871 l 32 871 l 33 926 l 353 926 q 525 912 463 926 q 635 859 587 898 q 709 769 684 820 q 735 678 735 718 q 729 613 735 638 q 707 562 722 588 q 670 515 693 536 q 536 446 621 468 l 803 92 q 834 61 822 68 q 863 54 847 54 l 922 54 l 925 0 l 724 0 l 426 428 l 393 426 m 267 480 q 356 467 283 467 q 539 510 482 467 q 597 645 597 553 q 523 807 597 745 q 308 871 447 871 q 277 863 284 871 q 267 807 267 850 l 267 480 z "},"":{"ha":475,"x_min":24,"x_max":451,"o":"m 240 -263 q 231 -270 240 -263 q 205 -283 222 -276 q 176 -289 189 -289 q 164 -280 164 -289 q 172 -265 164 -272 q 190 -252 179 -259 q 213 -237 201 -245 q 239 -181 239 -217 q 217 -140 239 -151 q 198 -132 208 -135 q 176 -120 176 -125 q 182 -107 176 -116 l 211 -68 q 231 -56 224 -56 q 252 -64 237 -56 q 273 -75 267 -72 q 280 -80 279 -79 q 287 -84 281 -80 q 293 -89 292 -87 q 298 -94 294 -90 q 303 -100 302 -97 q 306 -108 304 -103 q 309 -117 309 -113 q 311 -150 311 -132 q 301 -192 311 -168 q 275 -233 291 -216 q 240 -263 259 -250 m 132 440 q 116 490 132 490 q 28 475 107 490 l 24 518 q 50 523 36 520 q 71 527 64 526 q 96 532 77 528 q 144 544 115 536 q 227 564 174 551 l 227 407 q 242 435 227 408 q 272 480 258 461 q 302 513 287 498 q 375 549 337 549 q 441 526 416 549 q 451 514 446 523 l 399 376 l 376 385 l 376 403 q 343 435 376 435 q 294 422 320 435 q 249 385 268 409 q 229 336 229 362 l 229 101 q 243 54 229 62 q 317 44 256 44 l 376 44 l 376 0 l 44 0 l 44 44 l 71 44 q 120 50 115 44 q 129 63 126 55 q 132 101 132 72 l 132 440 z "},"":{"ha":964,"x_min":32,"x_max":925,"o":"m 239 1201 l 319 1201 l 406 1101 l 490 1201 l 543 1201 q 432 1036 499 1140 l 350 1036 q 239 1201 298 1119 m 393 426 q 267 435 308 426 l 267 95 q 279 61 267 66 q 362 54 296 54 l 433 54 l 431 0 l 61 0 l 61 54 l 93 54 q 143 58 137 54 q 151 67 149 61 q 154 95 154 73 l 154 821 q 123 867 154 860 q 71 871 105 871 l 32 871 l 33 926 l 353 926 q 525 912 463 926 q 635 859 587 898 q 709 769 684 820 q 735 678 735 718 q 729 613 735 638 q 707 562 722 588 q 670 515 693 536 q 536 446 621 468 l 803 92 q 834 61 822 68 q 863 54 847 54 l 922 54 l 925 0 l 724 0 l 426 428 l 393 426 m 267 480 q 356 467 283 467 q 539 510 482 467 q 597 645 597 553 q 523 807 597 745 q 308 871 447 871 q 277 863 284 871 q 267 807 267 850 l 267 480 z "},"":{"ha":475,"x_min":24,"x_max":451,"o":"m 117 840 l 197 840 q 246 772 219 816 q 283 714 274 728 q 310 756 293 729 q 368 840 348 818 l 421 840 q 310 650 382 781 l 228 650 q 201 698 223 659 q 171 752 180 738 q 117 840 141 806 m 132 440 q 116 490 132 490 q 28 475 107 490 l 24 518 q 50 523 36 520 q 71 527 64 526 q 96 532 77 528 q 144 544 115 536 q 227 564 174 551 l 227 407 q 242 435 227 408 q 272 480 258 461 q 302 513 287 498 q 375 549 337 549 q 441 526 416 549 q 451 514 446 523 l 399 376 l 376 385 l 376 403 q 343 435 376 435 q 294 422 320 435 q 249 385 268 409 q 229 336 229 362 l 229 101 q 243 54 229 62 q 317 44 256 44 l 376 44 l 376 0 l 44 0 l 44 44 l 71 44 q 120 50 115 44 q 129 63 126 55 q 132 101 132 72 l 132 440 z "},"":{"ha":718,"x_min":35,"x_max":636,"o":"m 332 1009 l 404 1207 l 502 1207 l 382 1009 l 332 1009 m 89 -39 q 35 236 78 23 l 83 242 l 101 156 q 116 104 111 110 q 130 92 122 97 q 145 84 138 86 q 183 71 152 82 q 321 46 253 46 q 430 65 389 46 q 498 124 472 85 q 524 201 524 163 q 513 263 524 239 q 488 306 503 287 q 448 344 472 324 q 346 408 410 374 l 289 440 q 180 511 204 488 q 140 553 155 534 q 115 592 124 572 q 95 690 95 637 q 118 790 95 743 q 181 868 142 837 q 371 938 264 938 q 466 924 424 938 q 513 910 507 910 q 524 919 519 910 q 531 946 529 928 l 578 949 l 598 694 l 549 693 l 536 817 q 411 866 492 851 q 342 872 379 872 q 268 853 304 872 q 209 801 231 835 q 186 734 186 766 q 192 682 186 702 q 211 645 198 662 q 238 613 223 628 q 274 583 252 598 q 360 529 307 559 l 436 488 q 546 416 518 442 q 590 372 574 391 q 615 336 605 354 q 636 251 636 295 q 623 169 636 207 q 583 98 610 131 q 519 41 557 65 q 321 -13 439 -13 q 212 0 254 -13 q 160 13 170 13 q 135 -17 135 13 l 136 -35 l 89 -39 z "},"":{"ha":482,"x_min":31,"x_max":424,"o":"m 208 650 l 280 875 l 378 875 l 258 650 l 208 650 m 95 -18 l 96 -32 l 56 -35 l 31 196 l 74 199 l 87 83 q 174 40 129 51 q 239 29 218 29 q 276 36 260 29 q 302 55 292 43 q 321 101 321 80 q 315 137 321 123 q 302 161 310 151 q 281 184 295 172 q 225 223 261 200 l 175 257 q 71 411 71 325 q 93 480 71 448 q 154 531 115 512 q 232 550 194 550 q 298 544 271 550 q 341 531 325 537 q 363 525 357 525 q 374 567 374 525 l 418 565 l 418 356 l 374 356 l 372 454 q 288 495 349 482 q 239 500 266 500 q 187 480 212 500 q 162 433 162 461 q 169 403 162 413 q 177 391 175 394 q 185 381 179 387 q 194 374 192 376 q 204 365 196 371 q 215 357 213 359 q 239 340 222 351 l 301 299 q 381 237 366 256 q 406 203 397 218 q 424 142 424 176 q 412 80 424 108 q 379 30 400 52 q 243 -18 332 -18 q 153 -9 196 -18 q 107 0 110 0 q 95 -18 95 0 z "},"":{"ha":718,"x_min":35,"x_max":636,"o":"m 360 1136 l 275 1036 l 222 1036 q 333 1201 266 1097 l 415 1201 q 527 1036 465 1123 l 446 1036 q 399 1090 427 1057 q 360 1136 371 1123 m 89 -39 q 35 236 78 23 l 83 242 l 101 156 q 116 104 111 110 q 130 92 122 97 q 145 84 138 86 q 183 71 152 82 q 321 46 253 46 q 430 65 389 46 q 498 124 472 85 q 524 201 524 163 q 513 263 524 239 q 488 306 503 287 q 448 344 472 324 q 346 408 410 374 l 289 440 q 180 511 204 488 q 140 553 155 534 q 115 592 124 572 q 95 690 95 637 q 118 790 95 743 q 181 868 142 837 q 371 938 264 938 q 466 924 424 938 q 513 910 507 910 q 524 919 519 910 q 531 946 529 928 l 578 949 l 598 694 l 549 693 l 536 817 q 411 866 492 851 q 342 872 379 872 q 268 853 304 872 q 209 801 231 835 q 186 734 186 766 q 192 682 186 702 q 211 645 198 662 q 238 613 223 628 q 274 583 252 598 q 360 529 307 559 l 436 488 q 546 416 518 442 q 590 372 574 391 q 615 336 605 354 q 636 251 636 295 q 623 169 636 207 q 583 98 610 131 q 519 41 557 65 q 321 -13 439 -13 q 212 0 254 -13 q 160 13 170 13 q 135 -17 135 13 l 136 -35 l 89 -39 z "},"":{"ha":482,"x_min":31,"x_max":424,"o":"m 98 650 q 210 840 137 710 l 292 840 q 313 801 298 829 q 337 759 329 772 q 357 723 344 745 q 403 650 380 683 l 322 650 q 273 718 301 673 q 236 775 245 762 q 209 733 226 761 q 151 650 172 674 l 98 650 m 95 -18 l 96 -32 l 56 -35 l 31 196 l 74 199 l 87 83 q 174 40 129 51 q 239 29 218 29 q 276 36 260 29 q 302 55 292 43 q 321 101 321 80 q 315 137 321 123 q 302 161 310 151 q 281 184 295 172 q 225 223 261 200 l 175 257 q 71 411 71 325 q 93 480 71 448 q 154 531 115 512 q 232 550 194 550 q 298 544 271 550 q 341 531 325 537 q 363 525 357 525 q 374 567 374 525 l 418 565 l 418 356 l 374 356 l 372 454 q 288 495 349 482 q 239 500 266 500 q 187 480 212 500 q 162 433 162 461 q 169 403 162 413 q 177 391 175 394 q 185 381 179 387 q 194 374 192 376 q 204 365 196 371 q 215 357 213 359 q 239 340 222 351 l 301 299 q 381 237 366 256 q 406 203 397 218 q 424 142 424 176 q 412 80 424 108 q 379 30 400 52 q 243 -18 332 -18 q 153 -9 196 -18 q 107 0 110 0 q 95 -18 95 0 z "},"":{"ha":718,"x_min":35,"x_max":636,"o":"m 89 -39 q 35 236 78 23 l 83 242 l 101 156 q 116 104 111 110 q 130 92 122 97 q 145 84 138 86 q 183 71 152 82 q 321 46 253 46 q 430 65 389 46 q 498 124 472 85 q 524 201 524 163 q 513 263 524 239 q 488 306 503 287 q 448 344 472 324 q 346 408 410 374 l 289 440 q 180 511 204 488 q 140 553 155 534 q 115 592 124 572 q 95 690 95 637 q 118 790 95 743 q 181 868 142 837 q 371 938 264 938 q 466 924 424 938 q 513 910 507 910 q 524 919 519 910 q 531 946 529 928 l 578 949 l 598 694 l 549 693 l 536 817 q 411 866 492 851 q 342 872 379 872 q 268 853 304 872 q 209 801 231 835 q 186 734 186 766 q 192 682 186 702 q 211 645 198 662 q 238 613 223 628 q 274 583 252 598 q 360 529 307 559 l 436 488 q 546 416 518 442 q 590 372 574 391 q 615 336 605 354 q 636 247 636 295 q 616 153 636 198 q 559 72 596 108 q 339 -13 479 -8 l 315 -92 l 339 -90 q 436 -108 401 -90 q 498 -196 498 -139 q 403 -298 498 -273 q 348 -306 376 -306 q 258 -288 289 -306 l 288 -254 q 358 -268 329 -268 q 404 -250 386 -268 q 422 -206 422 -232 q 413 -167 422 -180 q 388 -146 404 -153 q 330 -132 358 -132 q 292 -133 301 -132 l 275 -110 l 307 -13 q 210 1 250 -11 q 160 13 170 13 q 135 -17 135 13 l 136 -35 l 89 -39 z "},"":{"ha":482,"x_min":31,"x_max":424,"o":"m 95 -18 l 96 -32 l 56 -35 l 31 196 l 74 199 l 87 83 q 174 40 129 51 q 239 29 218 29 q 276 36 260 29 q 302 55 292 43 q 321 101 321 80 q 315 137 321 123 q 302 161 310 151 q 281 184 295 172 q 225 223 261 200 l 175 257 q 71 411 71 325 q 93 480 71 448 q 154 531 115 512 q 232 550 194 550 q 298 544 271 550 q 341 531 325 537 q 363 525 357 525 q 374 567 374 525 l 418 565 l 418 356 l 374 356 l 372 454 q 288 495 349 482 q 239 500 266 500 q 187 480 212 500 q 162 433 162 461 q 169 403 162 413 q 177 391 175 394 q 185 381 179 387 q 194 374 192 376 q 204 365 196 371 q 215 357 213 359 q 239 340 222 351 l 301 299 q 381 237 366 256 q 406 203 397 218 q 424 142 424 176 q 412 81 424 108 q 380 31 401 53 q 249 -18 334 -16 l 227 -92 l 250 -90 q 348 -108 313 -90 q 410 -196 410 -139 q 314 -298 410 -273 q 259 -306 288 -306 q 170 -288 200 -306 l 199 -254 q 269 -268 240 -268 q 315 -250 297 -268 q 333 -206 333 -232 q 324 -167 333 -180 q 299 -146 315 -153 q 241 -132 269 -132 q 203 -133 213 -132 l 186 -110 l 217 -17 q 144 -7 179 -14 q 107 0 110 0 q 95 -18 95 0 z "},"":{"ha":718,"x_min":35,"x_max":636,"o":"m 210 1201 l 290 1201 l 376 1101 l 461 1201 l 514 1201 q 403 1036 470 1140 l 321 1036 q 210 1201 269 1119 m 89 -39 q 35 236 78 23 l 83 242 l 101 156 q 116 104 111 110 q 130 92 122 97 q 145 84 138 86 q 183 71 152 82 q 321 46 253 46 q 430 65 389 46 q 498 124 472 85 q 524 201 524 163 q 513 263 524 239 q 488 306 503 287 q 448 344 472 324 q 346 408 410 374 l 289 440 q 180 511 204 488 q 140 553 155 534 q 115 592 124 572 q 95 690 95 637 q 118 790 95 743 q 181 868 142 837 q 371 938 264 938 q 466 924 424 938 q 513 910 507 910 q 524 919 519 910 q 531 946 529 928 l 578 949 l 598 694 l 549 693 l 536 817 q 411 866 492 851 q 342 872 379 872 q 268 853 304 872 q 209 801 231 835 q 186 734 186 766 q 192 682 186 702 q 211 645 198 662 q 238 613 223 628 q 274 583 252 598 q 360 529 307 559 l 436 488 q 546 416 518 442 q 590 372 574 391 q 615 336 605 354 q 636 251 636 295 q 623 169 636 207 q 583 98 610 131 q 519 41 557 65 q 321 -13 439 -13 q 212 0 254 -13 q 160 13 170 13 q 135 -17 135 13 l 136 -35 l 89 -39 z "},"":{"ha":482,"x_min":31,"x_max":424,"o":"m 86 840 l 166 840 q 216 772 188 816 q 253 714 243 728 q 280 756 263 729 q 337 840 318 818 l 390 840 q 279 650 352 781 l 197 650 q 171 698 192 659 q 141 752 149 738 q 86 840 110 806 m 95 -18 l 96 -32 l 56 -35 l 31 196 l 74 199 l 87 83 q 174 40 129 51 q 239 29 218 29 q 276 36 260 29 q 302 55 292 43 q 321 101 321 80 q 315 137 321 123 q 302 161 310 151 q 281 184 295 172 q 225 223 261 200 l 175 257 q 71 411 71 325 q 93 480 71 448 q 154 531 115 512 q 232 550 194 550 q 298 544 271 550 q 341 531 325 537 q 363 525 357 525 q 374 567 374 525 l 418 565 l 418 356 l 374 356 l 372 454 q 288 495 349 482 q 239 500 266 500 q 187 480 212 500 q 162 433 162 461 q 169 403 162 413 q 177 391 175 394 q 185 381 179 387 q 194 374 192 376 q 204 365 196 371 q 215 357 213 359 q 239 340 222 351 l 301 299 q 381 237 366 256 q 406 203 397 218 q 424 142 424 176 q 412 80 424 108 q 379 30 400 52 q 243 -18 332 -18 q 153 -9 196 -18 q 107 0 110 0 q 95 -18 95 0 z "},"":{"ha":875,"x_min":15,"x_max":838,"o":"m 406 -92 l 429 -90 q 527 -108 492 -90 q 589 -196 589 -139 q 493 -298 589 -273 q 438 -306 467 -306 q 349 -288 379 -306 l 378 -254 q 448 -268 419 -268 q 494 -250 476 -268 q 512 -206 512 -232 q 503 -167 512 -180 q 478 -146 494 -153 q 382 -133 435 -126 l 365 -110 l 401 1 l 247 1 l 247 54 q 287 54 271 54 q 313 55 302 54 q 329 56 324 56 q 341 58 334 57 q 350 62 348 60 q 356 67 353 64 q 360 75 359 71 q 362 85 361 78 q 364 113 364 93 l 364 787 q 357 850 364 841 q 342 861 351 859 q 303 865 332 865 l 157 865 q 101 858 112 865 q 85 844 90 851 q 78 829 81 837 q 74 807 76 820 q 69 754 72 791 q 65 701 67 717 l 15 703 q 36 926 27 821 l 838 926 l 821 704 l 771 706 q 779 827 779 805 q 764 857 779 848 q 708 865 750 865 q 566 865 616 865 q 507 864 516 865 q 494 861 498 862 q 486 856 490 860 q 480 848 481 851 q 478 836 479 845 q 476 820 476 826 l 476 118 q 490 64 476 75 q 557 54 503 54 l 612 54 l 614 0 l 433 0 l 406 -92 z "}}}
